<svg id="Grupo_760" data-name="Grupo 760" xmlns="http://www.w3.org/2000/svg" xmlns:xlink="http://www.w3.org/1999/xlink" width="140.667" height="43.31" viewBox="0 0 140.667 43.31">
  <defs>
    <clipPath id="clip-path">
      <rect id="Rect치ngulo_121" data-name="Rect치ngulo 121" width="140.667" height="43.31" fill="none"/>
    </clipPath>
  </defs>
  <g id="Grupo_160" data-name="Grupo 160" clip-path="url(#clip-path)">
    <path id="Trazado_62" data-name="Trazado 62" d="M130.335,43.31h-120A10.332,10.332,0,0,1,0,32.978V10.332A10.332,10.332,0,0,1,10.332,0h120a10.332,10.332,0,0,1,10.332,10.332V32.978A10.332,10.332,0,0,1,130.335,43.31" fill="#070707"/>
    <path id="Trazado_63" data-name="Trazado 63" d="M713.943,147.049a2.628,2.628,0,0,1,0,5.248h-1.764v-5.248Zm-1.109,4.659H713.9c1.189,0,1.851-.727,1.851-2.029s-.658-2.04-1.851-2.04h-1.066Z" transform="translate(-658.54 -135.974)" fill="#fff"/>
    <path id="Trazado_64" data-name="Trazado 64" d="M780.426,167.6a1.762,1.762,0,1,1,1.753,1.957,1.745,1.745,0,0,1-1.753-1.957m2.859,0c0-.891-.436-1.4-1.106-1.4s-1.109.509-1.109,1.4.44,1.4,1.109,1.4,1.106-.509,1.106-1.4" transform="translate(-721.647 -153.164)" fill="#fff"/>
    <path id="Trazado_65" data-name="Trazado 65" d="M840.281,170.29h-.644l-.855-2.928h-.015l-.851,2.928h-.644l-1.058-3.782h.629l.757,3.077h.015l.855-3.077h.611l.858,3.077h.015l.757-3.077h.625Z" transform="translate(-773.234 -153.967)" fill="#fff"/>
    <path id="Trazado_66" data-name="Trazado 66" d="M916,165.7h.6v.6h.015a1.265,1.265,0,0,1,1.2-.669,1.245,1.245,0,0,1,1.309,1.393v2.455h-.633v-2.342c0-.611-.287-.946-.869-.946a.965.965,0,0,0-.986,1.062v2.226H916Z" transform="translate(-847.012 -153.164)" fill="#fff"/>
    <rect id="Rect치ngulo_120" data-name="Rect치ngulo 120" width="0.633" height="5.248" transform="translate(73.319 11.075)" fill="#fff"/>
    <path id="Trazado_67" data-name="Trazado 67" d="M995.712,167.6a1.762,1.762,0,1,1,1.753,1.957,1.745,1.745,0,0,1-1.753-1.957m2.858,0c0-.891-.436-1.4-1.106-1.4s-1.109.509-1.109,1.4.44,1.4,1.109,1.4,1.106-.509,1.106-1.4" transform="translate(-920.718 -153.164)" fill="#fff"/>
    <path id="Trazado_68" data-name="Trazado 68" d="M1053.577,168.418c0-.647.5-1.055,1.371-1.106l1.084-.062v-.316c0-.462-.306-.738-.829-.738a.794.794,0,0,0-.873.6h-.611a1.335,1.335,0,0,1,1.5-1.156c.887,0,1.447.48,1.447,1.233v2.615h-.6v-.651h-.015a1.379,1.379,0,0,1-1.215.716,1.136,1.136,0,0,1-1.258-1.135m2.455-.367v-.309l-1.011.062c-.509.033-.8.258-.8.615s.3.6.756.6a1,1,0,0,0,1.055-.964" transform="translate(-974.225 -153.164)" fill="#fff"/>
    <path id="Trazado_69" data-name="Trazado 69" d="M1107.724,150.406c0-1.186.651-1.957,1.6-1.957a1.329,1.329,0,0,1,1.2.68h.015v-2.08h.633V152.3h-.6v-.64h-.011a1.354,1.354,0,0,1-1.222.706c-.964,0-1.618-.771-1.618-1.957m.647,0c0,.858.422,1.4,1.091,1.4.651,0,1.087-.553,1.087-1.4s-.436-1.4-1.087-1.4c-.669,0-1.091.546-1.091,1.4" transform="translate(-1024.294 -135.974)" fill="#fff"/>
    <path id="Trazado_70" data-name="Trazado 70" d="M1192.649,167.6a1.762,1.762,0,1,1,1.753,1.957,1.745,1.745,0,0,1-1.753-1.957m2.859,0c0-.891-.437-1.4-1.106-1.4s-1.109.509-1.109,1.4.44,1.4,1.109,1.4,1.106-.509,1.106-1.4" transform="translate(-1102.823 -153.164)" fill="#fff"/>
    <path id="Trazado_71" data-name="Trazado 71" d="M1252.542,165.7h.6v.6h.015a1.266,1.266,0,0,1,1.2-.669,1.245,1.245,0,0,1,1.309,1.393v2.455h-.633v-2.342c0-.611-.287-.946-.869-.946a.965.965,0,0,0-.985,1.062v2.226h-.633Z" transform="translate(-1158.205 -153.164)" fill="#fff"/>
    <path id="Trazado_72" data-name="Trazado 72" d="M1331.226,154.388v.913h.735v.52h-.735v2.248c0,.345.146.5.469.5a2.475,2.475,0,0,0,.262-.018v.531a2.255,2.255,0,0,1-.4.029c-.695,0-.964-.284-.964-1.011v-2.28h-.564v-.52h.564v-.913Z" transform="translate(-1229.856 -142.76)" fill="#fff"/>
    <path id="Trazado_73" data-name="Trazado 73" d="M1369.981,147.048h.633v2.069h.015a1.252,1.252,0,0,1,1.2-.669,1.277,1.277,0,0,1,1.331,1.4V152.3h-.633v-2.328a.839.839,0,0,0-.895-.96.983.983,0,0,0-1.018,1.084v2.2h-.633Z" transform="translate(-1266.799 -135.973)" fill="#fff"/>
    <path id="Trazado_74" data-name="Trazado 74" d="M1428.652,168.4a1.5,1.5,0,0,1-1.575,1.149,1.715,1.715,0,0,1-1.742-1.942,1.748,1.748,0,0,1,1.713-1.971,1.659,1.659,0,0,1,1.651,1.887v.24h-2.713v.036a1.081,1.081,0,0,0,1.105,1.2.913.913,0,0,0,.938-.6Zm-2.662-1.131h2.055a1.012,1.012,0,0,0-1.007-1.084,1.063,1.063,0,0,0-1.047,1.084" transform="translate(-1317.983 -153.164)" fill="#fff"/>
    <path id="Trazado_75" data-name="Trazado 75" d="M711.83,272.556h1.637l3.545,9.762h-1.59l-.893-2.638h-3.761l-.9,2.638h-1.59Zm-.656,5.906h2.943l-1.454-4.289h-.027Z" transform="translate(-654.933 -252.028)" fill="#fff"/>
    <path id="Trazado_76" data-name="Trazado 76" d="M845.384,306.014h1.461v1.224h.034a2.4,2.4,0,0,1,2.226-1.36c1.813,0,2.977,1.421,2.977,3.694v.007c0,2.266-1.17,3.694-2.956,3.694a2.445,2.445,0,0,1-2.246-1.339h-.034V315.5h-1.461Zm5.209,3.565v-.007c0-1.515-.724-2.442-1.867-2.442-1.109,0-1.887.961-1.887,2.442v.007c0,1.475.785,2.435,1.887,2.435,1.15,0,1.867-.934,1.867-2.435" transform="translate(-781.712 -282.841)" fill="#fff"/>
    <path id="Trazado_77" data-name="Trazado 77" d="M958.509,306.014h1.461v1.224H960a2.4,2.4,0,0,1,2.226-1.36c1.813,0,2.976,1.421,2.976,3.694v.007c0,2.266-1.17,3.694-2.956,3.694A2.445,2.445,0,0,1,960,311.934h-.034V315.5h-1.461Zm5.209,3.565v-.007c0-1.515-.724-2.442-1.867-2.442-1.11,0-1.887.961-1.887,2.442v.007c0,1.475.785,2.435,1.887,2.435,1.15,0,1.867-.934,1.867-2.435" transform="translate(-886.317 -282.841)" fill="#fff"/>
    <path id="Trazado_78" data-name="Trazado 78" d="M1114.611,277.726l-.007-.1h1.475l.013.088c.135.9,1.035,1.461,2.341,1.461s2.131-.589,2.131-1.5v-.007c0-.785-.535-1.211-1.827-1.5l-1.062-.223c-1.914-.406-2.841-1.285-2.841-2.733v-.007c.007-1.664,1.475-2.807,3.538-2.807,2.036,0,3.43,1.109,3.531,2.746l.007.115h-1.475l-.007-.095c-.135-.907-.92-1.454-2.077-1.454-1.211.007-1.982.582-1.982,1.434v.007c0,.731.555,1.177,1.772,1.441l1.069.223c2.016.426,2.882,1.245,2.882,2.753v.007c0,1.779-1.407,2.909-3.721,2.909-2.192,0-3.64-1.042-3.761-2.76" transform="translate(-1030.656 -250.034)" fill="#fff"/>
    <path id="Trazado_79" data-name="Trazado 79" d="M1231.893,290.161v-4.079h-1.022v-1.164h1.022v-1.854h1.495v1.854h1.333v1.164h-1.333v3.991c0,.724.325.94.94.94a3.061,3.061,0,0,0,.392-.027v1.13a4.893,4.893,0,0,1-.744.061c-1.407,0-2.083-.6-2.083-2.016" transform="translate(-1138.167 -261.746)" fill="#fff"/>
    <path id="Trazado_80" data-name="Trazado 80" d="M1300.7,309.573v-.014c0-2.273,1.346-3.68,3.369-3.68s3.382,1.4,3.382,3.68v.014c0,2.293-1.339,3.7-3.375,3.7s-3.376-1.414-3.376-3.7m5.256,0v-.014c0-1.556-.744-2.456-1.887-2.456-1.123,0-1.874.9-1.874,2.456v.014c0,1.576.744,2.476,1.887,2.476s1.874-.906,1.874-2.476" transform="translate(-1202.736 -282.841)" fill="#fff"/>
    <path id="Trazado_81" data-name="Trazado 81" d="M1414.543,306.014H1416v1.218h.034a1.675,1.675,0,0,1,1.637-1.353,2.827,2.827,0,0,1,.507.054v1.36a2.09,2.09,0,0,0-.656-.081,1.475,1.475,0,0,0-1.522,1.678v4.242h-1.461Z" transform="translate(-1308.004 -282.841)" fill="#fff"/>
    <path id="Trazado_82" data-name="Trazado 82" d="M1475.84,309.6v-.007c0-2.226,1.285-3.714,3.281-3.714s3.22,1.434,3.22,3.572v.494h-5.04c.027,1.346.764,2.131,1.928,2.131a1.614,1.614,0,0,0,1.624-.981l.02-.054h1.387l-.014.074a2.916,2.916,0,0,1-3.051,2.158c-2.09,0-3.355-1.427-3.355-3.673m1.482-.69h3.572c-.122-1.231-.812-1.833-1.766-1.833a1.815,1.815,0,0,0-1.806,1.833" transform="translate(-1364.685 -282.841)" fill="#fff"/>
    <path id="Trazado_83" data-name="Trazado 83" d="M322.837,149.372a5.613,5.613,0,0,0-1.858,1.908,4.478,4.478,0,0,0-.492,2.075,4.335,4.335,0,0,0,.292,1.616,5.334,5.334,0,0,0,.825,1.392,5.639,5.639,0,0,0,1.783,1.308,11.923,11.923,0,0,1-1.5,2.891,9.049,9.049,0,0,1-1.841,2.091,2.664,2.664,0,0,1-1.575.617,4.907,4.907,0,0,1-1.616-.383l-.317-.117-.517-.217a4.192,4.192,0,0,0-1.217-.167,4.659,4.659,0,0,0-1.533.3l-.4.15-.5.2a3.287,3.287,0,0,1-1.2.233q-1.267,0-2.716-1.775a13.047,13.047,0,0,1-2.191-3.816,12,12,0,0,1-.742-4.125,6.631,6.631,0,0,1,1.525-4.466,5.166,5.166,0,0,1,4.141-1.783,4.559,4.559,0,0,1,1.783.35l.383.15.4.167a2.423,2.423,0,0,0,.85.217,2.533,2.533,0,0,0,.933-.183l.533-.2.383-.15a5.845,5.845,0,0,1,2.066-.35,5.231,5.231,0,0,1,4.316,2.066M318.6,141.43q.033.367.033.567a4.445,4.445,0,0,1-.6,2.133,4.531,4.531,0,0,1-1.567,1.708,3.923,3.923,0,0,1-2.133.608,5.292,5.292,0,0,1-.05-.583,3.93,3.93,0,0,1,.525-1.858,5.1,5.1,0,0,1,1.425-1.658,4.5,4.5,0,0,1,2.033-.867c.067-.011.177-.028.333-.05" transform="translate(-282.511 -130.778)" fill="#fff"/>
  </g>
</svg>
