<?xml version="1.0" encoding="UTF-8"?>
<svg xmlns="http://www.w3.org/2000/svg" id="Capa_1" data-name="Capa 1" viewBox="0 0 150 150">
  <defs>
    <style>.cls-1{fill:#f4796c;}.cls-2{fill:#fff;}</style>
  </defs>
  <title>Atributos</title>
  <circle class="cls-1" cx="75" cy="75" r="75"></circle>
  <path class="cls-2" d="M23.46,69.88l-.08,3.68c-.06,2.72-1.78,4.54-4.3,4.49s-4.16-2-4.1-4.68l.08-3.67ZM16.3,73.33a2.8,2.8,0,0,0,2.81,3.14,2.8,2.8,0,0,0,2.95-3l.05-2-5.76-.12Z"></path>
  <path class="cls-2" d="M18.7,86.16l-.7-5a1.94,1.94,0,0,0-1.23,2.27,2.32,2.32,0,0,0,.93,1.63l-.8.92a3.21,3.21,0,0,1-1.39-2.41,3.25,3.25,0,0,1,2.76-4A3.17,3.17,0,0,1,22,82.45a3.11,3.11,0,0,1-2.82,3.67ZM19,81l.5,3.6a1.76,1.76,0,0,0,1.3-2A1.78,1.78,0,0,0,19,81Z"></path>
  <path class="cls-2" d="M23.8,90.78l-1.38.36a1.59,1.59,0,0,0-.06-.34A1.74,1.74,0,0,0,20,89.51l-3,.8-.39-1.45,6.19-1.65.37,1.38-.9.24A2.54,2.54,0,0,1,23.8,90.78Z"></path>
  <path class="cls-2" d="M25.94,103.12l-3.34,1.53L22,103.29l3.17-1.45c1-.47,1.32-1.18.94-2a1.65,1.65,0,0,0-2.44-.72l-3,1.35-.62-1.36,3.16-1.45c1-.47,1.32-1.18.94-2a1.65,1.65,0,0,0-2.44-.72l-3,1.35-.62-1.36L24,92.24l.59,1.3-.74.34a2.65,2.65,0,0,1,1.68,1.54,2.4,2.4,0,0,1-.07,2.41,3,3,0,0,1,2,1.74A2.47,2.47,0,0,1,25.94,103.12Z"></path>
  <path class="cls-2" d="M30.59,109.51l-3.06,2.17-.82-1.15.63-.46a2.28,2.28,0,0,1-1.87-1.14c-.84-1.19-.72-2.41.19-3.06s2-.51,3.1,1.07l.95,1.35.08-.05c.72-.51.83-1.24.21-2.11a3.12,3.12,0,0,0-1.64-1.22l.55-1.11a4.5,4.5,0,0,1,2.22,1.75C32.19,107.06,32.1,108.44,30.59,109.51Zm-2.3-.21.61-.43L28,107.61c-.59-.84-1.07-.84-1.45-.57s-.46.89,0,1.51A1.63,1.63,0,0,0,28.29,109.3Z"></path>
  <path class="cls-2" d="M32.2,116.48a2.38,2.38,0,0,1-1.29-.78,2,2,0,0,1,.12-3.09l2.29-2.07-.71-.78.89-.8.71.78,1.09-1,1,1.11-1.09,1,1.15,1.28-.89.8-1.15-1.27-2.26,2A.82.82,0,0,0,32,115a1.31,1.31,0,0,0,.76.45Z"></path>
  <path class="cls-2" d="M35.16,115.49a3.42,3.42,0,1,1,.42,4.71A3.23,3.23,0,0,1,35.16,115.49Zm4,3.48a1.9,1.9,0,1,0-2.87-2.49A1.9,1.9,0,1,0,39.18,119Z"></path>
  <path class="cls-2" d="M45.21,116.36l1.23.86-5.08,7.31-1.23-.85Z"></path>
  <path class="cls-2" d="M44.78,123.05a3.42,3.42,0,1,1,1.42,4.52A3.22,3.22,0,0,1,44.78,123.05Zm4.67,2.55a1.9,1.9,0,1,0-3.34-1.82,1.9,1.9,0,1,0,3.34,1.82ZM51,119.94l1.55.85-2.62.44-1.14-.62Z"></path>
  <path class="cls-2" d="M59.73,126.28l-1.85,5.12c-.78,2.19-2.28,2.77-4.39,2a5.06,5.06,0,0,1-2.63-1.92l1-.83a3.86,3.86,0,0,0,2,1.52,1.74,1.74,0,0,0,2.58-1.13l.11-.32a2.81,2.81,0,0,1-2.31.07,3.1,3.1,0,1,1,2.1-5.82,2.76,2.76,0,0,1,1.77,1.62l.29-.8Zm-2.41,2.33a2,2,0,1,0-2.46,1.07A1.81,1.81,0,0,0,57.32,128.61Z"></path>
  <path class="cls-2" d="M61.81,126.75l1.46.35-1.47,6.23L60.34,133Zm.24-2a.93.93,0,0,1,1.15-.66.9.9,0,0,1,.73,1.07,1,1,0,0,1-1.88-.41Z"></path>
  <path class="cls-2" d="M64.42,130.68a3.24,3.24,0,0,1,3.86-2.8,2.87,2.87,0,0,1,2.52,1.83l-1.23.51a1.8,1.8,0,0,0-1.46-1.08,2,2,0,0,0-.52,4,1.84,1.84,0,0,0,1.7-.67l1,.81a2.92,2.92,0,0,1-2.91,1.14A3.26,3.26,0,0,1,64.42,130.68Z"></path>
  <path class="cls-2" d="M77.82,131l.06,3.76-1.42,0V134a2.27,2.27,0,0,1-2,.9c-1.46,0-2.4-.77-2.42-1.88s.69-1.92,2.64-1.95l1.65,0v-.1c0-.87-.55-1.38-1.62-1.36a3.16,3.16,0,0,0-1.93.66l-.61-1.08a4.47,4.47,0,0,1,2.7-.83C76.71,128.25,77.79,129.11,77.82,131Zm-1.47,1.78V132l-1.55,0c-1,0-1.29.4-1.28.87s.47.88,1.24.87A1.63,1.63,0,0,0,76.35,132.73Z"></path>
  <path class="cls-2" d="M86.31,131l-5,.72a1.93,1.93,0,0,0,2.27,1.22,2.28,2.28,0,0,0,1.63-.93l.92.8a3.59,3.59,0,0,1-6.37-1.35,3.17,3.17,0,0,1,2.81-3.71,3.12,3.12,0,0,1,3.68,2.81C86.28,130.65,86.3,130.83,86.31,131Zm-5.13-.26,3.59-.52a1.74,1.74,0,0,0-2-1.29A1.77,1.77,0,0,0,81.18,130.71Z"></path>
  <path class="cls-2" d="M94.16,127.77l1.06,3.51-1.43.44-1-3.33c-.33-1.1-1-1.46-2-1.18a1.7,1.7,0,0,0-1.15,2.36l.94,3.1-1.44.44L87.33,127l1.36-.41.24.79a2.82,2.82,0,0,1,1.86-1.5A2.51,2.51,0,0,1,94.16,127.77Z"></path>
  <path class="cls-2" d="M101.25,128.29a2.32,2.32,0,0,1-1.14,1,2,2,0,0,1-2.9-1.07L96,125.39l-1,.43-.49-1.09,1-.44-.6-1.33,1.37-.62.6,1.34,1.57-.7.49,1.09-1.57.71,1.25,2.78a.83.83,0,0,0,1.2.51,1.32,1.32,0,0,0,.66-.59Z"></path>
  <path class="cls-2" d="M107.06,122.2l-4.31,2.59a2,2,0,0,0,2.58.24,2.3,2.3,0,0,0,1.13-1.49l1.16.38a3.6,3.6,0,0,1-6.4,1.23,3.19,3.19,0,0,1,1.15-4.51,3.12,3.12,0,0,1,4.48,1.16A3.75,3.75,0,0,1,107.06,122.2Zm-4.83,1.74,3.12-1.87a1.76,1.76,0,0,0-2.36-.41A1.78,1.78,0,0,0,102.23,123.94Z"></path>
  <path class="cls-2" d="M116.38,113.59a3.12,3.12,0,0,1-.11,4.63,2.59,2.59,0,0,1-2.08.77l2.13,2.27-1.09,1-6-6.36,1-1,.58.61a2.64,2.64,0,0,1,.92-2.12A3.12,3.12,0,0,1,116.38,113.59Zm-1.11,1a1.9,1.9,0,1,0,0,2.76A1.86,1.86,0,0,0,115.27,114.64Z"></path>
  <path class="cls-2" d="M117.47,107.1l1.1.91a2,2,0,0,0-.25.25,1.75,1.75,0,0,0,.35,2.69l2.4,2-.95,1.15-5-4.07.91-1.1.72.59A2.51,2.51,0,0,1,117.47,107.1Z"></path>
  <path class="cls-2" d="M120.85,108.14a3.42,3.42,0,1,1,4.6-1.11A3.22,3.22,0,0,1,120.85,108.14Zm2.85-4.49a1.9,1.9,0,1,0,.67,2.69A1.87,1.87,0,0,0,123.7,103.65Z"></path>
  <path class="cls-2" d="M128.21,94.33a3.13,3.13,0,0,1,1.7,4.3,2.69,2.69,0,0,1-1.69,1.58l.75.33-.57,1.31-8.15-3.59.6-1.37,3,1.32A2.65,2.65,0,0,1,123.9,96,3.12,3.12,0,0,1,128.21,94.33Zm-.62,1.4a1.85,1.85,0,0,0-2.59.92,2,2,0,1,0,2.59-.92Z"></path>
  <path class="cls-2" d="M129.7,87.07l3.62,1L133,89.42l-.76-.2a2.27,2.27,0,0,1,.31,2.17c-.39,1.41-1.41,2.09-2.48,1.8s-1.66-1.2-1.14-3.07l.43-1.6-.09,0c-.85-.23-1.48.15-1.76,1.18a3.14,3.14,0,0,0,.1,2l-1.21.28a4.5,4.5,0,0,1,0-2.82C126.79,87.38,127.91,86.58,129.7,87.07ZM131,89l-.72-.2-.4,1.5c-.27,1,0,1.35.48,1.47s1-.21,1.18-1A1.63,1.63,0,0,0,131,89Z"></path>
  <path class="cls-2" d="M125.82,77.85l8.84,1.05-.17,1.43-.82-.1a2.6,2.6,0,0,1,.65,2.21,3.28,3.28,0,0,1-6.51-.77,2.59,2.59,0,0,1,1.1-2l-3.27-.38ZM131.3,80a1.91,1.91,0,1,0,1.77,2.13A1.88,1.88,0,0,0,131.3,80Z"></path>
  <path class="cls-2" d="M131.59,76.47A3.41,3.41,0,1,1,134.77,73,3.22,3.22,0,0,1,131.59,76.47Zm-.17-5.31A1.9,1.9,0,1,0,133.48,73,1.86,1.86,0,0,0,131.42,71.16Z"></path>
  <path class="cls-2" d="M108.13,64a26.17,26.17,0,0,0-5.41,2.28,46.05,46.05,0,0,0-8.54,6.41c-2.68,2.49-5.2,5.22-7.71,8.06C85.2,82.21,84,83.65,82.6,85.12c-.68.74-1.38,1.47-2.18,2.23-.41.37-.84.76-1.35,1.14a8.18,8.18,0,0,1-2,1.19,3.22,3.22,0,0,1-4.19-1.78,2.44,2.44,0,0,1-.14-.46l0-.06c-.19-.9-.36-1.76-.55-2.6s-.37-1.68-.57-2.52c-.41-1.66-.86-3.3-1.39-4.9a34.11,34.11,0,0,0-1.82-4.54A11.26,11.26,0,0,0,66,69.45l-.07,0a2.77,2.77,0,0,1,3.45-4.34,12.66,12.66,0,0,1,2.42,2.44,22.78,22.78,0,0,1,1.69,2.58,40.87,40.87,0,0,1,2.4,5.25c.67,1.76,1.25,3.53,1.77,5.29l.05.17.09-.11c1.24-1.35,2.49-2.8,3.77-4.25a116.45,116.45,0,0,1,8.15-8.55,51.61,51.61,0,0,1,9.79-7.36,33.26,33.26,0,0,1,5.83-2.6c.4-.13.8-.24,1.21-.35a15.1,15.1,0,0,0-3.41-4.79,16.68,16.68,0,0,0-11.5-4.3,19.6,19.6,0,0,0-11,3.36A16.2,16.2,0,0,0,75,58.36a16.15,16.15,0,0,0-5.63-6.52,19.68,19.68,0,0,0-11-3.36h0a16.64,16.64,0,0,0-11.49,4.3c-3.35,3.13-5.11,7.72-5.11,13.28,0,4.48,1.75,9.14,5.2,13.84A58,58,0,0,0,58.21,91.05a103.76,103.76,0,0,0,16.26,10.28l.52.25.51-.25A104.1,104.1,0,0,0,91.77,91.05,58.16,58.16,0,0,0,103,79.9c3.46-4.7,5.21-9.36,5.21-13.84C108.22,65.37,108.19,64.69,108.13,64Z"></path>
  <path class="cls-2" d="M26.29,48,28,45.16l1.07.63-1.69,2.84Z"></path>
  <path class="cls-2" d="M33.23,31.63l6.19,5.68-1.06,1.15L35.71,36l-2.94,3.2,2.65,2.44-1.05,1.15-6.19-5.68L29.23,36l2.56,2.34,2.94-3.2-2.56-2.34Z"></path>
  <path class="cls-2" d="M35.56,29.69a.91.91,0,0,1,.15-1.31.9.9,0,0,1,1.29,0,.93.93,0,0,1-.13,1.34A.92.92,0,0,1,35.56,29.69ZM37,31.05l1.15-1L42.25,35,41.1,36Z"></path>
  <path class="cls-2" d="M47.7,27.22a3.12,3.12,0,0,1-.89,4.54,2.66,2.66,0,0,1-2.19.42l1.72,2.59-1.25.83-4.83-7.29,1.19-.78.46.7a2.69,2.69,0,0,1,1.27-1.94A3.12,3.12,0,0,1,47.7,27.22Zm-1.27.85A1.9,1.9,0,1,0,46,30.78,1.85,1.85,0,0,0,46.43,28.07Z"></path>
  <path class="cls-2" d="M48.93,26.57a3.41,3.41,0,1,1,4.47,1.56A3.22,3.22,0,0,1,48.93,26.57Zm4.83-2.22a1.9,1.9,0,1,0-3.46,1.58,1.9,1.9,0,1,0,3.46-1.58Z"></path>
  <path class="cls-2" d="M61.94,21.07,63,24.67l-1.36.4-.21-.75a2.3,2.3,0,0,1-1.7,1.39c-1.4.41-2.52-.1-2.83-1.17s.16-2,2-2.58l1.59-.46,0-.1c-.25-.84-.9-1.18-1.92-.88a3.15,3.15,0,0,0-1.69,1.15L56,20.79a4.51,4.51,0,0,1,2.38-1.52C60.15,18.75,61.42,19.29,61.94,21.07ZM61,23.17l-.21-.72-1.48.44c-1,.28-1.14.73-1,1.18s.69.72,1.43.51A1.64,1.64,0,0,0,61,23.17Z"></path>
  <path class="cls-2" d="M63.41,15.55l1.47-.26,1.57,8.76L65,24.32Z"></path>
  <path class="cls-2" d="M74.27,20.56l-5,.35a2,2,0,0,0,2.18,1.39,2.31,2.31,0,0,0,1.69-.82l.86.87a3.6,3.6,0,0,1-6.26-1.82A3.18,3.18,0,0,1,70.8,17a3.13,3.13,0,0,1,3.46,3.08C74.27,20.23,74.27,20.42,74.27,20.56Zm-5.1-.64,3.63-.26a1.75,1.75,0,0,0-1.92-1.43A1.77,1.77,0,0,0,69.17,19.92Z"></path>
  <path class="cls-2" d="M80,17.09l-.08,1.42a1.47,1.47,0,0,0-.34-.05,1.74,1.74,0,0,0-2,1.88l-.16,3.1L76,23.37,76.3,17l1.43.07,0,.94A2.51,2.51,0,0,1,80,17.09Z"></path>
  <path class="cls-2" d="M88.46,18.5l-1,5.34c-.42,2.29-1.8,3.11-4,2.71a5.11,5.11,0,0,1-2.9-1.46l.86-1a3.9,3.9,0,0,0,2.19,1.18A1.74,1.74,0,0,0,86,23.74l.06-.33a2.86,2.86,0,0,1-2.27.45,3.07,3.07,0,0,1-2.62-3.65,3,3,0,0,1,3.74-2.44,2.8,2.8,0,0,1,2,1.31l.15-.84Zm-2,2.69a2,2,0,0,0-3.84-.7,2,2,0,0,0,3.84.7Z"></path>
  <path class="cls-2" d="M95.76,24.73,91,23.08a1.94,1.94,0,0,0,1.46,2.13,2.29,2.29,0,0,0,1.87-.08l.45,1.13a3.6,3.6,0,0,1-5-4.13,3.19,3.19,0,0,1,4.21-2,3.12,3.12,0,0,1,2,4.19C95.89,24.43,95.82,24.6,95.76,24.73Zm-4.43-2.6,3.43,1.2a1.75,1.75,0,0,0-1.2-2.07A1.77,1.77,0,0,0,91.33,22.13Zm3.13-2.68L93.24,19l2.07-1,1.66.58Z"></path>
  <path class="cls-2" d="M103.5,27.62l-1.72,3.24-1.33-.7,1.64-3.07a1.45,1.45,0,0,0-.56-2.21,1.7,1.7,0,0,0-2.48.86L97.53,28.6l-1.33-.7,3-5.66,1.26.67-.39.73a2.83,2.83,0,0,1,2.38.24A2.51,2.51,0,0,1,103.5,27.62Z"></path>
  <path class="cls-2" d="M107,26.73l1.24.85-3.64,5.28L103.39,32ZM108,25a1,1,0,0,1,1.6,1.06.92.92,0,0,1-1.32.23A.91.91,0,0,1,108,25Z"></path>
  <path class="cls-2" d="M108,31.26a3.23,3.23,0,0,1,4.76-.24,2.89,2.89,0,0,1,1.12,2.9l-1.32-.23a1.8,1.8,0,0,0-.63-1.71,2,2,0,0,0-2.6,3.05,1.83,1.83,0,0,0,1.79.36l.44,1.26A2.93,2.93,0,0,1,108.5,36,3.25,3.25,0,0,1,108,31.26Z"></path>
  <path class="cls-2" d="M113.61,36.14a3.42,3.42,0,1,1-.21,4.73A3.22,3.22,0,0,1,113.61,36.14Zm3.52,4a1.91,1.91,0,1,0-2.77-.11A1.87,1.87,0,0,0,117.13,40.13Z"></path>
  <path class="cls-2" d="M121.74,45.23l1.68,2.83-1.07.64-1.68-2.84Z"></path>
</svg>
