<?xml version="1.0" encoding="UTF-8"?>
<svg xmlns="http://www.w3.org/2000/svg" id="Capa_1" data-name="Capa 1" viewBox="0 0 150 150">
  <defs>
    <style>.cls-1{fill:#cede96;}.cls-2{fill:#fff;}</style>
  </defs>
  <title>Atributos</title>
  <circle class="cls-1" cx="75" cy="75" r="75"></circle>
  <path class="cls-2" d="M53.52,126.43a4.29,4.29,0,0,1,5.64-2.66,4.24,4.24,0,0,1,2.7,2.39l-1.25.58a3,3,0,0,0-1.82-1.65,3,3,0,1,0-1.88,5.6,2.94,2.94,0,0,0,2.45-.23l.64,1.23a4.23,4.23,0,0,1-3.6.27A4.28,4.28,0,0,1,53.52,126.43Z"></path>
  <path class="cls-2" d="M62,130.18A3.42,3.42,0,1,1,64.84,134,3.23,3.23,0,0,1,62,130.18Zm5.24.89a1.9,1.9,0,1,0-2.21,1.65A1.87,1.87,0,0,0,67.27,131.07Z"></path>
  <path class="cls-2" d="M74.48,134.45a2.33,2.33,0,0,1-1.46.36,2,2,0,0,1-2.11-2.26l.14-3.08-1-.05,0-1.19,1.06,0,.06-1.46,1.5.07-.06,1.46,1.71.08,0,1.2-1.72-.08-.14,3.05c0,.62.27,1,.85,1a1.38,1.38,0,0,0,.85-.23Z"></path>
  <path class="cls-2" d="M80.32,134.21a2.43,2.43,0,0,1-1.42.5,2,2,0,0,1-2.31-2l-.16-3.08-1.05,0-.07-1.2,1.06-.05-.08-1.46,1.5-.08.08,1.46,1.71-.08.06,1.19-1.71.09.15,3.05c0,.62.36.94.94.91a1.41,1.41,0,0,0,.83-.31Z"></path>
  <path class="cls-2" d="M81.43,131.28a3.41,3.41,0,1,1,3.92,2.65A3.22,3.22,0,0,1,81.43,131.28Zm5.24-.92a1.91,1.91,0,1,0-1.54,2.31A1.87,1.87,0,0,0,86.67,130.36Z"></path>
  <path class="cls-2" d="M96,127.11l1.18,3.48-1.42.48-1.12-3.3c-.36-1.08-1.08-1.42-2-1.11a1.7,1.7,0,0,0-1.08,2.4l1,3.07-1.42.48-2.06-6.07,1.36-.46.26.79a2.78,2.78,0,0,1,1.81-1.56A2.5,2.5,0,0,1,96,127.11Z"></path>
  <path class="cls-2" d="M80.83,91.58V98.5c.62,2.86,2.11,3.24,4.17,3.24,1.56,0,3.49-.69,2.87-1.31a7.52,7.52,0,0,1-1.81-5.23c0-3.43,2.74-6.73,8.91-6.73,5.21,0,6.38,1.58,7.21,2.7.87-1.44,2.32-2.7,5.69-2.7,2.13,0,7.85.12,7.85,6V103h-3.49V94c-.44-5.86-6.8-5.14-7.73-2a7.77,7.77,0,0,0-.5,4,7.12,7.12,0,0,1-6.79,7H83.5c-2.55,0-6.16-2.55-6.16-5.11V91.58H74.59v6.36c0,2.49-3.11,5-5.79,5H55.61c-1.56,0-3.76-.17-4.88-1.42-3.74,1.87-15.26,3.55-15.26-5.86,0-5.26,3.87-7.18,8.48-7.18a13.14,13.14,0,0,1,5.22.95,17.16,17.16,0,0,0-1.44,1.8c-.72-1-1.27-1.91-3.7-1.89-3.61,0-5,3.72-5,6.32,0,3.18,1.9,6.15,5.11,6.26.05,0,3.69.19,4.92-2.27a6.63,6.63,0,0,1-1.06-4c.06-5.42,4.55-7.22,8.79-7.22,4.54,0,8.78,1.8,8.84,7.22a7.18,7.18,0,0,1-1.79,5.08c-1.36.79,1.86,1,3.23,1,3.55,0,4-2.43,4-3.36V91.58H66.62V88.47H71.1s0-3-.62-3.74c-.53-1.12-3.64.36-5.86.75A13.85,13.85,0,0,1,52.16,63,13.67,13.67,0,0,1,66.62,45.1c1.12-3,6.23-5,9.35-5s8.22,2,9.34,5A13.67,13.67,0,0,1,99.77,63,13.85,13.85,0,0,1,87.31,85.48c-2.2-.46-4.9-1.92-5.86-.75-.62.75-.62,3.74-.62,3.74h4.48v3.17l-4.48-.06ZM73.6,73.33c0,3.86,1.37,3.89,1,5.91a1.46,1.46,0,0,1-2.18.5c-5-3-8.35-9.84-15.32-8.35,4,2,5.1,6.48,7.41,8.6,2.55,1.93,7.85.75,8.85,2,1.62,1.06,1.24,4,1.24,6.48h2.75c0-2.5-.38-5.42,1.24-6.48,1-1.25,6.3-.07,8.85-2,2.31-2.12,3.36-6.6,7.41-8.6-7-1.49-10.34,5.36-15.32,8.35-.75.38-1.69.5-2.18-.5-.47-2,1-2,1-5.91,0-3-1.4-4.43-2.36-6.86-1,2.43-2.37,3.86-2.37,6.86ZM62.12,95.69c0-2.57-1.61-6.15-5.28-6.15-3.26,0-5.23,3.25-5.23,6.15s1.87,6.23,5.23,6.23c3.74,0,5.28-2.9,5.28-6.23Zm38.14,0c0-2.57-1.61-6.15-5.29-6.15-3.26,0-5.22,3.25-5.22,6.15s1.87,6.23,5.22,6.23c3.75,0,5.29-2.9,5.29-6.23Z"></path>
  <path class="cls-2" d="M122.94,106.39a1.65,1.65,0,0,1-1.62,1.75h0a1.75,1.75,0,1,1,1.62-1.74Zm-2,.19h.25l.56,1h.62l-.62-1.07a.58.58,0,0,0,.59-.64c0-.56-.38-.74-1-.74h-.91v2.45h.52Zm0-.42v-.59h.37c.2,0,.47,0,.47.27s-.14.32-.38.32Zm2.66.23a2.28,2.28,0,1,0-2.28,2.27A2.2,2.2,0,0,0,123.6,106.39Z"></path>
  <path class="cls-2" d="M37,38.34a4.54,4.54,0,0,1,3.86-7.4l-.11,1.37a3,3,0,0,0-2.33.77,3,3,0,1,0,4.95,2.15l1.39,0A4.54,4.54,0,0,1,37,38.34Z"></path>
  <path class="cls-2" d="M50.39,30l-4.24,2.7a1.93,1.93,0,0,0,2.57.18,2.3,2.3,0,0,0,1.1-1.52l1.17.35a3.59,3.59,0,0,1-6.37,1.39,3.19,3.19,0,0,1,1-4.54,3.12,3.12,0,0,1,4.51,1.06C50.24,29.7,50.32,29.86,50.39,30ZM45.6,31.85l3.07-2a1.74,1.74,0,0,0-2.37-.35A1.78,1.78,0,0,0,45.6,31.85Z"></path>
  <path class="cls-2" d="M53.85,24.22l.6,1.29a2.09,2.09,0,0,0-.33.12,1.75,1.75,0,0,0-.85,2.58L54.59,31l-1.36.64-2.71-5.81,1.29-.6.4.84A2.51,2.51,0,0,1,53.85,24.22Z"></path>
  <path class="cls-2" d="M61.45,28a2.35,2.35,0,0,1-1.23.87,2,2,0,0,1-2.78-1.33l-1-2.92-1,.34-.39-1.13,1-.34-.47-1.39L57,21.64,57.47,23l1.62-.55.39,1.13-1.62.56,1,2.88a.83.83,0,0,0,1.15.62,1.27,1.27,0,0,0,.71-.52Z"></path>
  <path class="cls-2" d="M60.7,20a.92.92,0,0,1,.73-1.1.88.88,0,0,1,1.13.61A1,1,0,0,1,60.7,20Zm.66,1.85,1.46-.35,1.51,6.23L62.87,28Z"></path>
  <path class="cls-2" d="M67.79,18a2.49,2.49,0,0,1,1.39.2l-.3,1.17a1.42,1.42,0,0,0-.85-.17c-.62.06-.91.44-.83,1.12l0,.39,1.75-.2.13,1.2-1.7.18L68,27l-1.49.17L65.93,22l-1.05.11-.13-1.19,1-.12,0-.4A2.08,2.08,0,0,1,67.79,18Zm2.74.33a.91.91,0,0,1,.86-1,.89.89,0,0,1,1,.76,1,1,0,0,1-1.9.24ZM71,20.21l1.49-.16.69,6.37-1.49.16Z"></path>
  <path class="cls-2" d="M74.72,23.21a3.25,3.25,0,0,1,3.64-3.09A2.89,2.89,0,0,1,81,21.75l-1.18.61a1.84,1.84,0,0,0-1.55-1,1.89,1.89,0,0,0-2,1.9,1.87,1.87,0,0,0,1.84,2.1,1.79,1.79,0,0,0,1.64-.8l1.12.73A2.94,2.94,0,0,1,78,26.68,3.26,3.26,0,0,1,74.72,23.21Z"></path>
  <path class="cls-2" d="M88,24.31,87.3,28l-1.39-.28.16-.77a2.28,2.28,0,0,1-2.15.45c-1.44-.29-2.18-1.26-2-2.35s1.08-1.73,3-1.35l1.63.33,0-.1c.17-.85-.25-1.46-1.29-1.68a3.2,3.2,0,0,0-2,.24l-.36-1.18a4.39,4.39,0,0,1,2.81-.24C87.53,21.43,88.41,22.5,88,24.31Zm-1.82,1.42.15-.72-1.52-.31c-1-.2-1.34.12-1.43.58s.27,1,1,1.11A1.61,1.61,0,0,0,86.22,25.73Z"></path>
  <path class="cls-2" d="M89.74,25.34a3.24,3.24,0,0,1,4.38-1.9,2.87,2.87,0,0,1,2.07,2.33L94.88,26a1.83,1.83,0,0,0-1.2-1.38,2,2,0,0,0-1.37,3.77,1.83,1.83,0,0,0,1.81-.29l.85,1a2.89,2.89,0,0,1-3.08.48A3.26,3.26,0,0,1,89.74,25.34Z"></path>
  <path class="cls-2" d="M98.53,25.38l1.34.66L97,31.79l-1.34-.67Zm.68-1.85a1,1,0,0,1,1.74.82.93.93,0,0,1-1.28.41A.92.92,0,0,1,99.21,23.53Z"></path>
  <path class="cls-2" d="M100.17,29.7a3.42,3.42,0,1,1,1.07,4.62A3.22,3.22,0,0,1,100.17,29.7Zm4.46,2.89a1.9,1.9,0,1,0-3.19-2.06,1.9,1.9,0,1,0,3.19,2.06Zm2-5.51,1.48,1-2.64.24-1.09-.7Z"></path>
  <path class="cls-2" d="M112.41,38.53l-2.47,2.71-1.11-1,2.34-2.57a1.45,1.45,0,0,0,0-2.28,1.7,1.7,0,0,0-2.62.23L106.38,38l-1.11-1,4.31-4.74,1.06,1-.56.62a2.76,2.76,0,0,1,2.24.82A2.51,2.51,0,0,1,112.41,38.53Z"></path>
</svg>
