<?xml version="1.0" encoding="UTF-8"?>
<svg xmlns="http://www.w3.org/2000/svg" id="Capa_1" data-name="Capa 1" viewBox="0 0 150 150">
  <defs>
    <style>.cls-1{fill:#fcbb51;}.cls-2{fill:#fff;}</style>
  </defs>
  <title>Atributos</title>
  <circle class="cls-1" cx="75" cy="75" r="75"></circle>
  <path class="cls-2" d="M113.8,110.05a.69.69,0,0,1,.11.13,4.42,4.42,0,0,1-.53,6.22,4.41,4.41,0,1,1-5.68-6.76,4.4,4.4,0,0,1,6.1.41Zm-5.9,5.36a3.56,3.56,0,0,0,5.36-4.68h0a3.56,3.56,0,0,0-2.42-1.26,3.58,3.58,0,0,0-3.85,3.24,3.56,3.56,0,0,0,.82,2.6Z"></path>
  <path class="cls-2" d="M110.8,115.48a.26.26,0,0,1-.22-.11l-2.24-2.66a.34.34,0,0,1-.07-.24.35.35,0,0,1,.12-.22l1-.81q1.13-.94,1.8-.15a.9.9,0,0,1,.22.61,1.14,1.14,0,0,1-.3.68h0a1,1,0,0,1,1.21.21l.62.59,0,0a.29.29,0,0,1,.06.22.33.33,0,0,1-.11.2.46.46,0,0,1-.23.09.27.27,0,0,1-.22-.09l-.57-.54-.29-.25a.77.77,0,0,0-.25-.1.45.45,0,0,0-.25,0,1.18,1.18,0,0,0-.29.19h0l-.69.58,1,1.17a.28.28,0,0,1,.07.24.35.35,0,0,1-.35.29Zm-.45-2.57.22-.2a1.93,1.93,0,0,0,.17-.21.68.68,0,0,0,.11-.23.5.5,0,0,0,0-.24.6.6,0,0,0-.14-.26.57.57,0,0,0-.17-.15.37.37,0,0,0-.16-.07.22.22,0,0,0-.16,0l-.15,0-.16.08-.14.11-.14.11-.65.55.8,1Z"></path>
  <path class="cls-2" d="M37,38.34a4.54,4.54,0,0,1,3.86-7.4l-.11,1.37a3,3,0,0,0-2.33.77,3,3,0,1,0,4.95,2.15l1.39,0A4.54,4.54,0,0,1,37,38.34Z"></path>
  <path class="cls-2" d="M50.39,30l-4.24,2.7a1.93,1.93,0,0,0,2.57.18,2.3,2.3,0,0,0,1.1-1.52l1.17.35a3.59,3.59,0,0,1-6.37,1.39,3.19,3.19,0,0,1,1-4.54,3.12,3.12,0,0,1,4.51,1.06C50.24,29.7,50.32,29.86,50.39,30ZM45.6,31.85l3.07-2a1.74,1.74,0,0,0-2.37-.35A1.78,1.78,0,0,0,45.6,31.85Z"></path>
  <path class="cls-2" d="M53.85,24.22l.6,1.29a2.09,2.09,0,0,0-.33.12,1.75,1.75,0,0,0-.85,2.58L54.59,31l-1.36.64-2.71-5.81,1.29-.6.4.84A2.51,2.51,0,0,1,53.85,24.22Z"></path>
  <path class="cls-2" d="M61.45,28a2.35,2.35,0,0,1-1.23.87,2,2,0,0,1-2.78-1.33l-1-2.92-1,.34-.39-1.13,1-.34-.47-1.39L57,21.64,57.47,23l1.62-.55.39,1.13-1.62.56,1,2.88a.83.83,0,0,0,1.15.62,1.27,1.27,0,0,0,.71-.52Z"></path>
  <path class="cls-2" d="M60.7,20a.92.92,0,0,1,.73-1.1.88.88,0,0,1,1.13.61A1,1,0,0,1,60.7,20Zm.66,1.85,1.46-.35,1.51,6.23L62.87,28Z"></path>
  <path class="cls-2" d="M67.79,18a2.49,2.49,0,0,1,1.39.2l-.3,1.17a1.42,1.42,0,0,0-.85-.17c-.62.06-.91.44-.83,1.12l0,.39,1.75-.2.13,1.2-1.7.18L68,27l-1.49.17L65.93,22l-1.05.11-.13-1.19,1-.12,0-.4A2.08,2.08,0,0,1,67.79,18Zm2.74.33a.91.91,0,0,1,.86-1,.89.89,0,0,1,1,.76,1,1,0,0,1-1.9.24ZM71,20.21l1.49-.16.69,6.37-1.49.16Z"></path>
  <path class="cls-2" d="M74.72,23.21a3.25,3.25,0,0,1,3.64-3.09A2.89,2.89,0,0,1,81,21.75l-1.18.61a1.84,1.84,0,0,0-1.55-1,1.89,1.89,0,0,0-2,1.9,1.87,1.87,0,0,0,1.84,2.1,1.79,1.79,0,0,0,1.64-.8l1.12.73A2.94,2.94,0,0,1,78,26.68,3.26,3.26,0,0,1,74.72,23.21Z"></path>
  <path class="cls-2" d="M88,24.31,87.3,28l-1.39-.28.16-.77a2.28,2.28,0,0,1-2.15.45c-1.44-.29-2.18-1.26-2-2.35s1.08-1.73,3-1.35l1.63.33,0-.1c.17-.85-.25-1.46-1.29-1.68a3.2,3.2,0,0,0-2,.24l-.36-1.18a4.39,4.39,0,0,1,2.81-.24C87.53,21.43,88.41,22.5,88,24.31Zm-1.82,1.42.15-.72-1.52-.31c-1-.2-1.34.12-1.43.58s.27,1,1,1.11A1.61,1.61,0,0,0,86.22,25.73Z"></path>
  <path class="cls-2" d="M89.74,25.34a3.24,3.24,0,0,1,4.38-1.9,2.87,2.87,0,0,1,2.07,2.33L94.88,26a1.83,1.83,0,0,0-1.2-1.38,2,2,0,0,0-1.37,3.77,1.83,1.83,0,0,0,1.81-.29l.85,1a2.89,2.89,0,0,1-3.08.48A3.26,3.26,0,0,1,89.74,25.34Z"></path>
  <path class="cls-2" d="M98.53,25.38l1.34.66L97,31.79l-1.34-.67Zm.68-1.85a1,1,0,0,1,1.74.82.93.93,0,0,1-1.28.41A.92.92,0,0,1,99.21,23.53Z"></path>
  <path class="cls-2" d="M100.17,29.7a3.42,3.42,0,1,1,1.07,4.62A3.22,3.22,0,0,1,100.17,29.7Zm4.46,2.89a1.9,1.9,0,1,0-3.19-2.06,1.9,1.9,0,1,0,3.19,2.06Zm2-5.51,1.48,1-2.64.24-1.09-.7Z"></path>
  <path class="cls-2" d="M112.41,38.53l-2.47,2.71-1.11-1,2.34-2.57a1.45,1.45,0,0,0,0-2.28,1.7,1.7,0,0,0-2.62.23L106.38,38l-1.11-1,4.31-4.74,1.06,1-.56.62a2.76,2.76,0,0,1,2.24.82A2.51,2.51,0,0,1,112.41,38.53Z"></path>
  <path class="cls-2" d="M43.24,120.82a4.52,4.52,0,1,1,1.75,6A4.29,4.29,0,0,1,43.24,120.82Zm6.46,3.75a2.95,2.95,0,1,0-4,1.07A2.87,2.87,0,0,0,49.7,124.57Z"></path>
  <path class="cls-2" d="M58,131l-.46,1.23-5.91-2.18,2.91-7.88,5.75,2.12-.45,1.22L55.53,124,54.77,126l3.81,1.41-.45,1.2-3.8-1.4-.8,2.17Z"></path>
  <path class="cls-2" d="M63.81,130.12l-1.57,1.09-.41,2.11L60.3,133l1.61-8.24,1.53.3-.83,4.22,4.9-3.43,1.72.34-4.18,3,2.79,5.27-1.79-.35Z"></path>
  <path class="cls-2" d="M69.6,130.48a4.53,4.53,0,1,1,4.46,4.39A4.3,4.3,0,0,1,69.6,130.48Zm7.48.11a3,3,0,1,0-3,2.91A2.85,2.85,0,0,0,77.08,130.59Z"></path>
  <path class="cls-2" d="M80.3,130.57l3.27-.4.16,1.24-3.28.4Z"></path>
  <path class="cls-2" d="M86.69,126.39,84,127l-.31-1.28,6.93-1.67.31,1.28-2.71.65,1.66,6.89-1.52.36Z"></path>
  <path class="cls-2" d="M100.06,128l.49,1.21-5.85,2.35-3.13-7.79,5.68-2.29.49,1.21-4.24,1.71.82,2,3.76-1.52.48,1.19-3.76,1.52.86,2.15Z"></path>
  <path class="cls-2" d="M107.63,125.16,104,123.59l-.3,3.9-1.53.91.48-5.28-4.64-2,1.51-.91,3.38,1.47.29-3.66,1.45-.86-.44,5,4.94,2.11Z"></path>
  <path class="cls-2" d="M74.8,113a5.5,5.5,0,0,1-5.48-5.48c0-2.55,1.79-5.3,4.93-7.66-.31-.42-.62-.82-.91-1.23a12.21,12.21,0,0,1-4.41.1,27,27,0,0,0-4-.28c.28,2.64.28,5.32-1,7.62a5.66,5.66,0,0,1-7.51,2,5.52,5.52,0,0,1-2-7.51c1.28-2.19,4.19-3.67,8.11-4.15-.07-.51-.13-1-.19-1.53a12,12,0,0,1-3.86-2.11,27.33,27.33,0,0,0-3.3-2.23c-1.09,2.44-2.42,4.76-4.72,6.08a5.64,5.64,0,0,1-7.5-2,5.51,5.51,0,0,1,2-7.51c2.19-1.28,5.47-1.09,9.09.45.19-.47.39-1,.6-1.4a12.2,12.2,0,0,1-2.28-3.76,26,26,0,0,0-1.76-3.59c-2.14,1.56-4.47,2.9-7.11,2.9a5.49,5.49,0,1,1,0-11c2.55,0,5.3,1.77,7.66,4.93.4-.32.81-.62,1.24-.92a12,12,0,0,1-.13-4.4,23.51,23.51,0,0,0,.28-4c-.8.07-1.62.14-2.45.14A9.93,9.93,0,0,1,45,65.3,5.43,5.43,0,0,1,42.4,62,5.57,5.57,0,0,1,43,57.8a5.63,5.63,0,0,1,7.49-2c2.22,1.28,3.71,4.2,4.17,8.11.52-.08,1-.14,1.52-.18a12.76,12.76,0,0,1,2.11-3.86,24.86,24.86,0,0,0,2.23-3.3c-2.42-1.09-4.75-2.43-6.07-4.72a5.5,5.5,0,0,1,2-7.49,5.63,5.63,0,0,1,7.51,2c1.27,2.21,1.1,5.48-.44,9.1.48.21,1,.4,1.42.61a12.53,12.53,0,0,1,3.77-2.28A26.12,26.12,0,0,0,72.23,52c-1.55-2.16-2.91-4.49-2.91-7.13a5.5,5.5,0,1,1,11,0c0,2.54-1.79,5.29-4.93,7.66l.92,1.23a12.57,12.57,0,0,1,4.39-.09,24.33,24.33,0,0,0,4,.28c-.28-2.65-.28-5.35,1-7.64a5.65,5.65,0,0,1,7.5-2,5.48,5.48,0,0,1,2,7.49C93.94,54.06,91,55.55,87.12,56c.06.51.12,1,.16,1.5a12.43,12.43,0,0,1,3.88,2.11,23.18,23.18,0,0,0,3.29,2.22c1.09-2.41,2.42-4.73,4.7-6.06a5.65,5.65,0,0,1,7.51,2,5.48,5.48,0,0,1-2,7.5c-2.17,1.26-5.49,1.09-9.07-.45-.2.49-.39,1-.61,1.42A12.45,12.45,0,0,1,97.23,70,24.8,24.8,0,0,0,99,73.61c2.14-1.55,4.47-2.9,7.11-2.9a5.49,5.49,0,0,1,0,11c-2.53,0-5.28-1.78-7.65-4.93l-1.23.92a12.47,12.47,0,0,1,.09,4.41A26.9,26.9,0,0,0,97,86a22.74,22.74,0,0,1,2.47-.15,10.05,10.05,0,0,1,5.14,1.19,5.51,5.51,0,0,1,2,7.51,5.66,5.66,0,0,1-7.5,2C97,95.33,95.48,92.41,95,88.5l-1.51.18a12.71,12.71,0,0,1-2.11,3.87,23.54,23.54,0,0,0-2.23,3.29c2.42,1.08,4.74,2.42,6.06,4.7a5.5,5.5,0,0,1-2,7.51,5.64,5.64,0,0,1-7.5-2c-1.26-2.23-1.09-5.49.45-9.11-.48-.19-1-.4-1.41-.6A12.62,12.62,0,0,1,81,98.63a23.17,23.17,0,0,0-3.57,1.74c1.54,2.14,2.9,4.47,2.9,7.13A5.51,5.51,0,0,1,74.8,113m.77-11.39c-2.54,1.92-4,4.08-4,5.91a3.3,3.3,0,0,0,6.59,0c0-2.06-1.17-4-2.54-5.91m12.6-3.79c-1.26,3-1.48,5.57-.56,7.14a3.36,3.36,0,0,0,4.5,1.2,3.31,3.31,0,0,0,1.2-4.5c-1-1.76-3-2.9-5.14-3.84m-25.41.77c-3.16.39-5.54,1.5-6.45,3.08a3.3,3.3,0,0,0,1.2,4.5A3.4,3.4,0,0,0,62,104.94c1-1.77,1-4.07.74-6.37m13.32,0v0a24.6,24.6,0,0,1,4.08-2,11.5,11.5,0,0,0,2.45-1.34,6.18,6.18,0,0,1-2.11-2,3.57,3.57,0,0,1,1.29-4.88,3.65,3.65,0,0,1,4.88,1.31,4.64,4.64,0,0,1-.42,5l.84.35h0a28.49,28.49,0,0,1,2.53-3.8,10.17,10.17,0,0,0,1.45-2.4,5.86,5.86,0,0,1-2.86-.7,3.6,3.6,0,0,1-1.31-4.88,3.67,3.67,0,0,1,4.87-1.3,4.59,4.59,0,0,1,2.11,4.52l.92-.11h0a24.44,24.44,0,0,1,.3-4.55,11,11,0,0,0,.06-2.8,6.17,6.17,0,0,1-2.84.81,3.57,3.57,0,0,1,0-7.13,4.65,4.65,0,0,1,4.1,2.86l.71-.55h0a26,26,0,0,1-2-4.1,10.57,10.57,0,0,0-1.34-2.44A6.12,6.12,0,0,1,91.8,70.5a3.66,3.66,0,0,1-4.87-1.31,3.61,3.61,0,0,1-.35-2.71,3.54,3.54,0,0,1,1.66-2.16,4.73,4.73,0,0,1,5,.44c.12-.28.23-.56.35-.85v0a27.35,27.35,0,0,1-3.8-2.54A11.25,11.25,0,0,0,87.4,59.9a6,6,0,0,1-.72,2.87,3.68,3.68,0,0,1-4.87,1.31,3.56,3.56,0,0,1-1.29-4.88A4.6,4.6,0,0,1,85,57.08c0-.28-.07-.58-.11-.87v0a26.2,26.2,0,0,1-4.54-.29,10.56,10.56,0,0,0-2.79-.07,6.13,6.13,0,0,1,.8,2.81,3.57,3.57,0,0,1-7.14,0,4.62,4.62,0,0,1,2.87-4.09l-.54-.72h0v0a27.22,27.22,0,0,1-4.08,2A11,11,0,0,0,67,57.16a6,6,0,0,1,2.1,2,3.58,3.58,0,0,1-1.31,4.87,3.56,3.56,0,0,1-4.87-1.31,4.62,4.62,0,0,1,.43-5l-.84-.35h0A27.86,27.86,0,0,1,60,61.22a10.81,10.81,0,0,0-1.46,2.39,6.13,6.13,0,0,1,2.87.72A3.5,3.5,0,0,1,63,66.48a3.56,3.56,0,0,1-5.21,4A4.59,4.59,0,0,1,55.7,66l-.91.11h0a28.38,28.38,0,0,1-.31,4.55,11,11,0,0,0-.05,2.8,6.13,6.13,0,0,1,2.83-.81,3.57,3.57,0,1,1,0,7.13,4.6,4.6,0,0,1-4.08-2.85c-.25.16-.49.35-.73.54h0a27.46,27.46,0,0,1,2,4.11A10.81,10.81,0,0,0,55.77,84a6,6,0,0,1,2-2.12,3.69,3.69,0,0,1,4.88,1.29,3.59,3.59,0,0,1-1.32,4.89,4.73,4.73,0,0,1-5-.43c-.13.27-.24.55-.37.84h0v0A28.09,28.09,0,0,1,59.83,91a10.39,10.39,0,0,0,2.39,1.45,6.25,6.25,0,0,1,.72-2.86,3.68,3.68,0,0,1,4.87-1.3,3.59,3.59,0,0,1,1.31,4.88,4.8,4.8,0,0,1-4.53,2.11c0,.3.08.6.11.91v0a27.1,27.1,0,0,1,4.55.3,10.68,10.68,0,0,0,2.81.06,6.27,6.27,0,0,1-.82-2.84,3.57,3.57,0,0,1,7.14,0,4.64,4.64,0,0,1-2.87,4.1l.57.73M74.8,92.4a1.37,1.37,0,0,0-1.37,1.36A4.69,4.69,0,0,0,74.26,96c1.21-.53,1.92-1.36,1.92-2.27A1.37,1.37,0,0,0,74.8,92.4m22.38-4.17c.38,3.18,1.51,5.56,3.09,6.48a3.41,3.41,0,0,0,4.5-1.23,3.33,3.33,0,0,0-1.22-4.5,7.81,7.81,0,0,0-4-.89,22.93,22.93,0,0,0-2.33.14m-48.7.19a4.75,4.75,0,0,0-2.41.56,3.27,3.27,0,0,0-1.2,4.5,3.37,3.37,0,0,0,4.49,1.21c1.77-1,2.89-3,3.85-5.14a12.54,12.54,0,0,0-4.73-1.13M83.57,90a1.36,1.36,0,0,0-1.16,2.06,4.51,4.51,0,0,0,1.84,1.55,2.71,2.71,0,0,0,.53-2.93A1.39,1.39,0,0,0,83.57,90m-19.15,3a2.71,2.71,0,0,0,2.81-1,1.39,1.39,0,0,0-.53-1.88,1.41,1.41,0,0,0-1.86.5,4.65,4.65,0,0,0-.42,2.37M90,83.61a1.37,1.37,0,0,0-.69,2.56,4.94,4.94,0,0,0,2.36.43c.16-1.34-.2-2.36-1-2.8a1.35,1.35,0,0,0-.68-.19m-32.67,2c1.06.78,2.12,1,2.91.54a1.39,1.39,0,0,0,.52-1.89,1.42,1.42,0,0,0-1.88-.48,4.54,4.54,0,0,0-1.55,1.83m42.85-10.19c1.92,2.56,4.08,4,5.89,4a3.29,3.29,0,1,0,0-6.58c-2.06,0-4,1.17-5.89,2.53M43.52,72.91a3.29,3.29,0,1,0,0,6.58c2,0,4-1.18,5.89-2.53-1.91-2.55-4.07-4-5.89-4m48.86,1.91a1.37,1.37,0,1,0,0,2.74,4.65,4.65,0,0,0,2.27-.81c-.54-1.22-1.36-1.93-2.27-1.93M55,75.64c.54,1.22,1.36,1.92,2.27,1.92a1.37,1.37,0,1,0,0-2.74,4.68,4.68,0,0,0-2.27.82M90.24,66a1.74,1.74,0,0,0-.9.25,1.35,1.35,0,0,0-.64.82,1.52,1.52,0,0,0,.13,1,1.41,1.41,0,0,0,1.88.5,4.77,4.77,0,0,0,1.55-1.83,3.52,3.52,0,0,0-2-.79M57.91,65.8a2.72,2.72,0,0,0,1,2.81,1.44,1.44,0,0,0,1.89-.52,1.38,1.38,0,0,0,.12-1,1.4,1.4,0,0,0-.63-.82,4.27,4.27,0,0,0-2.38-.43M47.72,57.26a3.28,3.28,0,0,0-2.85,1.64,3.1,3.1,0,0,0-.33,2.5,3.21,3.21,0,0,0,1.53,2,7.89,7.89,0,0,0,4,.9,20.06,20.06,0,0,0,2.32-.14c-.39-3.17-1.5-5.55-3.08-6.46a3.31,3.31,0,0,0-1.64-.44m48.69,5.58c2.92,1.24,5.57,1.46,7.13.56a3.19,3.19,0,0,0,1.54-2,3.26,3.26,0,0,0-.31-2.5,3.41,3.41,0,0,0-4.51-1.2c-1.78,1-2.9,3-3.85,5.14M84.65,59.27a2.45,2.45,0,0,0-2.24,1,1.39,1.39,0,0,0,.49,1.89,1.44,1.44,0,0,0,1.88-.51,4.78,4.78,0,0,0,.42-2.37,3.44,3.44,0,0,0-.55,0m-19.27-.52a2.69,2.69,0,0,0-.54,2.91,1.36,1.36,0,0,0,1.18.69,1.47,1.47,0,0,0,.69-.17,1.4,1.4,0,0,0,.52-1.89,4.76,4.76,0,0,0-1.85-1.54m10-2.37c-1.22.53-1.95,1.34-1.95,2.25a1.38,1.38,0,1,0,2.75,0,4.81,4.81,0,0,0-.8-2.25M59.15,45.81a3.23,3.23,0,0,0-1.64.44,3.3,3.3,0,0,0-1.2,4.49c1,1.77,3,2.91,5.14,3.84,1.25-2.94,1.47-5.55.57-7.13a3.3,3.3,0,0,0-2.87-1.64m31.31,0a3.27,3.27,0,0,0-2.85,1.64c-1,1.78-1,4.08-.77,6.39,3.17-.38,5.57-1.51,6.47-3.1a3.31,3.31,0,0,0-1.21-4.5,3.27,3.27,0,0,0-1.64-.43M74.8,41.61a3.29,3.29,0,0,0-3.28,3.3c0,2,1.17,4,2.54,5.91,2.55-1.93,4-4.1,4-5.91a3.3,3.3,0,0,0-3.31-3.3"></path>
  <path class="cls-2" d="M62.47,75.53A12.29,12.29,0,0,1,64,70.27h4.21a27,27,0,0,0-.6,5.26"></path>
  <path class="cls-2" d="M68.5,83.45a16.68,16.68,0,0,0,1.75,4.22,12.35,12.35,0,0,1-5.45-4.22"></path>
  <path class="cls-2" d="M67.58,76.85a28.82,28.82,0,0,0,.6,5.28H64a12.42,12.42,0,0,1-1.5-5.28"></path>
  <path class="cls-2" d="M64.8,69a12.41,12.41,0,0,1,5.45-4.25A16.92,16.92,0,0,0,68.5,69"></path>
  <path class="cls-2" d="M79.37,64.71A12.47,12.47,0,0,1,84.82,69h-3.7a16.55,16.55,0,0,0-1.75-4.25"></path>
  <path class="cls-2" d="M84.82,83.45a12.4,12.4,0,0,1-5.45,4.22,16.33,16.33,0,0,0,1.75-4.22"></path>
  <path class="cls-2" d="M87.15,76.85a12,12,0,0,1-1.51,5.28h-4.2a30.66,30.66,0,0,0,.61-5.28"></path>
  <path class="cls-2" d="M85.64,70.27a12.17,12.17,0,0,1,1.52,5.26H82.05a30.43,30.43,0,0,0-.61-5.26"></path>
  <path class="cls-2" d="M72.4,64.08a14.34,14.34,0,0,1,1.76-.23V69H69.85a12.08,12.08,0,0,1,2.55-4.88"></path>
  <path class="cls-2" d="M68.9,75.53a27.67,27.67,0,0,1,.6-5.26h4.66v5.26"></path>
  <path class="cls-2" d="M69.5,82.13a28,28,0,0,1-.61-5.28h5.26v5.28"></path>
  <path class="cls-2" d="M74.16,88.53a14.35,14.35,0,0,1-1.76-.21,12.17,12.17,0,0,1-2.55-4.87h4.31"></path>
  <path class="cls-2" d="M79.77,83.45a12.17,12.17,0,0,1-2.54,4.87,13.84,13.84,0,0,1-1.77.21V83.45"></path>
  <path class="cls-2" d="M80.73,76.85a27,27,0,0,1-.62,5.28H75.46V76.85"></path>
  <path class="cls-2" d="M80.12,70.27a27.73,27.73,0,0,1,.61,5.26H75.46V70.27"></path>
  <path class="cls-2" d="M75.46,63.85a13.77,13.77,0,0,1,1.77.23A12,12,0,0,1,79.77,69H75.46"></path>
</svg>
