<?xml version="1.0" encoding="UTF-8"?>
<!-- Creator: CorelDRAW 2020 (64-Bit) -->
<svg xmlns="http://www.w3.org/2000/svg" xmlns:xlink="http://www.w3.org/1999/xlink" xmlns:xodm="http://www.corel.com/coreldraw/odm/2003" xml:space="preserve" width="15.5786mm" height="5.5878mm" version="1.1" style="shape-rendering:geometricPrecision; text-rendering:geometricPrecision; image-rendering:optimizeQuality; fill-rule:evenodd; clip-rule:evenodd" viewBox="0 0 1557.86 558.78">
 <defs>
  <style type="text/css">
   <![CDATA[
    .fil0 {fill:#653A2B;fill-rule:nonzero}
   ]]>
  </style>
 </defs>
 <g id="Capa_x0020_1">
  <metadata id="CorelCorpID_0Corel-Layer"></metadata>
  <g id="_2237238183408">
   <g>
    <path id="Trazado_43" class="fil0" d="M323.43 106.31c-10.62,-6.73 -19.74,-13.42 -29.65,-18.59 -25.4,-13.24 -53.7,-20.18 -82.37,-20.18 -14.85,0 -29.72,1.87 -44.09,5.53 -45.62,9.26 -87.33,32.61 -119.14,66.61 -21.44,21.77 -34.75,50.31 -37.6,80.72 -0.2,1.72 -0.3,3.46 -0.3,5.19 0,24.95 20.23,45.18 45.18,45.18 0.42,0 0.85,-0.01 1.26,-0.02 2.15,0.12 4.33,0.2 6.5,0.2 22.24,0 43.98,-6.89 62.17,-19.67 25.66,-15.76 46.95,-37.83 61.82,-64 5.41,-9.3 8.27,-19.89 8.27,-30.66 0,-3.3 -0.28,-6.61 -0.8,-9.87 -1.21,-12.24 -11.49,-21.58 -23.8,-21.61 -1.79,-0.13 -3.62,-0.21 -5.42,-0.21 -13.12,0 -26,3.56 -37.27,10.27 -25.86,13.25 -46.82,34.49 -59.77,60.49 -2.38,5.18 -3.87,10.76 -4.4,16.44 -1.5,13.42 1.64,18.21 14.1,24.04 1.78,0.95 3.52,2.03 5.18,3.18 -2.45,1.02 -5.09,1.54 -7.74,1.54 -9.92,0 -18.4,-7.18 -20.04,-16.97 -0.5,-3.52 -0.77,-7.09 -0.77,-10.66 0,-19.89 8.08,-38.95 22.37,-52.76 21.24,-23.64 50.91,-38.13 82.62,-40.34 1.52,-0.12 3.06,-0.17 4.59,-0.17 5.31,0 10.6,0.65 15.75,1.92 12.57,3.84 21.15,15.44 21.15,28.57 0,1.63 -0.14,3.27 -0.4,4.87 -0.9,15.45 -5.62,30.5 -13.7,43.72 -21.34,37.86 -57.84,64.94 -100.27,74.38 -6.88,2.27 -14.11,3.45 -21.38,3.45 -19.07,0 -37.27,-8.02 -50.13,-22.11 -9.92,-11.82 -15.36,-26.8 -15.36,-42.24 0,-5.85 0.79,-11.7 2.32,-17.34 9.73,-42.82 38.75,-78.75 78.53,-97.3 39.71,-23.13 84.93,-35.37 130.9,-35.37 9.62,0 19.33,0.57 28.88,1.62 27.92,3.08 54.63,13.39 77.39,29.86 3.92,3.25 8.86,5.03 13.96,5.03 4.63,0 9.14,-1.47 12.88,-4.19 17.3,-10.5 37.18,-16.08 57.44,-16.08 6.98,0 13.98,0.67 20.84,1.97 23.48,4.88 40.82,24.91 42.28,48.87 0,0.15 0,0.35 0,0.51 0,12.58 -0.91,25.22 -2.66,37.67 -0.79,2.84 -2.04,5.53 -3.66,7.97l-2.76 -0.57c0.06,-2.94 0.37,-5.89 0.91,-8.78 2.39,-7.86 3.62,-16.05 3.62,-24.26 0,-6.35 -0.73,-12.68 -2.17,-18.85 -3.99,-19.7 -19.76,-34.9 -39.59,-38.14 -5.26,-0.73 -10.62,-1.08 -15.93,-1.08 -24.06,0 -47.55,7.39 -67.28,21.12 17.28,11.68 27.65,31.19 27.65,52.05 0,3.01 -0.22,6.06 -0.65,9.04 -5.57,27.72 -29.06,33.06 -54.03,39.43 4.06,2.54 5.94,3.92 7.99,4.98 24.06,11.97 39.31,36.56 39.31,63.47 0,18.9 -7.57,37.05 -21,50.36 -20.15,23.11 -49.21,36.65 -79.88,37.13 -1.68,0.21 -3.38,0.32 -5.08,0.32 -21.87,0 -39.61,-17.75 -39.61,-39.62 0,-3.74 0.53,-7.49 1.58,-11.09 9.02,-33.45 35.69,-59.36 69.4,-67.43 26.95,-4.04 41.98,12.76 34.66,38.95 -1.34,4.63 -3.19,9.14 -5.45,13.4 -1.57,2.4 -4.19,3.87 -7.05,3.96 0.24,-1.81 0.66,-3.6 1.25,-5.32 1.15,-2.61 2.88,-4.94 4.01,-7.54 4.41,-10.22 8.15,-20.88 0,-30.66 -5.5,-5.62 -13.07,-8.81 -20.95,-8.81 -3.43,0 -6.84,0.61 -10.06,1.78 -32.41,9.92 -56.18,37.73 -60.94,71.29 -1.67,26.29 20.44,41.02 48.37,32.21 40.4,-15.37 67.15,-54.13 67.15,-97.37 0,-0.76 -0.01,-1.53 -0.03,-2.29 -0.76,-13.56 -6.8,-26.3 -16.82,-35.47 -5.34,-6.13 -13.1,-9.67 -21.25,-9.67 -1.62,0 -3.24,0.14 -4.83,0.42 -2.93,0.39 -5.93,0.59 -8.89,0.59 -3.31,0 -6.64,-0.25 -9.9,-0.73 -3.04,-0.68 -5.99,-1.75 -8.74,-3.2 -0.01,-0.99 -0.01,-1.97 -0.01,-2.97 2.77,-1.34 5.73,-2.3 8.75,-2.87 1.49,-0.1 2.99,-0.15 4.48,-0.15 3.64,0 7.29,0.29 10.88,0.85 2.48,0.38 5,0.58 7.51,0.58 24.21,0 44.81,-17.67 48.5,-41.58 0.55,-3.18 0.84,-6.45 0.84,-9.69 0,-11.68 -3.63,-23.08 -10.38,-32.6 -3.82,-5.34 -6.48,-5.31 -11.39,-1.06 -30.07,28.15 -54.49,61.97 -71.75,99.35 -11.1,23.34 -24,46.11 -38.24,67.73 -28.31,38.68 -70.11,65.42 -117.08,74.95 -8.77,2.48 -17.87,3.76 -27,3.76 -13.77,0 -27.42,-2.89 -40,-8.47 -15.85,-5.76 -26.42,-20.85 -26.42,-37.73 0,-1.35 0.07,-2.71 0.2,-4.06 0.62,-11.88 10.01,-21.42 21.87,-22.23 7.47,0.21 13.71,5.77 14.78,13.16 0.08,0.62 0.11,1.25 0.11,1.87 0,6.38 -3.84,12.13 -9.74,14.57 -1.72,0.81 -3.59,1.23 -5.49,1.23 -5.14,0 -9.79,-3.04 -11.85,-7.75 -0.48,-0.68 -1.05,-1.32 -1.66,-1.88 -1.27,3.01 -1.92,6.25 -1.92,9.51 0,6.9 2.92,13.48 8.02,18.12 9.09,8.83 20.89,14.38 33.48,15.78 6.25,1.07 12.6,1.6 18.95,1.6 32.75,0 63.9,-14.26 85.31,-39.03 15.82,-18.25 30.71,-37.57 44.24,-57.63 23.13,-31.87 44.63,-65 69.01,-95.89 15.39,-17.41 32.07,-34.07 49.55,-49.46 1.97,-1.93 4.14,-3.67 7.94,-7.05l-0.16 -0.04zm0 0l0 0 0 0z" data-name="Trazado 43"></path>
   </g>
   <g>
    <path id="Trazado_44" class="fil0" d="M1040.04 299.98c0.15,-1.02 0.47,-2.01 0.94,-2.92 10.9,-13.93 21.78,-27.86 32.89,-41.61 2.62,-3.01 5.66,-5.68 9,-7.88 2.89,-2.73 6.72,-4.25 10.69,-4.25 8.61,0 15.6,6.99 15.6,15.6 0,0.05 0,0.09 0,0.13 -0.04,7.89 -1.22,15.78 -3.42,23.35 -1.12,3.8 -2.57,7.52 -4.33,11.08l1.95 1.63c3.71,-4.4 7.54,-8.7 11.09,-13.21 8.55,-10.9 16.95,-21.94 25.47,-32.89 0.94,-1.06 2.09,-1.94 3.37,-2.57 5.17,-2.82 11.75,-5.74 15.29,-0.26 1.72,2.63 -1.2,10.83 -4.48,13.7 -10.05,8.77 -21.14,16.23 -32.14,24.04 -5.94,4.82 -9.41,12.08 -9.41,19.75 0,4.02 0.95,7.98 2.77,11.55 2.59,3.51 6.72,5.6 11.09,5.6 3.5,0 6.89,-1.33 9.43,-3.73 8.52,-6.58 16.24,-14.24 22.9,-22.7 20.46,-26.03 49.56,-44.01 82,-50.63 2.06,-0.74 4.25,-1.12 6.45,-1.12 7.15,0 13.71,3.96 17.03,10.28 0.85,2.3 1.3,4.73 1.3,7.19 0,7.2 -3.77,13.86 -9.93,17.58 -12.95,6.94 -26.5,13.03 -40.29,18.08 -6.02,2.36 -12.81,2.91 -19.06,4.87 -5.78,1.83 -13.42,2.87 -16.44,7.05 -7.88,9.2 -12.29,20.91 -12.43,33.04 0.04,8.66 7.08,15.67 15.75,15.67 0.41,0 0.81,-0.02 1.22,-0.04 15.31,-0.57 29.8,-7.14 40.33,-18.26 24.84,-21.97 45.69,-48.28 61.33,-77.52 0.54,-1.01 1.17,-1.95 1.76,-2.94 9.63,-16.3 14.1,-18.15 34.23,-13.53 -1.64,3.13 -3.05,6.11 -4.7,8.91 -15.88,26.41 -31.87,52.77 -47.66,79.24 -2.32,3.56 -3.93,7.56 -4.71,11.74 -0.17,0.88 -0.25,1.78 -0.25,2.69 0,2.9 0.91,5.73 2.61,8.09 1.76,1.01 3.77,1.54 5.81,1.54 1.77,0 3.52,-0.4 5.11,-1.16 7.05,-3.68 13.36,-8.71 18.53,-14.78 15.95,-21.87 30.94,-44.47 46.06,-66.96 4.51,-6.57 8.57,-13.53 12.02,-20.72 1.96,-6.27 7.77,-10.53 14.32,-10.53 1.03,0 2.06,0.1 3.06,0.32 2.44,0.14 4.93,0.23 7.38,0.23 2.45,0 4.95,-0.09 7.39,-0.23l-67.55 116.5 1.72 1.63c1.97,-0.64 3.88,-1.48 5.69,-2.51 11.63,-8.24 23.64,-16.07 34.51,-25.23 4.69,-4.77 8.42,-10.43 10.95,-16.61 7.35,-14.55 14.55,-28.81 33.53,-30.74 2.35,-0.23 4.7,-2.91 6.47,-5 9.93,-12.15 19.87,-24.34 29.39,-36.82 2.68,-3.52 3.52,-8.39 5.89,-12.19 4.63,-7.67 9.7,-15.16 15.17,-22.28 1.34,-1.69 5.56,-1.08 8.46,-1.52 0,2.91 1.2,6.72 -0.21,8.57 -5.29,7.05 -11.75,13.09 -17.09,20.13 -3.49,3.95 -5.68,8.87 -6.27,14.1 0.71,9.88 2.37,19.7 4.91,29.27 1.34,5.78 4.25,11.18 6.18,16.87 2.73,5.51 4.17,11.61 4.17,17.79 0,15.18 -8.62,29.06 -22.23,35.79 -11,7.07 -23.82,10.83 -36.91,10.83 -2.12,0 -4.28,-0.11 -6.39,-0.3 -0.04,0 -0.08,0 -0.12,0 -13.38,0 -24.83,-9.64 -27.11,-22.83 -0.55,-1.78 -1.21,-3.52 -1.97,-5.22 -9.33,8.11 -19.36,15.51 -29.88,21.97 -18.27,10.52 -32.86,26.43 -41.76,45.54 -18.31,36.15 -46.97,66.14 -82.24,86.08 -9.39,4.65 -19.47,7.84 -29.81,9.4 -1.4,0.32 -2.84,0.49 -4.28,0.49 -10.57,0 -19.15,-8.57 -19.15,-19.15 0,-1.77 0.25,-3.54 0.74,-5.25 3.61,-16.35 13.24,-30.77 26.96,-40.39 22.03,-17.21 46.32,-31.58 72,-42.62 6.47,-3.03 12.92,-6.06 19.24,-9.39 2.32,-1.1 4.3,-2.78 5.75,-4.89 7.55,-12.57 14.24,-25.75 19.91,-39.28l-6.27 6.81c-2.52,2.73 -4.96,5.53 -7.54,8.2 -4.94,6.59 -12.72,10.49 -20.97,10.49 -3.62,0 -7.2,-0.74 -10.51,-2.2 -7.53,-4.86 -12.08,-13.22 -12.08,-22.19 0,-3.22 0.59,-6.44 1.75,-9.45 0.39,-1.19 0.58,-2.42 0.58,-3.67 0,-1.4 -0.25,-2.77 -0.73,-4.08 -3.57,3.95 -6.9,8.13 -10.73,11.75 -12.33,14.41 -28.82,24.7 -47.19,29.41 -2.29,0.48 -4.64,0.72 -6.99,0.72 -19.17,0 -34.7,-15.54 -34.7,-34.7 0,-1.2 0.06,-2.41 0.18,-3.61 0.14,-3.01 0.33,-6.04 0.62,-11.18 -10.18,7.59 -19.08,14.88 -30.55,11.75 -13.7,-3.76 -11.75,-15.69 -11.75,-28.69 -3.76,3.09 -7.28,6.52 -10.45,10.22 -9.98,14.59 -20.34,28.99 -29.03,44.34 -2.89,7.69 -10.25,12.78 -18.47,12.78 -1.26,0 -2.52,-0.12 -3.76,-0.36 -1.96,-0.14 -3.97,-0.21 -5.95,-0.21 -1.98,0 -3.98,0.07 -5.96,0.21 2.76,-5.03 4.7,-8.67 6.7,-12.19 15.43,-26.04 31.03,-51.95 46.26,-78.07 2.87,-5.22 5.12,-10.82 6.68,-16.58 1.81,-6.22 -1.93,-8.1 -7.05,-6.15 -3.45,1.37 -6.49,3.57 -8.86,6.41 -10.34,12.55 -20.3,25.39 -30.41,38.13 -2.07,2.58 -4.13,5.17 -6.2,7.75l-1.89 -1.13 -0.32 0.24zm237.9 87.59l-2.09 -1.9c-33.11,13.75 -63.82,33.06 -90.58,56.92 -8.21,8.56 -14.7,18.66 -19.06,29.68 -0.87,1.87 -1.31,3.91 -1.31,5.97 0,7.9 6.41,14.31 14.3,14.31 1.24,0 2.47,-0.16 3.66,-0.47 9.52,-1.32 18.67,-4.65 26.81,-9.74 19.81,-16 36.1,-36.02 47.68,-58.71 7.42,-11.75 13.76,-24.06 20.58,-36.13l0.01 0.07zm164.9 -134.78l-2.23 -0.92c-6.58,8.19 -13.16,16.38 -19.74,24.57 -2.47,2.76 -4.71,5.74 -6.69,8.87 -0.51,1.21 -0.78,2.52 -0.78,3.83 0,0.85 0.12,1.7 0.33,2.51 0.71,1.68 1.08,3.49 1.08,5.32 0,6.14 -4.1,11.53 -10.01,13.18 -4.4,2 -9.12,3.24 -13.65,4.98 -9.22,3.32 -15.38,12.08 -15.38,21.88 0,2.18 0.31,4.36 0.92,6.44 3.45,7.38 10.86,12.09 19.01,12.09 3.26,0 6.47,-0.76 9.38,-2.21 6.71,-3.07 12.83,-7.3 18.09,-12.48 26.08,-25.04 19.6,-57.3 19.67,-88.05l0 -0.01zm-255.28 43.62c21.38,-3.51 41.31,-13.22 57.25,-27.9 5.24,-5.19 12.1,-12.03 6.51,-19.03 -5.59,-6.99 -13.83,-1.74 -19.07,2.66 -12.81,10.76 -24.86,22.41 -36.99,33.97 -2.85,3.18 -5.43,6.63 -7.7,10.26l0 0.04zm0 0l0 0 0 0z" data-name="Trazado 44"></path>
   </g>
   <g>
    <path id="Trazado_45" class="fil0" d="M837.49 210.82c-16.14,-5.85 -32.4,-10.4 -47.48,-17.52 -22.92,-9.26 -38.48,-30.89 -39.95,-55.56 -0.06,-1.09 -0.09,-2.22 -0.09,-3.32 0,-18.18 9.59,-35.02 25.21,-44.3 23.09,-15.5 49.95,-24.67 77.71,-26.46 5.17,-0.35 10.46,-0.54 15.66,-0.54 39.79,0 78.91,10.55 113.31,30.51 0.74,0.41 1.47,0.87 2.16,1.38 10.21,8.33 22.99,12.89 36.16,12.89 4.49,0 8.97,-0.53 13.34,-1.57 2.57,-0.37 5.2,-0.57 7.81,-0.57 6.2,0 12.38,1.05 18.23,3.09 8.93,1.98 15.3,9.9 15.3,19.04 0,4.14 -1.32,8.18 -3.77,11.52 -1.78,3.58 -4.29,6.79 -7.35,9.39 -6.86,4.96 -4.69,9.4 -1.88,15.86 5,12.23 9.39,24.89 12.98,37.6 0.08,0.52 0.12,1.05 0.12,1.58 0,2.75 -0.93,5.41 -2.62,7.57 -3.24,-18.41 -10.11,-36.07 -20.13,-51.84 -9.71,5.47 -18.8,11.25 -28.55,16 -45.01,22.67 -94.54,35.05 -144.91,36.12 -0.34,-0.02 -0.68,-0.03 -1.01,-0.03 -5.64,0 -10.82,3.16 -13.38,8.19 -15.82,23.57 -24.78,51.17 -25.84,79.53 -0.06,1.06 -0.1,2.14 -0.1,3.2 0,29.55 23.97,53.52 53.52,53.52 0.16,0 0.33,0 0.49,0 2.53,0.13 5.12,0.21 7.66,0.21 44.25,0 85.76,-21.55 111.21,-57.73 11.54,-13.55 19.72,-29.65 23.86,-46.96 7.21,-32.64 -11.75,-52.82 -44.64,-45.4 -31.22,5.93 -57.47,27.09 -69.87,56.38 -1.81,5.53 -3.14,11.28 -3.93,17.05 3.91,-3.61 8.31,-6.68 13.04,-9.09 1.12,-0.24 2.26,-0.37 3.4,-0.37 7.44,0 13.79,5.35 15.06,12.65 0.07,0.63 0.11,1.25 0.11,1.87 0,7.95 -5.8,14.74 -13.66,15.96 -1.22,0.26 -2.47,0.39 -3.73,0.39 -9.54,0 -17.39,-7.52 -17.81,-17.04 -0.19,-1.86 -0.29,-3.74 -0.29,-5.62 0,-12.52 4.25,-24.71 12.04,-34.52 17.39,-26.5 47.02,-42.49 78.72,-42.49 2.04,0 4.09,0.08 6.11,0.2 18.53,0.26 33.43,15.36 33.43,33.9 0,0.18 0,0.37 0,0.54 0.1,1.69 0.15,3.42 0.15,5.13 0,24.3 -9.42,47.69 -26.25,65.21 -27.64,34.58 -69.52,54.73 -113.8,54.73 -4.16,0 -8.34,-0.18 -12.48,-0.54 -40.8,-2.72 -72.5,-36.63 -72.5,-77.52 0,-0.2 0,-0.44 0,-0.65 -0.02,-1.08 -0.04,-2.23 -0.04,-3.33 0,-21.23 5.54,-42.15 16.05,-60.58 1.11,-1.96 2.13,-4.02 3.01,-6.1 0.09,-0.29 0.14,-0.57 0.14,-0.85 0,-0.29 -0.05,-0.57 -0.13,-0.85l0.2 0.14zm158.96 -102.64c-1.7,-0.99 -4,-2.49 -6.41,-3.74 -35.57,-18.35 -74.93,-28.55 -114.93,-29.7 -2.56,-0.11 -5.19,-0.19 -7.77,-0.19 -28.64,0 -56.78,7.87 -81.24,22.75 -17.06,8.05 -27.96,25.23 -27.96,44.1 0,18.32 10.3,35.12 26.62,43.43 15.68,7.87 32.19,14.25 49.07,18.94 1.32,0.56 2.74,0.85 4.17,0.85 4.03,0 7.71,-2.26 9.54,-5.85 19.01,-25.86 44.22,-46.63 73.28,-60.29 24.46,-11.27 50.02,-20.13 75.63,-30.27l0 -0.03zm-121.59 96.72l1.53 2.66c61.44,-1.64 121.35,-19.88 173.37,-52.6 -10.43,-15.49 -24.06,-28.61 -39.94,-38.46 -1.23,-0.43 -2.52,-0.65 -3.83,-0.65 -1.48,0 -2.95,0.28 -4.34,0.84 -46.35,13.51 -87.66,40.63 -118.53,77.72 -2.87,3.39 -5.45,7.06 -8.15,10.51l-0.11 -0.02zm181.63 -54.83c4.24,-4.51 8.2,-9.37 11.76,-14.47 1.66,-2.33 2.56,-5.12 2.56,-7.99 0,-5.38 -3.16,-10.28 -8.07,-12.48 -7.74,-3.12 -16.03,-4.74 -24.37,-4.74 -5.57,0 -11.14,0.72 -16.52,2.13l34.67 37.59 -0.03 -0.04zm0 0l0 0 0 0z" data-name="Trazado 45"></path>
   </g>
   <g>
    <path id="Trazado_46" class="fil0" d="M470.24 256.83c6.58,-20.27 20.41,-12.19 33.39,-14.1 -1.93,3.78 -2.92,5.96 -4.09,8.03 -15.97,27.65 -32.11,55.23 -47.86,83.02 -2.24,4.29 -3.68,8.97 -4.25,13.79 -1.06,7.26 3.6,11.01 10.36,8.4 3.93,-1.59 7.58,-3.86 10.78,-6.66 24.62,-22.6 45.54,-49.07 61.86,-78.24 24.2,-39.4 48.82,-78.54 72.83,-118.01 2.18,-5.11 7.2,-8.43 12.75,-8.43 0.75,0 1.5,0.06 2.24,0.18 2.8,0.15 5.68,0.24 8.5,0.24 2.81,0 5.71,-0.09 8.49,-0.24l-74.21 117.46 1.5 1.3c3.27,-3.48 6.44,-7.05 9.85,-10.38 4.76,-6.6 12.41,-10.52 20.56,-10.52 7.99,0 15.51,3.76 20.3,10.14 4.97,6.99 7.62,15.37 7.62,23.94 0,5.53 -1.11,11.03 -3.26,16.13 -7.54,19.33 -21.25,35.68 -38.96,46.46 -12.78,8.93 -26.92,15.8 -41.86,20.29 -21.45,5.76 -34.51,-6.91 -33.93,-29.22 0,-2.98 0,-5.99 0,-11.18 -5.38,6.21 -9.16,11.07 -13.46,15.39 -6.81,6.86 -13.93,13.43 -21.14,19.97 -3.99,4.18 -9.54,6.56 -15.33,6.56 -3.48,0 -6.91,-0.86 -9.98,-2.49 -7.56,-4.07 -12.28,-11.97 -12.28,-20.56 0,-1.07 0.08,-2.16 0.23,-3.21 0.14,-1.09 0.21,-2.18 0.21,-3.26 0,-2.51 -0.37,-5.02 -1.1,-7.42 -3.55,4.23 -6.91,8.62 -10.69,12.62 -5.67,5.99 -11.35,12.03 -17.55,17.43 -17.01,14.8 -38.67,6.21 -42.96,-20.01 -0.53,-2.9 -0.8,-5.86 -0.8,-8.82 0,-10.88 3.58,-21.47 10.19,-30.11 19.61,-25.94 47.76,-44.15 79.47,-51.37 1.94,-0.78 4.02,-1.18 6.12,-1.18 8.06,0 14.93,5.84 16.23,13.79l0.23 0.27zm-95.57 84.32c-0.37,13.1 7.05,18.65 17.76,14.1 4.98,-2.17 9.52,-5.27 13.33,-9.11 20.99,-22.14 39.09,-47.07 53.62,-73.88 4.07,-7.05 8.36,-16.77 0.99,-22.88 -7.38,-6.11 -16.45,-0.66 -23.5,4.41 -17.88,13.27 -33.48,29.51 -45.98,47.94 -8.72,11.47 -14.32,25.02 -16.26,39.3l0.04 0.12zm229.02 -76.41c-0.26,-15.09 -5.85,-19.36 -15.23,-15.62 -5.12,1.79 -9.74,4.8 -13.44,8.76 -17.62,21.63 -34.85,43.56 -51.68,65.78 -3.9,5.66 -6.65,12.05 -8.08,18.78 -2.61,10.48 3.59,17.22 13.57,13.68 10.01,-2.99 19.18,-8.37 26.67,-15.64 14.35,-16.45 27.71,-34.03 39.64,-52.34 3.96,-7.36 6.85,-15.21 8.59,-23.33l-0.04 -0.07zm0 0l0 0 0 0z" data-name="Trazado 46"></path>
   </g>
   <g>
    <path id="Trazado_47" class="fil0" d="M756.11 242.68l-67.76 116.32 1.96 1.67c27.21,-14.36 51.5,-33.8 71.43,-57.2l1.93 1.63c-1.1,2.16 -2.4,4.27 -3.86,6.22 -19.13,21.58 -41.9,39.82 -67.14,53.79 -6.28,3.71 -11.51,8.97 -15.19,15.26 -15.84,30.72 -36.55,58.82 -61.21,83.03 -13.45,12.4 -29.04,22.33 -45.98,29.24 -3.72,1.46 -7.61,2.46 -11.57,2.96 -9.53,1.2 -19.17,1.74 -25.23,-7.99 -2.32,-4.02 -3.55,-8.6 -3.55,-13.26 0,-5.42 1.67,-10.72 4.78,-15.17 11.63,-19.84 28.79,-35.93 49.33,-46.29 19.68,-10.92 40.19,-20.37 59.95,-31.17 5.53,-3.17 10.23,-7.63 13.7,-12.99 6.81,-10.43 12.38,-21.64 18.47,-32.53l-1.64 -1.36c-2.89,3.1 -5.69,6.3 -8.7,9.4 -3.97,4.42 -8.32,8.56 -12.94,12.28 -3.82,2.98 -8.53,4.6 -13.37,4.6 -11.8,0 -21.43,-9.41 -21.71,-21.19 -0.06,-0.84 -0.08,-1.68 -0.08,-2.51 0,-5.99 1.38,-11.9 4.02,-17.27 13.16,-24.66 27.2,-48.84 41.16,-73.08 1.31,-2.14 3.45,-3.64 5.9,-4.13 7.05,-0.51 14.1,-0.19 22.91,-0.19 -2.36,4.44 -3.69,7.4 -5.36,10.2 -16.33,27.46 -32.89,54.83 -48.93,82.42 -3.55,6.08 -7.92,14.1 -1.3,19.59 6.63,5.5 14.76,0.17 19.71,-5.01 10.68,-10.61 20.5,-22.23 29.24,-34.48 13.6,-20.04 26.07,-40.93 38.08,-62 2.46,-6.65 8.82,-11.08 15.93,-11.08 0.96,0 1.92,0.08 2.86,0.24 2.35,0.14 4.76,0.22 7.13,0.22 2.37,0 4.77,-0.08 7.13,-0.22l-0.1 0.05zm-109.38 145.16l-2.03 -1.81c-28.3,11.69 -54.94,27.62 -78.71,46.98 -10.56,9.83 -19.98,20.9 -28,32.89 -2.39,3.18 -3.68,7.05 -3.68,11.02 0,4.47 1.64,8.79 4.59,12.15 5.83,6.79 13.39,4.69 20.66,2.94 12.37,-2.84 23.39,-9.84 31.21,-19.84 12.69,-16.45 24.51,-33.5 36.06,-50.72 7.21,-10.76 13.3,-22.27 19.9,-33.46l0 -0.15zm0 0l0 0 0 0z" data-name="Trazado 47"></path>
   </g>
   <g>
    <path id="Trazado_48" class="fil0" d="M1547.64 242.73c-9.39,15.97 -17.34,29.69 -25.39,43.39 -8.06,13.7 -16.45,27.32 -24.23,41.3 -3.25,5.97 -5.64,12.41 -7.06,19.08 -1.59,7.45 3.2,12.38 10.34,9.86 7.21,-2.49 13.77,-6.58 19.19,-11.94 10.5,-10.8 19.75,-22.84 29.53,-34.34 1.78,-2.12 3.55,-4.23 7.05,-8.41 -0.73,3.92 -0.57,5.59 -1.3,6.6 -11.72,18.24 -26.62,34.37 -43.89,47.49 -4.17,3.53 -9.47,5.48 -14.93,5.48 -4.31,0 -8.53,-1.21 -12.18,-3.48 -6.89,-4.41 -11.05,-12.03 -11.05,-20.21 0,-2.28 0.33,-4.56 0.97,-6.74 5.33,-13.76 11.55,-27.25 18.52,-40.26 6.88,-13.1 15.39,-25.38 22.23,-38.51 2.23,-5.79 7.82,-9.64 14.05,-9.64 0.96,0 1.93,0.1 2.87,0.27 2.49,0.13 5.09,0.2 7.6,0.2 2.52,0 5.11,-0.07 7.6,-0.2l0.08 0.06zm0 0l0 0 0 0z" data-name="Trazado 48"></path>
   </g>
   <g>
    <path id="Trazado_49" class="fil0" d="M1557.86 214.45c-0.39,9.6 -7.87,17.44 -17.46,18.29 -5.52,0 -8.57,-2.35 -8.48,-8.27 0.74,-9.14 7.82,-16.51 16.92,-17.62 5.9,0 8.95,3.01 9.02,7.57l0 0.03zm0 0l0 0 0 0z" data-name="Trazado 49"></path>
   </g>
  </g>
 </g>
</svg>
