<?xml version="1.0" encoding="UTF-8"?>
<!-- Creator: CorelDRAW 2020 (64-Bit) -->
<svg xmlns="http://www.w3.org/2000/svg" xmlns:xlink="http://www.w3.org/1999/xlink" xmlns:xodm="http://www.corel.com/coreldraw/odm/2003" xml:space="preserve" width="92px" height="48px" version="1.1" style="shape-rendering:geometricPrecision; text-rendering:geometricPrecision; image-rendering:optimizeQuality; fill-rule:evenodd; clip-rule:evenodd" viewBox="0 0 92 48">
 <defs>
  <style type="text/css">
   <![CDATA[
    .fil4 {fill:#77C6D4;fill-rule:nonzero}
    .fil0 {fill:#E75396;fill-rule:nonzero}
    .fil5 {fill:#F2E1C2;fill-rule:nonzero}
    .fil2 {fill:#F39B68;fill-rule:nonzero}
    .fil1 {fill:#F6BDCA;fill-rule:nonzero}
    .fil3 {fill:#F4CDC6;fill-rule:nonzero}
    .fil6 {fill:#5C3021;fill-rule:nonzero}
   ]]>
  </style>
 </defs>
 <g id="Capa_x0020_1">
  <metadata id="CorelCorpID_0Corel-Layer"></metadata>
  <g id="_2093335417824">
   <path class="fil0" d="M63.69 5.95l-1.25 0c-0.12,0 -0.36,0.03 -0.46,-0.02 -0.11,-0.06 -0.26,-0.25 -0.37,-0.34 -0.16,-0.13 -0.31,-0.26 -0.47,-0.38 -1.29,-1 -2.74,-1.8 -4.23,-2.46 -3.12,-1.36 -6.53,-2.19 -9.93,-2.32 -3.33,-0.12 -6.72,0.52 -9.85,1.63 -1.57,0.56 -3.11,1.26 -4.53,2.14 -0.66,0.4 -1.28,0.84 -1.87,1.33 -0.14,0.12 -0.27,0.25 -0.41,0.36 -0.08,0.06 -0.02,0.04 -0.14,0.06 -0.23,0.03 -0.48,0 -0.71,0 -1.21,0 -2.42,0.03 -3.62,0.26 -1.42,0.26 -2.8,0.73 -4.09,1.38 -2.6,1.31 -4.81,3.33 -6.43,5.75 -1.72,2.55 -2.76,5.54 -3.08,8.6 -0.33,3.16 0.1,6.41 1.3,9.37 1.11,2.74 2.87,5.23 5.16,7.12 2.23,1.84 4.93,3.08 7.8,3.49 1.14,0.16 2.28,0.15 3.44,0.15 0.08,0 0.18,-0.02 0.26,0 0.1,0.02 0.08,0.03 0.18,0.12 0.25,0.25 0.55,0.47 0.83,0.68 0.64,0.49 1.31,0.93 2.01,1.32 2.97,1.69 6.34,2.72 9.72,3.18 3.27,0.44 6.55,0.17 9.75,-0.66 3.2,-0.83 6.44,-2.17 8.98,-4.34 0.08,-0.06 0.25,-0.27 0.31,-0.3 0.04,-0.02 0.14,0 0.18,0l0.76 0c0.48,0 0.96,0.01 1.44,-0.01 1.46,-0.07 2.91,-0.35 4.29,-0.82 2.74,-0.95 5.17,-2.67 7.06,-4.86 1.98,-2.31 3.35,-5.11 4.01,-8.08 0.69,-3.09 0.62,-6.35 -0.2,-9.41 -0.79,-2.9 -2.26,-5.62 -4.32,-7.82 -1.98,-2.11 -4.51,-3.72 -7.3,-4.53 -1.37,-0.39 -2.79,-0.59 -4.22,-0.59z"></path>
   <path class="fil1" d="M61.94 7.75l-1.13 0c-0.11,0 -0.32,0.03 -0.41,-0.01 -0.1,-0.05 -0.24,-0.23 -0.34,-0.31 -0.13,-0.12 -0.28,-0.23 -0.42,-0.34 -1.16,-0.9 -2.46,-1.62 -3.8,-2.21 -2.81,-1.23 -5.88,-1.97 -8.94,-2.09 -3,-0.11 -6.05,0.47 -8.86,1.47 -1.42,0.5 -2.8,1.13 -4.09,1.92 -0.58,0.36 -1.15,0.76 -1.68,1.2 -0.12,0.1 -0.24,0.23 -0.37,0.32 -0.07,0.05 -0.01,0.04 -0.12,0.05 -0.21,0.03 -0.43,0 -0.64,0 -1.09,0 -2.18,0.03 -3.26,0.24 -1.28,0.23 -2.52,0.66 -3.68,1.24 -2.34,1.18 -4.33,3 -5.79,5.17 -1.54,2.3 -2.48,4.99 -2.77,7.74 -0.3,2.85 0.09,5.78 1.17,8.44 1,2.47 2.58,4.7 4.64,6.4 2.01,1.66 4.44,2.78 7.03,3.15 1.02,0.14 2.05,0.13 3.09,0.13 0.07,0 0.17,-0.01 0.24,0 0.09,0.02 0.07,0.03 0.15,0.11 0.23,0.23 0.5,0.42 0.75,0.62 0.58,0.44 1.19,0.83 1.81,1.18 2.68,1.52 5.71,2.45 8.75,2.86 2.95,0.4 5.9,0.16 8.77,-0.59 2.89,-0.75 5.8,-1.95 8.09,-3.91 0.07,-0.06 0.22,-0.24 0.28,-0.27 0.04,-0.01 0.12,0 0.16,0l0.69 0c0.43,0 0.86,0.01 1.29,-0.01 1.32,-0.06 2.62,-0.31 3.86,-0.74 2.47,-0.85 4.66,-2.39 6.35,-4.37 1.79,-2.07 3.02,-4.6 3.61,-7.27 0.62,-2.78 0.56,-5.72 -0.18,-8.47 -0.7,-2.61 -2.03,-5.06 -3.88,-7.03 -1.79,-1.91 -4.06,-3.36 -6.57,-4.08 -1.24,-0.36 -2.52,-0.53 -3.8,-0.54z"></path>
   <path class="fil2" d="M58.78 11l-0.89 0c-0.09,0 -0.27,0.03 -0.33,-0.01 -0.09,-0.04 -0.19,-0.18 -0.27,-0.25 -0.11,-0.09 -0.23,-0.18 -0.34,-0.27 -0.93,-0.72 -1.97,-1.3 -3.05,-1.77 -2.24,-0.98 -4.7,-1.57 -7.15,-1.67 -2.4,-0.09 -4.83,0.38 -7.09,1.18 -1.13,0.4 -2.24,0.9 -3.26,1.53 -0.47,0.29 -0.92,0.61 -1.35,0.96 -0.1,0.08 -0.19,0.18 -0.29,0.26 -0.06,0.04 -0.02,0.03 -0.1,0.04 -0.17,0.02 -0.35,0 -0.51,0 -0.88,0 -1.74,0.03 -2.61,0.19 -1.02,0.19 -2.02,0.53 -2.94,1 -1.88,0.94 -3.47,2.39 -4.63,4.13 -1.24,1.84 -1.99,3.99 -2.22,6.19 -0.24,2.28 0.07,4.62 0.93,6.75 0.8,1.98 2.07,3.77 3.72,5.13 1.6,1.32 3.55,2.22 5.61,2.51 0.83,0.12 1.65,0.11 2.48,0.11 0.06,0 0.13,-0.01 0.19,0 0.07,0.02 0.06,0.02 0.13,0.09 0.18,0.18 0.39,0.33 0.6,0.49 0.45,0.35 0.94,0.66 1.44,0.95 2.14,1.21 4.57,1.95 7,2.28 2.36,0.33 4.72,0.13 7.02,-0.47 2.31,-0.59 4.64,-1.56 6.47,-3.12 0.05,-0.05 0.17,-0.2 0.22,-0.22 0.03,-0.01 0.1,0 0.13,0l0.55 0c0.34,0 0.69,0.01 1.03,-0.01 1.06,-0.05 2.1,-0.25 3.09,-0.59 1.98,-0.68 3.73,-1.92 5.08,-3.5 1.43,-1.66 2.42,-3.68 2.89,-5.81 0.5,-2.23 0.45,-4.58 -0.14,-6.78 -0.57,-2.09 -1.63,-4.05 -3.11,-5.63 -1.43,-1.52 -3.25,-2.68 -5.26,-3.26 -0.99,-0.28 -2.01,-0.43 -3.04,-0.43z"></path>
   <path class="fil3" d="M55 14.9l-0.63 0c-0.06,0 -0.18,0.02 -0.23,-0.01 -0.06,-0.03 -0.13,-0.12 -0.19,-0.17 -0.08,-0.07 -0.15,-0.13 -0.23,-0.19 -0.66,-0.51 -1.38,-0.91 -2.14,-1.24 -1.57,-0.69 -3.29,-1.1 -5,-1.17 -1.68,-0.06 -3.39,0.26 -4.96,0.82 -0.8,0.29 -1.57,0.64 -2.29,1.08 -0.33,0.2 -0.65,0.43 -0.94,0.67 -0.07,0.06 -0.14,0.13 -0.21,0.18 -0.04,0.03 -0.01,0.02 -0.07,0.03 -0.11,0.02 -0.24,0 -0.35,0 -0.62,0 -1.23,0.02 -1.83,0.13 -0.72,0.14 -1.41,0.37 -2.06,0.7 -1.31,0.66 -2.43,1.68 -3.24,2.9 -0.87,1.28 -1.39,2.79 -1.56,4.33 -0.16,1.6 0.06,3.23 0.66,4.72 0.56,1.39 1.45,2.64 2.6,3.59 1.12,0.93 2.48,1.56 3.93,1.76 0.58,0.08 1.15,0.08 1.73,0.08 0.04,0 0.1,-0.01 0.14,0 0.05,0.01 0.04,0.01 0.09,0.06 0.12,0.12 0.27,0.23 0.41,0.34 0.33,0.25 0.67,0.47 1.02,0.67 1.5,0.85 3.2,1.36 4.9,1.6 1.65,0.22 3.3,0.08 4.91,-0.33 1.62,-0.42 3.25,-1.1 4.53,-2.19 0.04,-0.03 0.12,-0.14 0.15,-0.15 0.03,-0.01 0.07,0 0.1,0l0.38 0c0.24,0 0.48,0 0.72,-0.01 0.74,-0.03 1.47,-0.17 2.17,-0.41 1.38,-0.48 2.6,-1.35 3.55,-2.45 1,-1.16 1.69,-2.58 2.02,-4.07 0.35,-1.56 0.32,-3.21 -0.1,-4.75 -0.39,-1.46 -1.14,-2.83 -2.17,-3.93 -1,-1.07 -2.27,-1.88 -3.68,-2.29 -0.69,-0.2 -1.41,-0.3 -2.13,-0.3z"></path>
   <path class="fil4" d="M51.47 18.54l-0.38 0c-0.04,0 -0.11,0.01 -0.14,0 -0.03,-0.02 -0.08,-0.08 -0.11,-0.11 -0.05,-0.04 -0.09,-0.08 -0.14,-0.11 -0.39,-0.31 -0.83,-0.55 -1.28,-0.74 -0.94,-0.42 -1.98,-0.67 -3.01,-0.71 -1,-0.04 -2.03,0.16 -2.97,0.5 -0.48,0.16 -0.94,0.38 -1.37,0.64 -0.2,0.12 -0.39,0.26 -0.57,0.4 -0.04,0.04 -0.08,0.08 -0.12,0.11 -0.03,0.02 -0.01,0.02 -0.05,0.02 -0.06,0.01 -0.14,0 -0.21,0 -0.37,0 -0.73,0.01 -1.09,0.08 -0.43,0.08 -0.85,0.22 -1.24,0.42 -0.79,0.39 -1.46,1 -1.94,1.73 -0.52,0.78 -0.84,1.68 -0.94,2.61 -0.1,0.95 0.03,1.94 0.4,2.83 0.33,0.83 0.86,1.58 1.56,2.15 0.67,0.56 1.49,0.94 2.36,1.06 0.34,0.05 0.69,0.04 1.03,0.04 0.03,0 0.06,0 0.09,0 0.03,0.01 0.02,0.01 0.05,0.04 0.07,0.08 0.16,0.14 0.25,0.21 0.19,0.14 0.4,0.28 0.61,0.4 0.9,0.5 1.92,0.82 2.94,0.96 0.99,0.13 1.98,0.05 2.94,-0.2 0.97,-0.25 1.95,-0.66 2.72,-1.31 0.02,-0.02 0.07,-0.09 0.09,-0.1 0.02,0 0.05,0 0.06,0l0.23 0c0.14,0 0.29,0.01 0.43,0 0.45,-0.02 0.88,-0.1 1.3,-0.25 0.83,-0.28 1.57,-0.8 2.14,-1.47 0.6,-0.69 1.01,-1.54 1.21,-2.44 0.21,-0.93 0.19,-1.92 -0.06,-2.85 -0.24,-0.87 -0.68,-1.7 -1.31,-2.36 -0.6,-0.64 -1.36,-1.13 -2.21,-1.37 -0.41,-0.12 -0.84,-0.18 -1.27,-0.18z"></path>
   <path class="fil5" d="M69.81 15.76c-0.39,-0.02 -0.71,-0.3 -0.96,-0.56 -0.25,-0.26 -0.47,-0.57 -0.56,-0.92 0,-0.01 -0.01,-0.01 -0.01,-0.01 -0.01,-0.01 -0.03,-0.01 -0.03,0.01 -0.11,0.34 -0.31,0.65 -0.58,0.89 -0.14,0.13 -0.3,0.24 -0.46,0.35 -0.16,0.1 -0.33,0.2 -0.51,0.27 -0.04,0.01 -0.01,0.07 0.02,0.05 0.01,-0.01 0.01,-0.01 0.01,-0.01 0.26,0.11 0.51,0.23 0.73,0.41 0.22,0.17 0.42,0.39 0.56,0.63 0.09,0.15 0.15,0.3 0.21,0.45 0.01,0.05 0.08,0.03 0.07,-0.02 0,0 0,0 0,0 0.18,-0.71 0.78,-1.33 1.5,-1.48 0,0 0,0 0.01,0 0.03,0 0.03,-0.05 0,-0.06z"></path>
   <path class="fil5" d="M44.46 7.91c-0.44,-0.03 -0.82,-0.36 -1.11,-0.66 -0.3,-0.3 -0.54,-0.66 -0.65,-1.07 -0.01,-0.01 -0.01,-0.01 -0.01,-0.01 -0.01,-0.01 -0.03,-0.01 -0.04,0.01 -0.12,0.4 -0.36,0.76 -0.67,1.04 -0.16,0.15 -0.35,0.28 -0.53,0.4 -0.19,0.12 -0.39,0.24 -0.6,0.31 -0.04,0.02 -0.01,0.08 0.03,0.06 0,0 0.01,0 0.01,-0.01 0.3,0.13 0.58,0.27 0.84,0.48 0.26,0.2 0.49,0.45 0.66,0.74 0.1,0.16 0.17,0.34 0.24,0.52 0.01,0.05 0.1,0.03 0.08,-0.03 0,0 0,0 0,0 0.21,-0.83 0.91,-1.54 1.75,-1.72 0,0 0,0 0,0 0.04,0 0.04,-0.06 0,-0.06z"></path>
   <path class="fil5" d="M74.82 27.77c-0.23,-0.01 -0.43,-0.18 -0.58,-0.34 -0.16,-0.16 -0.29,-0.35 -0.34,-0.56 0,-0.01 -0.01,-0.01 -0.01,-0.01 0,0 -0.01,0 -0.02,0.01 -0.06,0.21 -0.19,0.4 -0.35,0.54 -0.08,0.08 -0.18,0.15 -0.28,0.21 -0.09,0.06 -0.2,0.13 -0.31,0.17 -0.02,0 0,0.04 0.02,0.03 0,-0.01 0,-0.01 0,-0.01 0.16,0.07 0.31,0.14 0.44,0.25 0.14,0.11 0.26,0.24 0.35,0.39 0.05,0.08 0.09,0.17 0.12,0.27 0.01,0.02 0.05,0.01 0.04,-0.01 0,-0.01 0,-0.01 0,-0.01 0.11,-0.43 0.48,-0.8 0.92,-0.9 0,0.01 0,0.01 0,0.01 0.02,0 0.02,-0.04 0,-0.04z"></path>
   <path class="fil5" d="M64.6 23.97c-0.32,-0.02 -0.58,-0.26 -0.79,-0.47 -0.21,-0.21 -0.39,-0.47 -0.46,-0.76 -0.01,-0.01 -0.01,-0.01 -0.01,-0.01 -0.01,-0.01 -0.02,0 -0.03,0.01 -0.08,0.28 -0.25,0.54 -0.47,0.74 -0.12,0.1 -0.25,0.2 -0.38,0.28 -0.13,0.08 -0.27,0.17 -0.42,0.22 -0.03,0.01 -0.01,0.06 0.02,0.04 0,0 0,0 0,0 0.21,0.09 0.42,0.19 0.6,0.33 0.18,0.15 0.35,0.33 0.47,0.53 0.07,0.12 0.12,0.24 0.17,0.37 0.01,0.04 0.07,0.02 0.06,-0.02 0,0 0,0 -0.01,0 0.15,-0.59 0.65,-1.09 1.24,-1.22 0.01,0 0.01,0 0.01,0 0.03,0 0.03,-0.04 0,-0.04z"></path>
   <path class="fil5" d="M53.24 37.03c-0.26,-0.01 -0.49,-0.21 -0.66,-0.39 -0.18,-0.18 -0.33,-0.4 -0.39,-0.64 0,-0.01 -0.01,-0.01 -0.01,-0.01 -0.01,0 -0.02,0 -0.02,0.01 -0.07,0.24 -0.22,0.45 -0.4,0.62 -0.1,0.09 -0.21,0.17 -0.32,0.24 -0.11,0.07 -0.23,0.14 -0.35,0.19 -0.03,0.01 -0.01,0.05 0.01,0.03 0,0 0.01,0 0.01,0 0.18,0.08 0.35,0.16 0.5,0.28 0.16,0.12 0.29,0.27 0.39,0.44 0.06,0.1 0.11,0.21 0.15,0.31 0.01,0.04 0.06,0.02 0.05,-0.01 0,0 -0.01,0 -0.01,0 0.13,-0.5 0.55,-0.92 1.05,-1.03 0,0 0,0 0,0 0.03,0 0.03,-0.04 0,-0.04z"></path>
   <path class="fil5" d="M53.44 12.08c-0.31,-0.02 -0.58,-0.25 -0.79,-0.46 -0.2,-0.22 -0.38,-0.48 -0.46,-0.77 0,0 0,0 -0.01,0 0,-0.01 -0.02,-0.01 -0.02,0 -0.09,0.29 -0.26,0.54 -0.48,0.74 -0.11,0.11 -0.24,0.2 -0.38,0.29 -0.13,0.08 -0.27,0.17 -0.42,0.22 -0.03,0.01 -0.01,0.05 0.02,0.04 0,0 0.01,0 0.01,-0.01 0.21,0.1 0.41,0.2 0.6,0.34 0.18,0.15 0.34,0.33 0.46,0.53 0.07,0.11 0.13,0.24 0.17,0.37 0.01,0.03 0.07,0.02 0.06,-0.02 0,0 0,0 0,-0.01 0.15,-0.58 0.64,-1.09 1.24,-1.21 0,0 0,0 0,0 0.03,0 0.03,-0.05 0,-0.05z"></path>
   <path class="fil5" d="M49.04 40.93c-0.43,-0.02 -0.8,-0.35 -1.09,-0.65 -0.29,-0.29 -0.54,-0.65 -0.65,-1.05 0,-0.01 0,-0.01 0,-0.01 -0.02,-0.01 -0.04,-0.01 -0.04,0.01 -0.12,0.39 -0.36,0.75 -0.66,1.02 -0.16,0.15 -0.34,0.28 -0.53,0.4 -0.18,0.11 -0.38,0.24 -0.58,0.31 -0.04,0.01 -0.01,0.07 0.02,0.05 0.01,0 0.01,0 0.02,0 0.29,0.12 0.57,0.26 0.82,0.46 0.26,0.2 0.48,0.45 0.65,0.73 0.1,0.16 0.17,0.34 0.24,0.51 0.01,0.06 0.09,0.04 0.08,-0.02 0,0 0,0 0,-0.01 0.2,-0.81 0.89,-1.51 1.72,-1.69 0,0 0,0 0,0 0.04,0.01 0.04,-0.06 0,-0.06z"></path>
   <path class="fil5" d="M18.12 25.23c-0.32,-0.02 -0.58,-0.26 -0.79,-0.47 -0.21,-0.21 -0.39,-0.47 -0.46,-0.76 0,-0.01 -0.01,-0.01 -0.01,-0.01 -0.01,-0.01 -0.02,0 -0.03,0.01 -0.08,0.28 -0.25,0.54 -0.47,0.74 -0.12,0.1 -0.25,0.2 -0.38,0.28 -0.13,0.08 -0.27,0.17 -0.42,0.22 -0.03,0.01 -0.01,0.06 0.02,0.04 0,0 0,0 0,0 0.22,0.09 0.42,0.19 0.6,0.34 0.18,0.14 0.35,0.32 0.47,0.52 0.07,0.12 0.12,0.24 0.17,0.37 0.01,0.04 0.07,0.02 0.06,-0.02 0,0 0,0 -0.01,0 0.15,-0.59 0.65,-1.09 1.24,-1.22 0.01,0 0.01,0 0.01,0 0.03,0 0.03,-0.04 0,-0.04z"></path>
   <path class="fil5" d="M28.36 28.69c-0.44,-0.03 -0.81,-0.36 -1.1,-0.66 -0.3,-0.3 -0.55,-0.66 -0.66,-1.07 0,0 0,-0.01 0,-0.01 -0.02,-0.01 -0.04,-0.01 -0.04,0.01 -0.12,0.4 -0.36,0.76 -0.67,1.04 -0.16,0.15 -0.34,0.28 -0.53,0.4 -0.19,0.11 -0.39,0.24 -0.59,0.31 -0.04,0.02 -0.02,0.08 0.02,0.06 0.01,0 0.01,0 0.01,-0.01 0.3,0.13 0.59,0.27 0.84,0.47 0.26,0.21 0.49,0.46 0.66,0.74 0.1,0.17 0.17,0.34 0.24,0.52 0.01,0.05 0.09,0.03 0.08,-0.02 0,0 0,-0.01 0,-0.01 0.2,-0.82 0.9,-1.53 1.74,-1.71 0,0 0,0 0,0 0.04,0 0.04,-0.06 0,-0.06z"></path>
   <path class="fil5" d="M26.74 35.29c-0.25,-0.02 -0.45,-0.2 -0.61,-0.36 -0.16,-0.17 -0.3,-0.37 -0.36,-0.59 0,-0.01 0,-0.01 0,-0.01 -0.01,0 -0.02,0 -0.03,0.01 -0.06,0.22 -0.19,0.41 -0.36,0.57 -0.09,0.08 -0.19,0.15 -0.3,0.22 -0.1,0.06 -0.21,0.13 -0.32,0.17 -0.02,0.01 -0.01,0.05 0.01,0.03 0.01,0 0.01,0 0.01,0 0.16,0.07 0.32,0.15 0.46,0.26 0.14,0.11 0.27,0.25 0.36,0.4 0.06,0.1 0.1,0.19 0.13,0.29 0.01,0.03 0.06,0.02 0.05,-0.01 0,0 0,0 0,-0.01 0.11,-0.45 0.5,-0.84 0.96,-0.94 0,0 0,0 0,0 0.02,0 0.02,-0.03 0,-0.03z"></path>
   <path class="fil5" d="M13.15 22.66c-3.18,0 -4.71,-1.9 -5.43,-3.49 -0.86,-1.89 -1.05,-4.38 -0.54,-6.99 0.49,-2.55 1.62,-4.96 3.16,-6.8 -1.03,-0.33 -1.9,-0.49 -2.58,-0.49 -1.14,0 -1.29,0.42 -1.29,0.79 0,0.48 0.28,0.67 0.61,0.89 0.31,0.2 0.66,0.44 0.66,0.94 0,1.16 -2.07,2.34 -4.1,2.34 -1.11,0 -2.02,-0.37 -2.63,-1.06 -0.55,-0.62 -0.85,-1.48 -0.85,-2.45 0,-2.56 2.01,-5.32 5.25,-5.32 1.57,0 3.3,0.64 6.85,2.53 1.72,-1.29 3.72,-1.98 5.79,-1.98 1.58,0 2.87,0.41 3.71,1.18 0.73,0.66 1.13,1.59 1.13,2.61 0,0.91 -0.32,1.83 -0.89,2.52 -0.62,0.74 -1.45,1.15 -2.35,1.15 -1.29,0 -3.01,-0.82 -4.99,-1.78 -0.18,-0.09 -0.36,-0.18 -0.54,-0.27 -1.52,1.81 -2.58,4.41 -2.58,6.36 0,2.08 1.24,3.17 2.45,3.17 0.87,0 1.75,-0.61 1.75,-1.96 0,-0.35 -0.07,-1.17 -0.71,-1.17 -0.15,0 -0.35,0.05 -0.56,0.1 -0.23,0.05 -0.47,0.11 -0.68,0.11 -0.44,0 -0.69,-0.26 -0.69,-0.72 0,-1.46 2.19,-2.94 4.34,-2.94 2.69,0 3.89,2.39 3.89,4.77 0,1.93 -0.73,3.88 -2.01,5.33 -1.05,1.2 -2.98,2.63 -6.17,2.63z"></path>
   <path class="fil6" d="M5.41 0.86c-1.57,0 -2.99,0.64 -4,1.8 -0.9,1.02 -1.41,2.36 -1.41,3.68 0,1.01 0.31,1.91 0.88,2.56 0.65,0.72 1.6,1.11 2.76,1.11 2.15,0 4.27,-1.24 4.27,-2.5 0,-0.59 -0.41,-0.86 -0.74,-1.08 -0.34,-0.23 -0.54,-0.38 -0.54,-0.75 0,-0.63 0.73,-0.63 1.13,-0.63 0.6,0 1.39,0.14 2.3,0.42 -1.48,1.83 -2.56,4.18 -3.04,6.68 -0.52,2.65 -0.32,5.16 0.55,7.09 0.5,1.11 1.21,1.98 2.11,2.59 0.97,0.66 2.14,1 3.47,1 3.25,0 5.22,-1.46 6.29,-2.69 1.3,-1.48 2.05,-3.47 2.05,-5.44 0,-1.34 -0.36,-2.56 -1.01,-3.43 -0.73,-0.99 -1.78,-1.51 -3.04,-1.51 -1.03,0 -2.13,0.34 -3.03,0.94 -0.93,0.62 -1.47,1.41 -1.47,2.17 0,0.55 0.32,0.88 0.85,0.88 0.23,0 0.48,-0.06 0.72,-0.11 0.19,-0.05 0.39,-0.09 0.52,-0.09 0.5,0 0.55,0.7 0.55,1 0,0.57 -0.17,1.04 -0.48,1.36 -0.28,0.28 -0.68,0.44 -1.11,0.44 -1.13,0 -2.28,-1.04 -2.28,-3.01 0,-0.91 0.25,-2.03 0.7,-3.16 0.45,-1.11 1.05,-2.14 1.75,-2.99 0.15,0.07 0.29,0.13 0.43,0.2 2,0.97 3.73,1.81 5.06,1.81 0.95,0 1.83,-0.43 2.47,-1.22 0.6,-0.71 0.94,-1.67 0.94,-2.62 0,-1.07 -0.42,-2.04 -1.19,-2.73 -0.89,-0.81 -2.17,-1.22 -3.82,-1.22 -2.07,0 -4.08,0.67 -5.8,1.94 -3.52,-1.86 -5.26,-2.49 -6.84,-2.49zm0 0.33c1.53,0 3.27,0.63 6.87,2.55 1.62,-1.25 3.6,-2 5.77,-2 6.67,0 5.28,7.13 1.6,7.13 -1.4,0 -3.4,-1.04 -5.57,-2.09 -1.65,1.92 -2.7,4.64 -2.7,6.56 0,2.23 1.36,3.33 2.61,3.33 1.02,0 1.91,-0.72 1.91,-2.12 0,-0.78 -0.29,-1.33 -0.87,-1.33 -0.34,0 -0.86,0.2 -1.24,0.2 -0.29,0 -0.52,-0.11 -0.52,-0.55 0,-1.36 2.14,-2.78 4.17,-2.78 5.92,0 4.99,12.41 -4.29,12.41 -7.57,0 -7.68,-11.31 -2.52,-17.2 -1.05,-0.34 -2.06,-0.58 -2.87,-0.58 -0.96,0 -1.45,0.29 -1.45,0.96 0,1.07 1.27,0.96 1.27,1.83 0,1.04 -1.97,2.17 -3.94,2.17 -5.31,0 -3.89,-8.49 1.77,-8.49z"></path>
   <path class="fil5" d="M21.21 20c-0.12,0 -0.22,-0.05 -0.29,-0.13 -0.07,-0.09 -0.09,-0.21 -0.07,-0.33 0.42,-2.37 0.54,-3.19 0.64,-3.84 0.12,-0.81 0.21,-1.39 0.75,-4.25 0.07,-0.31 0.01,-0.41 0,-0.44 -0.01,-0.01 -0.03,-0.03 -0.1,-0.03 -0.12,0 -0.27,0.05 -0.4,0.09 -0.13,0.04 -0.25,0.08 -0.35,0.08 -0.15,0 -0.25,-0.1 -0.25,-0.25l0 -0.01c0.03,-0.52 1.39,-1.29 1.54,-1.37 0.48,-0.26 1.69,-0.87 2.77,-0.87 0.54,0 1.14,0.03 1.46,0.42 0.23,0.28 0.28,0.68 0.18,1.22l-0.12 0.55c1.14,-1.45 2.31,-2.19 3.49,-2.19 0.75,0 1.38,0.29 1.81,0.85 0.39,0.49 0.6,1.15 0.61,1.86 0,1.46 -0.89,2.94 -2.62,2.95 -1.29,0 -2.12,-0.77 -2.28,-2.09 -0.55,0.53 -1.52,1.79 -1.71,2.36 -0.2,0.65 -0.31,1.54 -0.4,2.18 -0.02,0.19 -0.04,0.35 -0.06,0.49 -0.21,1.14 -0.78,1.9 -1.74,2.32 -0.85,0.38 -1.92,0.43 -2.86,0.43z"></path>
   <path class="fil6" d="M30.46 8.49c-0.67,0 -1.33,0.22 -1.98,0.65 -0.41,0.28 -0.82,0.65 -1.22,1.1 0.09,-0.56 0.02,-0.97 -0.22,-1.27 -0.37,-0.45 -1.02,-0.48 -1.59,-0.48 -1.12,0 -2.36,0.62 -2.84,0.89 -0.48,0.26 -1.6,0.94 -1.64,1.5l0 0.01 0 0.01c0,0.24 0.18,0.41 0.42,0.41 0.13,0 0.26,-0.04 0.4,-0.09 0.11,-0.03 0.23,-0.07 0.32,-0.08 0.01,0.04 0.01,0.13 -0.03,0.27l0 0.01 0 0c-0.54,2.86 -0.63,3.45 -0.75,4.25 -0.1,0.66 -0.22,1.47 -0.64,3.84 -0.03,0.17 0.01,0.34 0.11,0.46 0.1,0.12 0.25,0.19 0.41,0.19 1.7,0 2.43,-0.22 2.93,-0.44 1,-0.44 1.61,-1.26 1.83,-2.44l0 0 0 -0.01c0.02,-0.13 0.04,-0.3 0.07,-0.49 0.08,-0.64 0.19,-1.51 0.38,-2.16 0.16,-0.47 0.91,-1.47 1.45,-2.05 0.26,1.2 1.12,1.9 2.39,1.9 1.83,-0.01 2.78,-1.57 2.78,-3.11 -0.01,-0.75 -0.23,-1.44 -0.64,-1.96 -0.47,-0.6 -1.14,-0.91 -1.94,-0.91zm0 0.32c3.08,0 2.99,5.31 -0.2,5.34 -1.16,0 -2.09,-0.67 -2.15,-2.26 -0.46,0.32 -1.77,1.94 -2,2.64 -0.26,0.87 -0.37,2.11 -0.46,2.69 -0.44,2.38 -2.47,2.61 -4.44,2.61 -0.14,0 -0.23,-0.11 -0.2,-0.26 0.93,-5.25 0.4,-2.87 1.39,-8.09 0.12,-0.52 -0.06,-0.67 -0.26,-0.67 -0.26,0 -0.58,0.18 -0.75,0.18 -0.06,0 -0.09,-0.03 -0.09,-0.09 0.03,-0.52 2.49,-2.09 4.15,-2.09 0.92,0 1.74,0.12 1.47,1.45l-0.26 1.28c1.4,-2.03 2.67,-2.73 3.8,-2.73z"></path>
   <path class="fil5" d="M36.95 12.87c0.18,0.04 0.34,0.07 0.5,0.07 1.06,0 1.74,-0.75 1.74,-1.15 0,-0.08 -0.03,-0.15 -0.1,-0.19 -0.08,-0.07 -0.21,-0.1 -0.39,-0.1 -0.7,0 -1.34,0.51 -1.75,1.37zm5.65 -1.79c0.06,0.22 0.09,0.45 0.09,0.69 0,2.14 -2.2,3.53 -5.61,3.53 -0.24,0 -0.36,0.14 -0.36,0.41 0,0.85 1.15,0.97 1.83,0.97 0.82,0 1.55,-0.49 2.25,-0.97 0.59,-0.41 1.15,-0.8 1.7,-0.8 0.16,0 0.3,0.04 0.4,0.1 0.13,-0.76 0.3,-1.51 0.45,-2.13 0.15,-0.68 0.29,-1.27 0.29,-1.57 0,-0.32 -0.11,-0.32 -0.19,-0.32 -0.11,0 -0.25,0.04 -0.38,0.08 -0.11,0.04 -0.21,0.08 -0.3,0.08 -0.08,0 -0.14,-0.04 -0.17,-0.07zm2.68 14.92c-1.41,0 -2.49,-0.4 -3.21,-1.2 -0.59,-0.64 -0.91,-1.52 -0.91,-2.5 0,-1.46 0.69,-2.69 1.51,-2.69 0.5,0 0.71,0.46 0.9,0.9 0.27,0.61 0.55,1.25 1.57,1.25 1.37,0 2.51,-1.21 3.39,-3.6 -1.44,1.16 -2.85,1.84 -3.86,1.84 -0.89,0 -1.96,-0.52 -1.96,-2.95 0,-0.11 0,-0.22 0.01,-0.33 -0.38,0.59 -0.96,1.23 -1.64,1.77 -1.22,0.97 -2.59,1.51 -3.86,1.51 -1.7,0 -3.11,-0.52 -4.08,-1.5 -0.85,-0.87 -1.33,-2.08 -1.33,-3.42 0,-1.59 0.66,-3.18 1.82,-4.37 0.91,-0.94 2.56,-2.06 5.21,-2.06 1.58,0 3.21,0.81 3.7,2.22 0.04,-0.39 0.76,-0.97 1.39,-1.35 0.43,-0.26 1.55,-0.87 2.57,-0.87 0.5,0 0.9,0.15 1.19,0.45 0.39,0.41 0.55,1.08 0.51,2.04 -0.04,0.96 -0.27,2.03 -0.47,2.97 -0.19,0.9 -0.41,1.91 -0.24,2.12 0.01,0.01 0.02,0.02 0.05,0.02 0.43,0 1.72,-0.99 1.88,-1.43 0.37,-0.93 0.37,-2.07 0.37,-3.08 0,-0.49 -0.07,-0.73 -0.22,-0.73 -0.05,0 -0.16,0.03 -0.25,0.05 -0.12,0.04 -0.23,0.07 -0.32,0.07 -0.11,0 -0.17,-0.04 -0.2,-0.08 -0.03,-0.03 -0.07,-0.1 -0.06,-0.19 0.05,-0.64 2.31,-2.18 3.73,-2.18 1.04,0 1.82,0.79 1.82,1.84 0,2.6 -0.49,6.51 -1.86,9.71 -0.74,1.75 -1.67,3.12 -2.76,4.08 -1.26,1.12 -2.74,1.69 -4.39,1.69z"></path>
   <path class="fil6" d="M37.2 12.75c0.37,-0.69 0.92,-1.09 1.5,-1.09 0.19,0 0.27,0.05 0.29,0.07 0.02,0 0.03,0.02 0.03,0.06 0,0.3 -0.59,0.99 -1.57,0.99 -0.08,0 -0.16,-0.01 -0.25,-0.03zm5.62 -1.44c0.09,-0.01 0.19,-0.04 0.3,-0.08 0.11,-0.04 0.24,-0.08 0.33,-0.08 0,0 0.01,0 0.01,0 0.01,0.02 0.02,0.07 0.02,0.16 0,0.28 -0.14,0.86 -0.29,1.54 -0.13,0.56 -0.29,1.23 -0.41,1.94 -0.09,-0.03 -0.18,-0.04 -0.28,-0.04 -0.6,0 -1.18,0.4 -1.8,0.82 -0.67,0.47 -1.38,0.95 -2.15,0.95 -0.5,0 -1.67,-0.08 -1.67,-0.81 0,-0.23 0.1,-0.25 0.19,-0.25 1.7,0 3.14,-0.34 4.17,-0.98 1.04,-0.65 1.61,-1.62 1.61,-2.71 0,-0.16 -0.01,-0.31 -0.03,-0.46zm3.68 -2.82c-1.06,0 -2.21,0.62 -2.66,0.89 -0.38,0.24 -0.73,0.5 -0.99,0.74 -0.13,0.12 -0.23,0.23 -0.3,0.34 -0.23,-0.45 -0.59,-0.85 -1.06,-1.18 -0.73,-0.5 -1.7,-0.79 -2.65,-0.79 -2.71,0 -4.39,1.15 -5.33,2.11 -1.18,1.21 -1.86,2.85 -1.86,4.48 0,1.38 0.49,2.63 1.38,3.54 0.99,1.01 2.44,1.54 4.19,1.54 1.3,0 2.71,-0.55 3.96,-1.54 0.53,-0.42 1,-0.9 1.37,-1.38 0.06,2.41 1.18,2.92 2.12,2.92 0.93,0 2.19,-0.55 3.49,-1.51 -0.82,1.96 -1.83,2.95 -3.02,2.95 -0.91,0 -1.16,-0.56 -1.42,-1.16 -0.21,-0.46 -0.44,-0.99 -1.05,-0.99 -0.47,0 -0.91,0.33 -1.23,0.94 -0.28,0.53 -0.44,1.22 -0.44,1.91 0,1.02 0.34,1.94 0.95,2.61 0.75,0.83 1.87,1.25 3.33,1.25 1.69,0 3.21,-0.58 4.5,-1.73 1.11,-0.98 2.05,-2.37 2.8,-4.13 0.64,-1.49 1.12,-3.2 1.45,-5.09 0.35,-2 0.42,-3.65 0.42,-4.69 0,-1.14 -0.85,-2 -1.98,-2 -0.95,0 -2.04,0.61 -2.46,0.88 -0.33,0.2 -1.38,0.9 -1.43,1.44 -0.01,0.12 0.02,0.23 0.1,0.32 0.05,0.06 0.15,0.13 0.32,0.13 0.12,0 0.24,-0.03 0.36,-0.07 0.06,-0.02 0.15,-0.04 0.19,-0.05 0.03,0.05 0.07,0.19 0.07,0.57 0,0.99 0,2.12 -0.35,3.01l0 0.01 0 0.01c-0.05,0.13 -0.34,0.46 -0.79,0.8 -0.4,0.31 -0.73,0.47 -0.88,0.51 -0.01,-0.08 -0.02,-0.24 0.03,-0.58 0.05,-0.37 0.15,-0.85 0.26,-1.35 0.2,-0.95 0.44,-2.03 0.47,-3 0.05,-1.01 -0.13,-1.72 -0.56,-2.16 -0.31,-0.33 -0.75,-0.5 -1.3,-0.5zm-9.05 4.62c1.65,0 2.61,-1.77 1.25,-1.77 -0.9,0 -1.6,0.72 -1.97,1.65 0.26,0.06 0.49,0.12 0.72,0.12zm9.05 -4.3c1.3,0 1.6,1.08 1.54,2.32 -0.09,2.29 -1.31,5.28 -0.5,5.28 0.5,0 1.86,-1.04 2.03,-1.54 0.38,-0.95 0.38,-2.11 0.38,-3.13 0,-0.55 -0.09,-0.9 -0.38,-0.9 -0.16,0 -0.43,0.13 -0.57,0.13 -0.06,0 -0.1,-0.03 -0.09,-0.1 0.03,-0.49 2.17,-2.03 3.56,-2.03 0.99,0 1.66,0.76 1.66,1.68 0,5.31 -1.98,15.32 -8.85,15.32 -5.36,0 -4.23,-6.06 -2.61,-6.06 0.96,0 0.55,2.14 2.47,2.14 1.82,0 2.98,-1.97 3.74,-4.26 -1.36,1.19 -3.02,2.17 -4.21,2.17 -1.39,0 -1.8,-1.27 -1.8,-2.78 0,-0.39 0.03,-0.78 0.08,-1.18 -0.4,1.36 -2.94,3.96 -5.73,3.96 -7.86,0 -6.52,-11.02 1.62,-11.02 1.66,0 3.69,0.99 3.69,2.96 0,2 -2.09,3.36 -5.46,3.36 -0.26,0 -0.52,0.15 -0.52,0.58 0,0.73 0.73,1.14 2,1.14 1.6,0 2.85,-1.77 3.95,-1.77 0.31,0 0.47,0.15 0.5,0.39 0.25,-1.79 0.8,-3.51 0.8,-4.16 0,-0.38 -0.15,-0.49 -0.35,-0.49 -0.24,0 -0.54,0.16 -0.68,0.16 -0.05,0 -0.07,-0.02 -0.07,-0.08 0,-0.52 2.23,-2.09 3.8,-2.09z"></path>
   <path class="fil5" d="M66.54 20c-0.98,0 -1.77,-0.31 -2.23,-0.87 -0.39,-0.47 -0.52,-1.1 -0.37,-1.85l1.07 -5.83c0.06,-0.29 0.01,-0.38 -0.01,-0.41 -0.01,-0.01 -0.03,-0.03 -0.12,-0.03 -0.1,0 -0.24,0.04 -0.37,0.07 0.03,0.47 -0.12,0.93 -0.43,1.28 -0.31,0.36 -0.76,0.56 -1.25,0.56 -0.79,0 -1.28,-0.53 -1.71,-1 -0.33,-0.35 -0.61,-0.65 -0.94,-0.65 -0.02,0 -0.03,0 -0.04,0l-0.01 0c-0.18,0 -0.3,0.09 -0.3,0.21 0,0.39 0.69,0.81 1.43,1.27 1.2,0.74 2.69,1.66 2.69,3.17 0,1.27 -0.63,2.34 -1.81,3.07 -1.03,0.65 -2.45,1.01 -3.98,1.01 -1.46,0 -2.64,-0.34 -3.44,-0.98 -0.68,-0.55 -1.06,-1.28 -1.06,-2.08 0,-1.19 0.84,-2.08 1.95,-2.08 1.11,0 1.73,0.82 2.24,1.49 0.37,0.49 0.69,0.91 1.09,0.91 0.32,0 0.59,-0.22 0.59,-0.47 0,-0.36 -0.63,-0.75 -1.3,-1.17 -1.15,-0.73 -2.73,-1.72 -2.73,-3.44 0,-2.3 2.79,-3.53 4.8,-3.53 2.72,0 3.67,1.03 4,1.66 0.79,-0.71 2.62,-1.66 3.8,-1.66 0.54,0 0.98,0.19 1.27,0.54 0.36,0.42 0.48,1.04 0.34,1.8 -0.11,0.63 -0.34,1.57 -0.56,2.48 -0.24,0.99 -0.49,2.01 -0.6,2.65 -0.03,0.16 -0.02,0.28 0.02,0.33 0.04,0.04 0.1,0.06 0.2,0.06 0.24,0 0.59,-0.11 0.93,-0.22 0.35,-0.11 0.68,-0.22 0.93,-0.22 0.18,0 0.32,0.06 0.42,0.16 0.09,0.1 0.14,0.24 0.14,0.4 0,0.55 -0.54,1.41 -1.32,2.08 -0.57,0.48 -1.75,1.29 -3.33,1.29z"></path>
   <path class="fil6" d="M64.68 11.21c0.07,-0.02 0.14,-0.04 0.19,-0.04 0.01,0.04 0.01,0.12 -0.02,0.25l-0.76 4.17c-0.19,-1.41 -1.6,-2.27 -2.75,-2.98 -0.63,-0.39 -1.35,-0.84 -1.35,-1.13 0,-0.02 0.05,-0.05 0.14,-0.05l0.01 0 0.01 0c0.01,0 0.02,0 0.03,0 0.26,0 0.52,0.28 0.82,0.6 0.43,0.47 0.97,1.05 1.83,1.05 0.54,0 1.03,-0.22 1.38,-0.62 0.3,-0.34 0.47,-0.79 0.47,-1.25zm3.42 -2.72c-1.18,0 -2.89,0.86 -3.76,1.57 -0.42,-0.66 -1.47,-1.57 -4.04,-1.57 -1.09,0 -2.3,0.34 -3.22,0.9 -1.12,0.7 -1.74,1.69 -1.74,2.79 0,1.81 1.62,2.83 2.8,3.57 0.58,0.37 1.23,0.77 1.23,1.04 0,0.15 -0.18,0.31 -0.43,0.31 -0.32,0 -0.62,-0.39 -0.96,-0.85 -0.53,-0.69 -1.18,-1.56 -2.37,-1.56 -0.61,0 -1.15,0.25 -1.54,0.69 -0.37,0.42 -0.57,0.97 -0.57,1.56 0,0.83 0.41,1.64 1.12,2.2 0.82,0.67 2.05,1.02 3.54,1.02 1.56,0 3.01,-0.37 4.07,-1.03 0.69,-0.43 1.2,-0.97 1.51,-1.59 -0.07,0.67 0.08,1.25 0.44,1.7 0.49,0.59 1.33,0.92 2.36,0.92 1.21,0 2.43,-0.47 3.43,-1.33 0.83,-0.71 1.39,-1.59 1.39,-2.2 0,-0.26 -0.11,-0.42 -0.19,-0.51 -0.09,-0.1 -0.26,-0.21 -0.54,-0.21 -0.28,0 -0.62,0.11 -0.98,0.23 -0.31,0.09 -0.66,0.21 -0.88,0.21 -0.03,0 -0.06,-0.01 -0.07,-0.01 0,-0.02 -0.01,-0.08 0.01,-0.18l0.01 -0.01 0 -0.01c0.1,-0.63 0.35,-1.65 0.59,-2.63 0.22,-0.91 0.45,-1.86 0.57,-2.49 0.13,-0.81 0,-1.48 -0.38,-1.94 -0.33,-0.39 -0.81,-0.59 -1.4,-0.59zm0 0.32c1.08,0 1.69,0.81 1.45,2.15 -0.23,1.3 -0.95,3.89 -1.16,5.13 -0.08,0.44 0.09,0.58 0.38,0.58 0.52,0 1.39,-0.43 1.86,-0.43 1.33,0 -0.82,3.59 -4.09,3.59 -1.48,0 -2.79,-0.75 -2.44,-2.52l1.08 -5.83c0.08,-0.49 -0.06,-0.64 -0.3,-0.64 -0.17,0 -0.38,0.08 -0.54,0.12 0.12,0.93 -0.53,1.8 -1.51,1.8 -1.31,0 -1.76,-1.66 -2.65,-1.66 -0.02,0 -0.03,0 -0.05,0 -0.29,0 -0.46,0.18 -0.46,0.38 0,1.16 4.11,2.03 4.11,4.44 0,2.61 -2.72,3.91 -5.62,3.91 -5.51,0 -5.05,-4.81 -2.55,-4.81 1.82,0 2.23,2.41 3.33,2.41 0.41,0 0.76,-0.29 0.76,-0.64 0,-1.13 -4.04,-1.92 -4.04,-4.61 0,-2.21 2.7,-3.37 4.64,-3.37 2.45,0 3.61,0.87 3.95,1.79 0.59,-0.66 2.58,-1.79 3.85,-1.79z"></path>
   <path class="fil5" d="M68.13 7.94c-0.19,0 -0.38,-0.02 -0.56,-0.07 -1.19,-0.35 -1.88,-1.54 -1.57,-2.72 0.26,-0.97 1.14,-1.64 2.15,-1.64 0.19,0 0.39,0.02 0.58,0.07 0.56,0.15 1.03,0.52 1.33,1.03 0.3,0.51 0.38,1.1 0.23,1.66 -0.26,0.99 -1.14,1.67 -2.16,1.67l0 0z"></path>
   <path class="fil6" d="M68.15 3.34c-1.08,0 -2.03,0.73 -2.3,1.76 -0.34,1.27 0.4,2.56 1.67,2.92l0 0.01 0.01 0c0.2,0.05 0.4,0.07 0.6,0.07 1.09,0 2.04,-0.73 2.32,-1.78 0.16,-0.61 0.07,-1.24 -0.25,-1.79 -0.32,-0.55 -0.83,-0.94 -1.43,-1.11 -0.21,-0.05 -0.41,-0.08 -0.62,-0.08zm0 0.33c0.17,0 0.36,0.02 0.53,0.07 1.08,0.29 1.74,1.42 1.45,2.49 -0.24,0.93 -1.08,1.55 -2,1.55 -0.17,0 -0.34,-0.02 -0.52,-0.07 -1.1,-0.32 -1.74,-1.42 -1.45,-2.52 0.24,-0.92 1.08,-1.52 1.99,-1.52z"></path>
   <path class="fil5" d="M32.3 30.24c0.02,0 0.03,0 0.05,0 1.1,0 1.76,-0.95 1.76,-1.88 0,-0.66 -0.3,-1.11 -0.9,-1.35l-0.91 3.23zm-8.97 13.86c-1.54,0 -2.83,-0.57 -3.72,-1.66 -0.78,-0.96 -1.22,-2.28 -1.22,-3.72 0,-1.62 0.56,-3.23 1.54,-4.4 0.79,-0.94 2.22,-2.07 4.57,-2.07 0.55,0 0.82,0.22 0.82,0.66 0,0.36 -0.16,0.59 -0.32,0.81 -0.17,0.24 -0.33,0.46 -0.33,0.86 0,0.66 0.48,1.34 1.29,1.34 1.6,0 2.53,-2.65 3.6,-5.73 0.37,-1.06 0.75,-2.16 1.19,-3.23 -1.57,0.33 -2.99,1.2 -2.99,1.87 0,0.22 0.14,0.32 0.38,0.47 0.22,0.13 0.5,0.31 0.5,0.68 0,1.06 -2.15,2.05 -3.45,2.05 -0.83,0 -1.48,-0.17 -1.92,-0.51 -0.42,-0.33 -0.64,-0.8 -0.64,-1.36 0,-1.24 1.03,-2.75 2.7,-3.96 1.9,-1.38 4.35,-2.14 6.89,-2.16 1.38,-2.19 3.04,-3.26 5.07,-3.26 0.53,0 0.96,0.17 1.25,0.5 0.26,0.28 0.39,0.67 0.39,1.11 0,0.99 -0.69,2.06 -1.72,2.06 -0.61,0 -0.79,-0.36 -0.94,-0.64 -0.14,-0.26 -0.22,-0.39 -0.49,-0.4 -0.42,0 -0.92,0.37 -1.38,1 2,0.64 3.36,1.96 3.5,3.41 0.12,1.23 -0.66,2.36 -2.19,3.23 0.84,0.38 1.47,1.04 1.83,1.93 0.36,0.89 0.44,1.98 0.25,3.15 -0.22,1.36 -0.8,2.72 -1.59,3.73 -0.87,1.11 -1.92,1.72 -2.96,1.72 -1,0 -1.76,-0.31 -2.25,-0.94 -0.4,-0.51 -0.62,-1.23 -0.62,-2.08 0,-1.71 0.87,-3.65 1.63,-3.65 0.4,0 0.5,0.44 0.57,0.8 0.05,0.2 0.11,0.48 0.2,0.48 0.29,0 0.9,-0.92 0.9,-1.95 0,-0.34 -0.07,-0.82 -0.43,-1.18 -0.33,-0.34 -0.84,-0.52 -1.52,-0.54 -0.68,2.61 -1.52,5.55 -2.81,7.79 -1.47,2.55 -3.3,3.79 -5.58,3.79z"></path>
   <path class="fil6" d="M31.08 35.43c0.28,-0.93 0.53,-1.85 0.76,-2.74 1.03,0.06 1.58,0.52 1.66,1.35 0.04,0.43 -0.05,0.93 -0.26,1.37 -0.16,0.35 -0.33,0.53 -0.42,0.59 -0.04,-0.08 -0.07,-0.23 -0.09,-0.33 -0.04,-0.18 -0.08,-0.37 -0.15,-0.53 -0.17,-0.34 -0.43,-0.4 -0.58,-0.4 -0.37,0 -0.69,0.33 -0.92,0.69zm1.43 -5.36l0.8 -2.83c0.43,0.22 0.64,0.59 0.64,1.12 0,0.8 -0.53,1.62 -1.44,1.71zm-7.32 2.12c0.68,0 1.56,-0.24 2.29,-0.64 1.15,-0.63 1.32,-1.26 1.32,-1.57 0,-0.46 -0.35,-0.68 -0.58,-0.82 -0.23,-0.15 -0.3,-0.21 -0.3,-0.33 0,-0.5 1.13,-1.27 2.56,-1.64 -0.39,0.98 -0.73,1.98 -1.07,2.95 -0.54,1.54 -1.05,3 -1.62,4.04 -0.6,1.08 -1.18,1.58 -1.83,1.58 -0.71,0 -1.13,-0.6 -1.13,-1.18 0,-0.35 0.14,-0.54 0.3,-0.76 0.17,-0.24 0.36,-0.5 0.36,-0.91 0,-0.22 -0.07,-0.55 -0.43,-0.72 0.04,0 0.08,0 0.13,0zm12.1 -11.57c-2.06,0 -3.75,1.07 -5.16,3.26 -2.54,0.03 -4.99,0.81 -6.9,2.19 -1.7,1.24 -2.76,2.8 -2.76,4.09 0,0.62 0.24,1.13 0.7,1.48 0.28,0.21 0.62,0.37 1.03,0.46 -2.24,0.09 -3.62,1.19 -4.39,2.12 -1.01,1.2 -1.58,2.84 -1.58,4.5 0,1.48 0.45,2.83 1.26,3.83 0.92,1.12 2.25,1.71 3.84,1.71 1.23,0 2.36,-0.36 3.36,-1.09 0.88,-0.64 1.65,-1.55 2.36,-2.77 0.45,-0.8 0.85,-1.68 1.21,-2.6 -0.03,0.26 -0.05,0.51 -0.05,0.76 0,0.89 0.23,1.65 0.65,2.19 0.53,0.66 1.33,1 2.38,1 1.09,0 2.19,-0.64 3.09,-1.79 0.81,-1.03 1.4,-2.42 1.62,-3.8 0.2,-1.21 0.11,-2.33 -0.26,-3.24 -0.33,-0.83 -0.89,-1.47 -1.64,-1.88 1.42,-0.88 2.13,-2.01 2.01,-3.24 -0.07,-0.77 -0.48,-1.53 -1.19,-2.18 -0.58,-0.55 -1.34,-0.99 -2.2,-1.29 0.38,-0.47 0.78,-0.76 1.11,-0.76 0.16,0.01 0.21,0.07 0.34,0.32 0.15,0.29 0.38,0.72 1.09,0.72 1.12,0 1.88,-1.15 1.88,-2.22 0,-0.48 -0.15,-0.91 -0.43,-1.22 -0.22,-0.25 -0.64,-0.55 -1.37,-0.55zm-4.94 9.79c1.17,0 1.93,-1 1.93,-2.05 0,-0.84 -0.47,-1.34 -1.18,-1.56l-1.01 3.59c0.09,0.01 0.17,0.02 0.26,0.02zm4.94 -9.46c2.3,0 1.64,3.34 -0.08,3.34 -0.96,0 -0.63,-1.02 -1.43,-1.05 -0.52,0 -1.12,0.47 -1.64,1.26 3.64,1.04 5.34,4.47 1.18,6.57 4.65,1.56 1.8,10.35 -2.08,10.35 -4.38,0 -2.39,-6.35 -1.24,-6.35 0.52,0 0.3,1.29 0.77,1.29 0.85,0 2.38,-4 -1.18,-4 -1.45,5.56 -3.34,11.58 -8.26,11.58 -6.85,0 -6.22,-11.53 1.17,-11.53 0.47,0 0.66,0.17 0.66,0.5 0,0.65 -0.66,0.82 -0.66,1.67 0,0.74 0.55,1.5 1.46,1.5 2.35,0 3.25,-5.06 5.06,-9.33 -1.7,0.27 -3.42,1.23 -3.42,2.08 0,0.63 0.87,0.57 0.87,1.15 0,0.9 -1.97,1.89 -3.28,1.89 -5.42,0 -1.04,-7.67 7.11,-7.67 1.18,-1.89 2.74,-3.25 4.99,-3.25z"></path>
   <path class="fil5" d="M65.27 34.84c0.16,0.04 0.31,0.07 0.46,0.07 0.99,0 1.62,-0.71 1.62,-1.08 0,-0.08 -0.02,-0.13 -0.08,-0.18 -0.07,-0.06 -0.2,-0.09 -0.37,-0.09 -0.65,0 -1.25,0.48 -1.63,1.28zm-22.02 -0.92c-0.79,0 -1.26,0.75 -1.26,1.48 0,0.52 0.24,1.07 0.94,1.07 0.7,0 1.15,-0.57 1.27,-1.12 0.1,-0.45 0.02,-1.06 -0.55,-1.33 -0.11,-0.05 -0.26,-0.1 -0.4,-0.1zm27.36 -0.71c0.05,0.19 0.07,0.4 0.07,0.6 0,2.03 -2.09,3.34 -5.31,3.34 -0.22,0 -0.33,0.13 -0.33,0.38 0,0.82 1.21,0.91 1.73,0.91 0.77,0 1.45,-0.47 2.11,-0.92 0.56,-0.39 1.09,-0.75 1.61,-0.75 0.05,0 0.1,0 0.15,0.01 0.09,-0.59 0.24,-1.43 0.59,-3.27 0.07,-0.3 0.02,-0.39 0,-0.41 -0.01,-0.01 -0.02,-0.03 -0.08,-0.03 -0.11,0 -0.25,0.05 -0.38,0.09 -0.06,0.02 -0.11,0.03 -0.16,0.05zm12.72 14.04c-1.34,0 -2.36,-0.38 -3.05,-1.13 -0.55,-0.61 -0.85,-1.45 -0.85,-2.37 0,-1.38 0.66,-2.55 1.43,-2.55 0.48,0 0.67,0.44 0.86,0.85 0.25,0.58 0.52,1.18 1.47,1.18 1.28,0 2.35,-1.13 3.18,-3.36 -1.35,1.08 -2.67,1.71 -3.62,1.71 -1.54,0 -1.86,-1.51 -1.86,-2.79 0,-1.34 0.35,-2.84 0.6,-3.93 0.15,-0.65 0.28,-1.21 0.28,-1.49 0,-0.29 -0.1,-0.29 -0.17,-0.29 -0.1,0 -0.22,0.04 -0.33,0.07 0.08,0.85 -0.17,1.69 -0.68,2.27 -0.45,0.52 -1.06,0.79 -1.78,0.8 -1.21,0 -2,-0.73 -2.16,-1.97 -0.52,0.51 -1.42,1.68 -1.6,2.21 -0.18,0.62 -0.29,1.45 -0.37,2.06 -0.02,0.18 -0.04,0.34 -0.06,0.46 -0.2,1.08 -0.74,1.8 -1.65,2.2 -0.81,0.36 -1.82,0.4 -2.7,0.4 -0.11,0 -0.21,-0.04 -0.28,-0.12 -0.07,-0.09 -0.09,-0.2 -0.07,-0.32 0.15,-0.83 0.26,-1.5 0.36,-2.07 -0.97,1.16 -2.76,2.51 -4.77,2.51 -2.11,0 -3.71,-0.82 -4.53,-2.32 -0.67,1.02 -2.31,2.32 -4.2,2.32 -1.43,0 -2.64,-1.21 -3.6,-3.62l-0.24 1.25c-0.21,1.25 -3.29,2.37 -4.16,2.37 -0.18,0 -0.31,-0.05 -0.39,-0.15 -0.07,-0.07 -0.09,-0.18 -0.07,-0.29l0.07 -0.39c-0.83,0.54 -1.76,0.83 -2.65,0.83 -1.85,0 -1.89,-1.3 -1.91,-2.07 -0.02,-0.54 -0.05,-0.68 -0.17,-0.69 -0.08,0.05 -0.3,0.28 -0.49,0.49 -0.78,0.84 -2.08,2.25 -3.5,2.25 -0.82,0 -1.44,-0.31 -1.87,-0.91 -0.37,-0.52 -0.56,-1.26 -0.56,-2.15 0,-1.56 0.6,-3.47 1.56,-4.98 1.1,-1.72 2.46,-2.66 3.85,-2.66 0.57,0 1.65,0.16 2.6,1.24 0.41,-0.55 1.63,-1.24 2.47,-1.24 0.59,0 0.9,0.32 0.9,0.93 0,0.9 -0.23,2.05 -0.46,3.16 -0.21,1.07 -0.42,2.08 -0.42,2.86 0,0.44 0.08,0.71 0.22,0.71 0.14,0 0.35,-0.1 0.57,-0.21 0.11,-0.05 0.22,-0.1 0.34,-0.15l2.16 -11.85c0.06,-0.28 0.02,-0.37 0,-0.39 0,0 -0.02,-0.02 -0.08,-0.02 -0.12,0 -0.26,0.05 -0.39,0.09 -0.12,0.04 -0.22,0.07 -0.31,0.07 -0.09,0 -0.15,-0.04 -0.18,-0.07 -0.03,-0.04 -0.06,-0.1 -0.05,-0.19 0.05,-0.66 2.56,-2.12 3.94,-2.12 0.53,0 0.95,0.19 1.24,0.53 0.32,0.4 0.42,0.98 0.28,1.67l-1.43 7.45c1.11,-1.3 2.89,-2.47 4.56,-2.47 0.78,0 1.43,0.25 1.86,0.73 0.38,0.42 0.59,1 0.59,1.64 0,1.29 -0.86,2.63 -2.31,2.63 -1.07,0 -1.75,-0.7 -1.89,-1.93 -0.34,0.27 -0.68,0.63 -0.86,0.91 1.03,2.39 1.97,3.6 2.8,3.6 0.27,0 0.61,-0.14 0.93,-0.28 0.25,-0.11 0.51,-0.22 0.76,-0.27 -0.3,-1.57 0.15,-3.29 1.22,-4.63 1.24,-1.55 3.13,-2.4 5.33,-2.4 0.7,0 1.43,0.17 2.04,0.5 0.59,0.31 1.04,0.74 1.31,1.24 0.61,-0.7 2.55,-1.74 3.88,-1.74 0.51,0 1.08,0.03 1.39,0.4 0.21,0.26 0.26,0.64 0.16,1.16l-0.1 0.48c1.07,-1.36 2.17,-2.04 3.28,-2.04 1,0 1.77,0.56 2.11,1.52 0.7,-0.68 2.23,-1.52 3.37,-1.52 0.47,0 0.85,0.14 1.12,0.42 0.37,0.39 0.53,1.02 0.49,1.94 -0.04,0.9 -0.25,1.91 -0.44,2.8 -0.19,0.84 -0.39,1.8 -0.23,1.99 0,0.01 0.01,0.02 0.04,0.02 0.39,0 1.62,-0.94 1.76,-1.34 0.35,-0.88 0.35,-1.96 0.35,-2.91 0,-0.31 -0.03,-0.68 -0.19,-0.68 -0.06,0 -0.16,0.03 -0.24,0.05 -0.11,0.03 -0.22,0.07 -0.31,0.07 -0.1,0 -0.16,-0.05 -0.19,-0.08 -0.03,-0.04 -0.06,-0.1 -0.05,-0.19 0.04,-0.61 2.17,-2.07 3.52,-2.07 0.99,0 1.73,0.76 1.73,1.75 0,2.45 -0.46,6.15 -1.76,9.17 -0.7,1.65 -1.58,2.94 -2.6,3.85 -1.2,1.06 -2.59,1.6 -4.15,1.6z"></path>
   <path class="fil6" d="M56.19 34.85c0.13,-0.19 0.33,-0.41 0.55,-0.61 0.22,1.14 0.93,1.79 2.01,1.79 0.73,0 1.32,-0.32 1.74,-0.79 -0.26,0.83 -0.32,1.7 -0.19,2.53 -0.21,0.06 -0.42,0.15 -0.63,0.24 -0.31,0.13 -0.63,0.27 -0.87,0.27 -0.52,0 -1.39,-0.6 -2.61,-3.43zm-13.26 1.45c-0.72,0 -0.78,-0.69 -0.78,-0.9 0,-0.55 0.34,-1.32 1.1,-1.32 0.12,0 0.25,0.05 0.34,0.08 0.47,0.24 0.55,0.75 0.45,1.15 -0.11,0.5 -0.5,0.99 -1.11,0.99zm22.58 -1.57c0.35,-0.64 0.86,-1 1.39,-1 0.19,0 0.26,0.04 0.27,0.05 0.01,0.01 0.02,0.02 0.02,0.05 0,0.27 -0.57,0.91 -1.46,0.91 -0.07,0 -0.14,0 -0.22,-0.01zm5.29 -1.41l0.02 -0.01c0.1,-0.03 0.2,-0.06 0.28,-0.07 0,0.04 0,0.11 -0.03,0.23l0 0 0 0.01c-0.32,1.69 -0.47,2.54 -0.57,3.13 0,0 -0.01,0 -0.01,0 -0.57,0 -1.12,0.37 -1.7,0.77 -0.64,0.44 -1.3,0.9 -2.02,0.9 -0.47,0 -1.57,-0.08 -1.57,-0.75 0,-0.2 0.08,-0.22 0.17,-0.22 1.61,0 2.97,-0.32 3.94,-0.93 0.99,-0.62 1.53,-1.53 1.53,-2.57 0,-0.17 -0.01,-0.33 -0.04,-0.49zm-16.84 -9.8c-0.96,0 -2.11,0.59 -2.56,0.84 -0.56,0.32 -1.5,0.92 -1.55,1.43 -0.01,0.15 0.05,0.26 0.1,0.3 0.04,0.05 0.14,0.13 0.3,0.13 0.11,0 0.23,-0.03 0.36,-0.08 0.09,-0.03 0.21,-0.06 0.29,-0.07 0,0.04 0,0.1 -0.03,0.2l0 0 0 0.01 -2.15 11.77c-0.09,0.04 -0.17,0.08 -0.26,0.12 -0.17,0.08 -0.37,0.17 -0.47,0.19 -0.03,-0.05 -0.08,-0.18 -0.08,-0.55 0,-0.76 0.2,-1.77 0.41,-2.83 0.23,-1.12 0.46,-2.27 0.46,-3.19 0,-0.7 -0.39,-1.1 -1.06,-1.1 -0.67,0 -1.4,0.39 -1.68,0.56 -0.19,0.11 -0.54,0.33 -0.8,0.6 -0.96,-1 -2.01,-1.16 -2.59,-1.16 -1.44,0 -2.86,0.98 -3.99,2.74 -0.98,1.53 -1.58,3.48 -1.58,5.07 0,0.92 0.2,1.7 0.59,2.25 0.45,0.63 1.14,0.97 2,0.97 1.49,0 2.82,-1.44 3.62,-2.3 0.12,-0.13 0.25,-0.27 0.35,-0.37 0.02,0.12 0.02,0.32 0.03,0.46 0.01,0.43 0.02,0.97 0.29,1.42 0.32,0.54 0.92,0.82 1.78,0.82 0.81,0 1.65,-0.24 2.43,-0.68l-0.01 0.04c-0.03,0.16 0.01,0.31 0.1,0.43 0.08,0.09 0.23,0.21 0.52,0.21 0.5,0 1.5,-0.31 2.38,-0.74 0.81,-0.39 1.81,-1.02 1.94,-1.78l0.14 -0.71c0.95,2.14 2.14,3.23 3.54,3.23 1.21,0 2.21,-0.51 2.84,-0.93 0.53,-0.36 1.01,-0.81 1.34,-1.26 0.38,0.58 0.88,1.07 1.49,1.43 0.84,0.5 1.87,0.76 3.06,0.76 1.83,0 3.47,-1.09 4.51,-2.16 -0.07,0.45 -0.16,0.95 -0.26,1.52 -0.03,0.17 0.01,0.33 0.1,0.45 0.1,0.12 0.25,0.19 0.41,0.19 0.9,0 1.93,-0.05 2.77,-0.42 0.95,-0.42 1.53,-1.2 1.74,-2.32l0 0 0 0c0.02,-0.13 0.04,-0.29 0.06,-0.47 0.08,-0.6 0.18,-1.42 0.37,-2.03 0.15,-0.44 0.83,-1.36 1.33,-1.91 0.26,1.13 1.07,1.78 2.27,1.78 0.77,-0.01 1.42,-0.3 1.9,-0.85 0.51,-0.59 0.78,-1.41 0.74,-2.26 0.05,-0.02 0.1,-0.03 0.14,-0.03 0.01,0.03 0.01,0.07 0.01,0.13 0,0.27 -0.12,0.82 -0.27,1.45 -0.25,1.1 -0.6,2.61 -0.6,3.97 0,2.44 1.1,2.96 2.02,2.96 0.87,0 2.04,-0.51 3.25,-1.39 -0.76,1.8 -1.71,2.7 -2.81,2.7 -0.85,0 -1.08,-0.52 -1.32,-1.07 -0.2,-0.45 -0.42,-0.95 -1.01,-0.95 -0.45,0 -0.87,0.32 -1.18,0.89 -0.26,0.51 -0.41,1.17 -0.41,1.82 0,0.96 0.32,1.84 0.89,2.48 0.72,0.78 1.79,1.18 3.17,1.18 1.6,0 3.03,-0.55 4.25,-1.63 1.05,-0.93 1.94,-2.25 2.65,-3.91 0.6,-1.41 1.06,-3.02 1.37,-4.81 0.33,-1.89 0.4,-3.45 0.4,-4.43 0,-1.09 -0.81,-1.91 -1.89,-1.91 -0.9,0 -1.93,0.58 -2.33,0.83 -0.4,0.25 -1.31,0.87 -1.36,1.38 -0.01,0.12 0.02,0.23 0.1,0.32 0.05,0.06 0.15,0.13 0.31,0.13 0.12,0 0.23,-0.04 0.35,-0.07 0.05,-0.02 0.12,-0.04 0.17,-0.04 0.02,0.04 0.06,0.18 0.06,0.51 0,0.94 0,1.99 -0.34,2.84l0 0.01 0 0c-0.04,0.1 -0.27,0.39 -0.73,0.75 -0.36,0.27 -0.66,0.43 -0.81,0.47 -0.01,-0.08 -0.01,-0.23 0.03,-0.53 0.05,-0.34 0.14,-0.79 0.25,-1.26 0.19,-0.9 0.41,-1.91 0.44,-2.84 0.05,-0.96 -0.13,-1.63 -0.53,-2.05 -0.3,-0.32 -0.72,-0.48 -1.24,-0.48 -0.83,0 -1.71,0.41 -2.16,0.65 -0.44,0.23 -0.84,0.5 -1.15,0.76 -0.15,-0.33 -0.35,-0.61 -0.6,-0.83 -0.42,-0.38 -0.96,-0.58 -1.57,-0.58 -0.63,0 -1.27,0.21 -1.88,0.63 -0.37,0.25 -0.75,0.58 -1.11,0.99 0.07,-0.5 0,-0.88 -0.23,-1.15 -0.35,-0.43 -0.96,-0.47 -1.51,-0.47 -0.72,0 -1.68,0.3 -2.62,0.8 -0.23,0.13 -0.83,0.47 -1.23,0.85 -0.29,-0.46 -0.72,-0.84 -1.26,-1.13 -0.64,-0.33 -1.39,-0.52 -2.12,-0.52 -2.25,0 -4.19,0.88 -5.45,2.46 -0.15,0.18 -0.28,0.37 -0.4,0.57 0.02,-0.17 0.03,-0.33 0.03,-0.49 0,-0.68 -0.22,-1.3 -0.63,-1.75 -0.46,-0.51 -1.15,-0.79 -1.98,-0.79 -0.94,0 -1.97,0.35 -2.96,1.01 -0.47,0.31 -0.93,0.69 -1.33,1.1l1.33 -6.89c0.14,-0.74 0.03,-1.36 -0.33,-1.8 -0.31,-0.39 -0.78,-0.59 -1.36,-0.59zm-11.03 13.11c1.45,0 2.05,-2.16 0.79,-2.76 -0.14,-0.06 -0.3,-0.11 -0.47,-0.11 -1.67,0 -1.99,2.87 -0.32,2.87zm22.8 -1.56c1.56,0 2.46,-1.67 1.17,-1.67 -0.85,0 -1.5,0.68 -1.86,1.56 0.25,0.06 0.47,0.11 0.69,0.11zm4.7 -2c-0.01,0 -0.02,0 -0.03,0 0.08,0.23 0.12,0.47 0.12,0.74 0,1.89 -1.97,3.18 -5.15,3.18 -0.25,0 -0.49,0.13 -0.49,0.54 0,0.69 0.68,1.07 1.89,1.07 1.5,0 2.68,-1.67 3.72,-1.67 0.12,0 0.21,0.02 0.28,0.06 0.09,-0.6 0.24,-1.41 0.62,-3.45 0.11,-0.5 -0.05,-0.63 -0.24,-0.63 -0.25,0 -0.55,0.16 -0.72,0.16zm-16.47 -9.22c1.04,0 1.61,0.76 1.36,2l-1.56 8.12c0.96,-1.39 2.93,-2.95 4.85,-2.95 3.31,0 2.74,4.68 0.14,4.68 -1.15,0 -1.7,-0.85 -1.75,-2.08 -0.44,0.3 -0.96,0.82 -1.18,1.2 0.96,2.25 1.97,3.78 2.98,3.78 0.58,0 1.32,-0.53 1.88,-0.57 -0.69,-3.04 1.6,-7.01 6.36,-7.01 1.3,0 2.84,0.64 3.32,1.92 0.16,-0.53 2.39,-1.92 3.91,-1.92 0.87,0 1.64,0.11 1.39,1.37l-0.24 1.2c1.31,-1.91 2.51,-2.57 3.58,-2.57 1.13,0 1.8,0.75 2.03,1.68 0.5,-0.63 2.2,-1.68 3.45,-1.68 1.23,0 1.5,1.01 1.45,2.19 -0.09,2.16 -1.24,4.98 -0.47,4.98 0.47,0 1.75,-0.98 1.92,-1.45 0.35,-0.9 0.35,-2 0.35,-2.96 0,-0.52 -0.08,-0.85 -0.35,-0.85 -0.15,0 -0.41,0.12 -0.55,0.12 -0.06,0 -0.09,-0.02 -0.08,-0.09 0.02,-0.46 2.05,-1.91 3.36,-1.91 0.94,0 1.57,0.71 1.57,1.58 0,5.01 -1.87,14.46 -8.35,14.46 -5.07,0 -4,-5.72 -2.47,-5.72 0.91,0 0.52,2.02 2.33,2.02 1.72,0 2.82,-1.86 3.53,-4.02 -1.29,1.12 -2.85,2.05 -3.97,2.05 -1.31,0 -1.7,-1.2 -1.7,-2.63 0,-2.13 0.88,-4.62 0.88,-5.42 0,-0.35 -0.15,-0.45 -0.33,-0.45 -0.17,0 -0.36,0.07 -0.5,0.12 0.18,1.39 -0.59,3 -2.29,3.01 -1.09,0 -1.97,-0.62 -2.03,-2.13 -0.43,0.3 -1.67,1.83 -1.88,2.49 -0.25,0.82 -0.36,2 -0.44,2.55 -0.41,2.24 -2.33,2.46 -4.19,2.46 -0.14,0 -0.22,-0.11 -0.19,-0.25 0.24,-1.35 0.38,-2.17 0.47,-2.74 -0.85,1.31 -2.86,2.99 -5.04,2.99 -2.37,0 -3.85,-1.06 -4.52,-2.5 -0.52,1.01 -2.22,2.5 -4.21,2.5 -1.97,0 -3.1,-2.52 -3.64,-4.05l-0.36 1.81c-0.19,1.12 -3.18,2.24 -4,2.24 -0.24,0 -0.33,-0.11 -0.3,-0.25l0.15 -0.79c-0.77,0.58 -1.78,1.04 -2.89,1.04 -2.68,0 -1.2,-2.76 -2.1,-2.76 -0.3,0 -2.08,2.73 -3.97,2.73 -4.6,0 -1.48,-10.37 2.98,-10.37 0.77,0 1.78,0.3 2.63,1.37 0.11,-0.47 1.53,-1.37 2.44,-1.37 0.43,0 0.74,0.19 0.74,0.77 0,1.75 -0.88,4.4 -0.88,6.02 0,0.65 0.16,0.87 0.38,0.87 0.27,0 0.65,-0.25 1.05,-0.4l2.18 -11.94c0.11,-0.49 -0.05,-0.6 -0.24,-0.6 -0.25,0 -0.56,0.16 -0.7,0.16 -0.05,0 -0.08,-0.02 -0.07,-0.08 0.03,-0.49 2.38,-1.97 3.78,-1.97z"></path>
  </g>
 </g>
</svg>
