<svg id="Grupo_761" data-name="Grupo 761" xmlns="http://www.w3.org/2000/svg" xmlns:xlink="http://www.w3.org/1999/xlink" width="139.662" height="43" viewBox="0 0 139.662 43">
  <defs>
    <clipPath id="clip-path">
      <rect id="Rectángulo_123" data-name="Rectángulo 123" width="139.662" height="43" fill="none"/>
    </clipPath>
    <clipPath id="clip-path-2">
      <path id="Trazado_92" data-name="Trazado 92" d="M350.005,151.474l9.658,9.715,3.375-3.358-11.4-6.691a1.23,1.23,0,0,0-.626-.172,1.258,1.258,0,0,0-1,.507" transform="translate(-350.005 -150.967)" fill="none"/>
    </clipPath>
    <linearGradient id="linear-gradient" x1="-1.521" y1="2.106" x2="-1.517" y2="2.106" gradientUnits="objectBoundingBox">
      <stop offset="0" stop-color="#32a071"/>
      <stop offset="0.068" stop-color="#2da771"/>
      <stop offset="0.476" stop-color="#15cf74"/>
      <stop offset="0.801" stop-color="#06e775"/>
      <stop offset="1" stop-color="#00f076"/>
    </linearGradient>
    <clipPath id="clip-path-3">
      <path id="Trazado_93" data-name="Trazado 93" d="M346.784,158.481v17.9a1.227,1.227,0,0,0,.22.709l9.679-9.631-9.658-9.715a1.225,1.225,0,0,0-.241.736" transform="translate(-346.784 -157.745)" fill="none"/>
    </clipPath>
    <linearGradient id="linear-gradient-2" x1="-2.584" y1="1.61" x2="-2.577" y2="1.61" gradientUnits="objectBoundingBox">
      <stop offset="0" stop-color="#00a0ff"/>
      <stop offset="0.007" stop-color="#00a1ff"/>
      <stop offset="0.26" stop-color="#00beff"/>
      <stop offset="0.512" stop-color="#00d2ff"/>
      <stop offset="0.76" stop-color="#00dfff"/>
      <stop offset="1" stop-color="#00e3ff"/>
    </linearGradient>
    <clipPath id="clip-path-4">
      <path id="Trazado_94" data-name="Trazado 94" d="M479.163,246.108l3.317,3.336,3.908-2.293a1.242,1.242,0,0,0,0-2.142l-3.851-2.259Z" transform="translate(-479.163 -242.75)" fill="none"/>
    </clipPath>
    <linearGradient id="linear-gradient-3" x1="-4.957" y1="3.017" x2="-4.947" y2="3.017" gradientUnits="objectBoundingBox">
      <stop offset="0" stop-color="#ffe000"/>
      <stop offset="0.409" stop-color="#ffbd00"/>
      <stop offset="0.775" stop-color="orange"/>
      <stop offset="1" stop-color="#ff9c00"/>
    </linearGradient>
    <clipPath id="clip-path-5">
      <path id="Trazado_95" data-name="Trazado 95" d="M349.73,297.287a1.242,1.242,0,0,0,1.65.362l11.346-6.657-3.317-3.336Z" transform="translate(-349.73 -287.656)" fill="none"/>
    </clipPath>
    <linearGradient id="linear-gradient-4" x1="-1.473" y1="1.533" x2="-1.469" y2="1.533" gradientUnits="objectBoundingBox">
      <stop offset="0" stop-color="#ff3a44"/>
      <stop offset="1" stop-color="#c31162"/>
    </linearGradient>
  </defs>
  <g id="Grupo_163" data-name="Grupo 163">
    <g id="Grupo_162" data-name="Grupo 162" clip-path="url(#clip-path)">
      <path id="Trazado_84" data-name="Trazado 84" d="M129.4,43H10.258A10.258,10.258,0,0,1,0,32.742V10.258A10.258,10.258,0,0,1,10.258,0H129.4a10.258,10.258,0,0,1,10.258,10.258V32.742A10.258,10.258,0,0,1,129.4,43" fill="#070707"/>
      <path id="Trazado_85" data-name="Trazado 85" d="M677.305,158.934a2.078,2.078,0,0,1-.572,1.537,2.232,2.232,0,0,1-1.691.681,2.405,2.405,0,1,1,0-4.81,2.375,2.375,0,0,1,.945.193,1.9,1.9,0,0,1,.72.514l-.4.4a1.555,1.555,0,0,0-1.26-.546,1.839,1.839,0,1,0,1.286,3.164,1.449,1.449,0,0,0,.386-.933h-1.672v-.553h2.231a1.951,1.951,0,0,1,.032.347" transform="translate(-622.35 -144.651)" fill="#fff"/>
      <path id="Trazado_86" data-name="Trazado 86" d="M748.946,158.286h-2.1v1.46h1.891v.553H746.85v1.46h2.1v.566h-2.688v-4.6h2.688Z" transform="translate(-690.454 -145.926)" fill="#fff"/>
      <path id="Trazado_87" data-name="Trazado 87" d="M792.332,162.325h-.592v-4.039h-1.286v-.566h3.164v.566h-1.286Z" transform="translate(-731.345 -145.927)" fill="#fff"/>
      <rect id="Rectángulo_122" data-name="Rectángulo 122" width="0.591" height="4.604" transform="translate(64.562 11.794)" fill="#fff"/>
      <path id="Trazado_88" data-name="Trazado 88" d="M883.149,162.325h-.592v-4.039h-1.286v-.566h3.164v.566h-1.286Z" transform="translate(-815.371 -145.927)" fill="#fff"/>
      <path id="Trazado_89" data-name="Trazado 89" d="M953.518,160.454a2.391,2.391,0,0,1-3.376,0,2.487,2.487,0,0,1,0-3.414,2.383,2.383,0,0,1,3.373,0,2.48,2.48,0,0,1,0,3.411m-2.939-.386a1.77,1.77,0,0,0,2.5,0,1.962,1.962,0,0,0,0-2.643,1.77,1.77,0,0,0-2.5,0,1.964,1.964,0,0,0,0,2.643" transform="translate(-878.465 -144.651)" fill="#fff"/>
      <path id="Trazado_90" data-name="Trazado 90" d="M1023.855,162.325v-4.6h.72l2.238,3.582h.026l-.026-.887v-2.694h.592v4.6h-.618l-2.341-3.755h-.026l.026.887v2.868Z" transform="translate(-947.293 -145.927)" fill="#fff"/>
      <path id="Trazado_91" data-name="Trazado 91" d="M690.256,264.438a3.291,3.291,0,0,0-2.329.936,3.323,3.323,0,0,0,.116,4.76,3.363,3.363,0,0,0,4.319.091,3.22,3.22,0,0,0,1.17-2.524,3.215,3.215,0,0,0-3.276-3.264m0,5.242A1.983,1.983,0,1,1,692.1,267.7a1.888,1.888,0,0,1-1.842,1.978m-7.147-5.242a3.338,3.338,0,0,0-1.83.534,3.309,3.309,0,0,0-.485,5.066,3.363,3.363,0,0,0,4.307.276,3.216,3.216,0,0,0,1.284-2.613,3.3,3.3,0,0,0-.444-1.679,3.245,3.245,0,0,0-2.832-1.585m0,5.242a1.983,1.983,0,1,1,1.842-1.978,1.888,1.888,0,0,1-1.842,1.978m-8.5-4.24v1.385h3.313a2.89,2.89,0,0,1-.754,1.743,3.392,3.392,0,0,1-2.559,1.014,3.685,3.685,0,0,1,0-7.368,3.531,3.531,0,0,1,2.5.989l.977-.977a4.831,4.831,0,0,0-3.474-1.4,5.14,5.14,0,0,0-2.619.719,5.013,5.013,0,0,0,.143,8.782,5.135,5.135,0,0,0,2.476.637,4.634,4.634,0,0,0,3.536-1.422,4.575,4.575,0,0,0,1.2-3.239,4.506,4.506,0,0,0-.074-.865h-4.661Zm34.769,1.075a2.966,2.966,0,0,0-4.718-1.4A3.271,3.271,0,0,0,703.5,267.7a3.194,3.194,0,0,0,3.239,3.264,3.247,3.247,0,0,0,2.72-1.446l-1.113-.742a1.864,1.864,0,0,1-1.607.9,1.66,1.66,0,0,1-1.583-.989l4.364-1.805Zm-4.451,1.088a1.79,1.79,0,0,1,1.706-1.9,1.264,1.264,0,0,1,1.212.692l-1.524.633Zm-3.548,3.165h1.434v-9.594h-1.434Zm-2.349-5.6h-.049a2.262,2.262,0,0,0-1.719-.729,3.053,3.053,0,0,0-2.042.818,3.3,3.3,0,0,0,.335,5.163,3.014,3.014,0,0,0,1.707.546,2.225,2.225,0,0,0,1.719-.742h.049v.47c0,1.249-.668,1.916-1.743,1.916a1.806,1.806,0,0,1-1.644-1.162l-1.249.519a3.11,3.11,0,0,0,2.893,1.929c1.682,0,3.1-.989,3.1-3.4v-5.86h-1.36Zm-1.644,4.512a1.985,1.985,0,0,1,0-3.956,1.994,1.994,0,0,1,0,3.956m18.71-8.506h-3.431v9.593h1.432v-3.635h2a3.279,3.279,0,0,0,2.419-1.051,2.92,2.92,0,0,0,.019-3.836,3.275,3.275,0,0,0-2.439-1.072m.037,4.624h-2.036V262.51h2.036a1.645,1.645,0,1,1,0,3.288m8.849-1.378a2.689,2.689,0,0,0-2.555,1.469l1.271.531a1.356,1.356,0,0,1,1.308-.7,1.379,1.379,0,0,1,1.506,1.234v.1a3.167,3.167,0,0,0-1.493-.37,3.474,3.474,0,0,0-1.669.41,1.971,1.971,0,0,0-.263,3.376,2.629,2.629,0,0,0,1.548.484,2.02,2.02,0,0,0,1.827-.938h.049v.741h1.382v-3.678a2.462,2.462,0,0,0-1.156-2.2,3.319,3.319,0,0,0-1.757-.457m-.173,5.258c-.469,0-1.123-.234-1.123-.815,0-.74.815-1.024,1.518-1.024a2.551,2.551,0,0,1,1.308.321,1.736,1.736,0,0,1-1.7,1.518m8.121-5.048-.68,1.722-.962,2.437h-.049l-1.7-4.159h-1.543l1.232,2.8,1.323,3.009-1.456,3.234h1.493l2.793-6.418,1.144-2.629Zm-12.9,6.138h1.432v-9.593h-1.432Z" transform="translate(-619.403 -241.324)" fill="#fff"/>
    </g>
  </g>
  <g id="Grupo_165" data-name="Grupo 165" transform="translate(26.173 11.289)">
    <g id="Grupo_164" data-name="Grupo 164" clip-path="url(#clip-path-2)">
      <rect id="Rectángulo_124" data-name="Rectángulo 124" width="16.171" height="16.559" transform="matrix(0.635, -0.773, 0.773, 0.635, -5.014, 6.102)" fill="url(#linear-gradient)"/>
    </g>
  </g>
  <g id="Grupo_167" data-name="Grupo 167" transform="translate(25.932 11.796)">
    <g id="Grupo_166" data-name="Grupo 166" clip-path="url(#clip-path-3)">
      <rect id="Rectángulo_125" data-name="Rectángulo 125" width="10.013" height="19.404" transform="translate(-0.114 0.001) rotate(-0.338)" fill="url(#linear-gradient-2)"/>
    </g>
  </g>
  <g id="Grupo_169" data-name="Grupo 169" transform="translate(35.831 18.152)">
    <g id="Grupo_168" data-name="Grupo 168" clip-path="url(#clip-path-4)">
      <rect id="Rectángulo_126" data-name="Rectángulo 126" width="7.303" height="8.542" transform="translate(-0.522 6.653) rotate(-85.515)" fill="url(#linear-gradient-3)"/>
    </g>
  </g>
  <g id="Grupo_171" data-name="Grupo 171" transform="translate(26.152 21.51)">
    <g id="Grupo_170" data-name="Grupo 170" clip-path="url(#clip-path-5)">
      <rect id="Rectángulo_127" data-name="Rectángulo 127" width="16.547" height="15.804" transform="matrix(0.833, -0.553, 0.553, 0.833, -4.765, 3.163)" fill="url(#linear-gradient-4)"/>
    </g>
  </g>
</svg>
