<?xml version="1.0" encoding="UTF-8"?>
<!-- Creator: CorelDRAW 2020 (64-Bit) -->
<svg xmlns="http://www.w3.org/2000/svg" xmlns:xlink="http://www.w3.org/1999/xlink" xmlns:xodm="http://www.corel.com/coreldraw/odm/2003" xml:space="preserve" width="80px" height="40px" version="1.1" style="shape-rendering:geometricPrecision; text-rendering:geometricPrecision; image-rendering:optimizeQuality; fill-rule:evenodd; clip-rule:evenodd" viewBox="0 0 80 40">
 <defs>
  <style type="text/css">
   <![CDATA[
    .fil0 {fill:#F6A2BC}
    .fil2 {fill:#FFFEFE}
    .fil1 {fill:white}
   ]]>
  </style>
 </defs>
 <g id="Capa_x0020_1">
  <metadata id="CorelCorpID_0Corel-Layer"></metadata>
  <g id="_2981509955536">
   <path class="fil0" d="M46.44 30.27l0 0zm17.53 -2.73l0 0.48c-0.02,0.29 -0.08,0.58 -0.17,0.86 -0.19,0.56 -0.63,1.2 -1.09,1.56 -0.08,0.06 -0.22,0.18 -0.31,0.21 0.03,0.05 0.13,0.11 0.2,0.16 0.06,0.05 0.14,0.1 0.2,0.16 0.66,0.61 0.87,1.42 0.52,2.27 -0.19,0.44 -0.46,0.8 -0.75,1.17 -0.55,0.71 -0.49,0.27 -0.71,1.16 -0.12,0.48 -0.39,0.89 -0.85,1.06 -0.4,0.16 -0.46,0.06 -0.79,0.06 0,0.64 -0.04,1.27 -0.42,1.77 -0.07,0.09 -0.14,0.19 -0.23,0.27 -0.45,0.38 -0.75,0.44 -1.35,0.44 -1.32,0 -1.74,-1.09 -1.46,-2.18 0.12,-0.49 0.31,-0.61 0.01,-0.91 -0.1,-0.1 -0.23,-0.17 -0.38,-0.24 -0.42,-0.2 -0.83,-0.37 -1.21,-0.64l-0.94 -0.9c-0.18,-0.23 -0.38,-0.46 -0.54,-0.7 -0.56,-0.84 -0.65,-1.47 -0.77,-1.68 -0.13,0.25 -0.24,0.52 -0.46,0.7 -0.11,0.09 -0.21,0.18 -0.33,0.25 -1.09,0.69 -3,0.84 -4.23,0.32 -0.29,-0.13 -0.53,-0.25 -0.75,-0.45 -0.05,-0.04 -0.09,-0.07 -0.13,-0.11 -0.06,-0.06 -0.14,-0.19 -0.21,-0.24 0,0.43 -0.23,1.14 -0.41,1.53 -0.06,0.14 -0.14,0.27 -0.21,0.4 -0.14,0.26 -0.33,0.53 -0.52,0.75 -0.86,0.96 -1.99,1.56 -3.27,1.81 -1.06,0.21 -2.15,0.1 -3.11,-0.24 -1.25,-0.45 -2.14,-1.25 -2.91,-2.28 -0.21,-0.28 -0.6,-1.04 -0.64,-1.09 0,0.16 0.05,0.45 0.07,0.61 0.11,0.9 0.35,1.73 0.68,2.56 0.3,0.75 0.32,1.55 -0.15,2.23 -0.64,0.9 -1.96,1.32 -3.19,1.33l-0.06 0 -0.04 0c-0.84,-0.01 -1.86,-0.24 -2.38,-0.59 -0.63,-0.42 -1.11,-0.93 -1.11,-1.79 0,-0.54 0.2,-0.97 0.35,-1.4 0.1,-0.29 0.34,-1 0.35,-1.28 -0.4,0.46 -0.74,0.75 -1.34,0.99 -1.47,0.59 -3.33,0.52 -4.54,-0.6 -0.06,-0.06 -0.05,-0.08 -0.11,-0.12 -0.15,0.22 -0.44,0.47 -0.68,0.63 -0.89,0.6 -2.01,0.79 -3.16,0.66 -0.74,-0.09 -1.36,-0.28 -1.96,-0.67 -0.23,-0.16 -0.5,-0.41 -0.65,-0.66 -0.41,-0.7 -0.36,-1.43 -0.07,-2.16 0.11,-0.29 0.21,-0.61 0.29,-0.91 0.32,-1.17 0.48,-3.27 -0.08,-4.45 -0.28,-0.61 -0.87,-1.35 -0.47,-2.23 0.68,-1.52 3.6,-1.61 4.67,-1.04 0.18,0.1 0.38,0.24 0.52,0.38l0.08 0.08c0.09,0.09 0.21,0.27 0.29,0.32 0.11,-0.07 0.17,-0.17 0.27,-0.25 0.49,-0.41 0.97,-0.73 1.59,-0.92 0.56,-0.17 1.31,-0.19 1.89,-0.04 0.63,0.15 0.93,0.39 1.39,0.75 0.47,0.37 0.87,1.05 1.08,1.61l0.05 0.12c0.1,-0.4 0.18,-0.6 0.39,-0.88l0.15 -0.19c0.09,-0.11 0.21,-0.19 0.33,-0.28 1.53,-1.14 5.1,-0.82 5.1,1.59 0,0.43 -0.28,1.08 -0.62,1.31 0.05,0.07 0.12,0.14 0.19,0.22 0.2,0.25 0.39,0.69 0.43,0.73 0.01,-0.14 0.14,-0.49 0.19,-0.62 0.25,-0.62 0.59,-1.24 1.04,-1.72 0.05,-0.05 0.05,-0.07 0.1,-0.12 0.03,-0.04 0.06,-0.06 0.09,-0.1 0.14,-0.13 0.27,-0.26 0.41,-0.37 0.08,-0.06 0.14,-0.11 0.23,-0.18 0.22,-0.17 0.45,-0.33 0.7,-0.47 1.08,-0.6 2.46,-1.05 3.8,-0.88 0.26,0.03 0.45,0.07 0.67,0.12 0.2,0.05 0.4,0.15 0.59,0.19 -0.01,-0.11 -0.09,-0.29 -0.11,-0.41 -0.09,-0.43 -0.03,-0.9 0.13,-1.26 0.2,-0.48 0.52,-0.83 0.91,-1.12 0.38,-0.29 0.84,-0.52 1.35,-0.67 0.73,-0.22 2.03,-0.45 2.77,-0.01 0.07,0.04 0.13,0.07 0.19,0.12 0.06,0.04 0.12,0.09 0.17,0.14l0.22 0.25c0.33,0.44 0.51,1.13 0.64,1.68 0.02,0.06 0.02,0.08 0.03,0.13 0.01,0.04 0.01,0.02 0.02,0.06 0.02,0.03 0.01,0.02 0.03,0.04 0,-0.13 0.02,-0.21 0.04,-0.31 0.25,-1.47 0.61,-2.55 2.49,-2.55 1.09,0 2.26,0.25 3.07,0.96 0,0.01 0.02,0.02 0.02,0.03l0.02 0.02c0.61,0.59 0.99,1.34 0.76,2.23l-0.11 0.34c0.34,-0.22 0.88,-0.41 1.33,-0.54 1.05,-0.3 2.59,-0.24 3.6,0.1 0.15,0.05 0.29,0.1 0.42,0.15l0.5 0.22c0.01,0 0.02,0.01 0.03,0.02l0.58 0.34c0.46,0.31 0.84,0.68 1.16,1.11 0.35,0.48 0.55,1.08 0.59,1.69zm-33.92 2.47c-0.1,-0.68 0.43,-1.22 0.8,-1.42 0.57,-0.33 1.23,-0.29 1.95,-0.31 0.83,-0.03 1.26,-0.01 1.62,0.55 0.31,0.48 0.38,1.17 0.43,1.82 0.17,2.25 0.05,3.67 0.87,5.81 0.37,0.96 0.5,1.61 -0.52,2.27 -0.22,0.15 -0.5,0.26 -0.78,0.34 -0.62,0.19 -1.35,0.24 -2.01,0.15 -1.24,-0.17 -2.49,-0.81 -1.99,-2.26 0.44,-1.24 0.77,-2.28 0.79,-3.66 0.02,-0.98 -0.08,-1.93 -0.75,-2.58 -0.15,-0.15 -0.35,-0.41 -0.41,-0.71zm14.39 -1.79c-0.19,1.62 -1.99,3.49 -3.94,2.91 -0.44,-0.14 -1.1,-0.48 -0.42,0.42 0.92,1.22 2.75,0.85 3.49,-0.34 0.18,-0.3 0.18,-0.43 0.27,-0.6 0.21,-0.43 1.35,-0.48 1.93,0.04 0.62,0.55 0.34,2.1 0.02,2.86 -0.74,1.73 -2.46,2.67 -4.34,2.75 -3.03,0.12 -5.19,-2.46 -5.53,-5.08 -0.27,-2.05 0.49,-3.79 2.07,-4.92 0.67,-0.47 1.52,-0.87 2.52,-1.03 1.53,-0.24 3,0.16 3.67,1.5 0.22,0.44 0.33,0.94 0.26,1.49zm18.22 1.2c-0.05,0.14 -0.37,0.41 -0.49,0.51 -1.01,0.8 -2.61,1.15 -3.75,0.45 -0.7,-0.43 -0.78,-0.88 -1.11,-0.9 -0.15,0.4 0.08,1.09 0.27,1.39 0.71,1.16 2.54,1.19 3.36,0.35 0.35,-0.35 0.92,-0.05 1.24,0.19 0.47,0.34 0.74,0.91 0.46,1.56 -0.22,0.5 -0.73,1.14 -1.14,1.51 -0.31,0.27 -0.27,0.94 -0.51,1.28 -0.1,0.13 -0.34,0.31 -0.61,0.2 -0.21,-0.09 -0.25,-0.35 -0.4,-0.48 -0.2,-0.19 -0.43,-0.09 -0.54,0.14 -0.11,0.22 -0.1,0.51 -0.03,0.76 0.17,0.62 0.1,1.64 -0.56,1.96 -0.32,0.16 -1.09,0.16 -1.32,-0.22 -0.44,-0.73 0.41,-1.52 0.04,-2.19 -0.36,-0.66 -1,-0.76 -1.58,-1.09 -0.21,-0.12 -0.61,-0.39 -0.76,-0.55l-0.23 -0.23c-0.06,-0.05 -0.14,-0.15 -0.2,-0.23 -0.16,-0.19 -0.44,-0.54 -0.57,-0.76 -1.49,-2.48 -0.87,-6 1.37,-7.65 2.98,-2.18 8.11,-0.43 7.62,2.78 -0.05,0.29 -0.28,0.97 -0.52,1.2 -0.03,0.02 -0.03,0.02 -0.04,0.02zm-16.22 0.85c-0.11,-0.07 -0.18,-0.18 -0.3,-0.27 -0.35,-0.27 -0.84,-0.45 -1.35,-0.45 0.06,-0.24 0.41,-0.7 0.41,-1.69 0,-0.14 -0.02,-0.2 -0.03,-0.33 0,-0.12 -0.04,-0.21 -0.04,-0.31 0.23,0.17 0.72,1.07 0.84,1.32 0.2,0.42 0.47,1.31 0.47,1.73zm-11.9 -3.41c-0.31,1.32 -2.86,1.59 -3.92,0.83 -0.85,-0.61 -0.74,-1.69 0.34,-2.22 0.8,-0.39 2.29,-0.41 3.03,0.12 0.31,0.22 0.69,0.65 0.55,1.27zm-5.73 0.59c0,0 0,0.01 0,0.01 0.01,0.02 0.01,0.02 0.01,0.02l0.05 0.29c0.01,0.12 0.02,0.23 0.03,0.35 0.1,1.63 0.26,2.99 0.82,4.56 0.14,0.41 0.32,0.76 0.21,1.27 -0.1,0.46 -0.36,0.7 -0.62,0.92 -0.53,0.43 -1.51,0.72 -2.39,0.69 -0.97,-0.03 -1.71,-0.39 -2.14,-0.9 -0.59,-0.7 -0.18,-1.62 0,-2.46 0.24,-1.1 0.79,-3.56 -0.18,-4.47 -0.14,-0.14 -0.31,-0.17 -0.54,-0.22 -0.41,-0.01 -0.58,0.09 -0.81,0.3 -0.18,0.18 -0.34,0.37 -0.37,0.75 -0.06,0.91 0.27,2.98 0.58,3.84 0.1,0.28 0.19,0.54 0.31,0.82 0.11,0.27 0.2,0.58 0.16,0.93 -0.23,2.16 -5.47,2.21 -5.67,0.06 -0.05,-0.53 0.32,-1.26 0.46,-1.78 0.34,-1.27 0.48,-2.63 0.24,-3.95 -0.12,-0.72 -0.29,-1.11 -0.6,-1.65 -0.86,-1.5 0.7,-1.97 1.91,-2.03 0.66,-0.04 1.33,0.04 1.8,0.38 0.19,0.15 0.37,0.35 0.49,0.63 0.17,0.41 0.14,0.74 0.24,0.88 0.08,-0.04 0.42,-0.57 0.59,-0.77 0.66,-0.79 1.59,-1.42 2.78,-1.34 1.16,0.08 1.93,0.89 2.34,1.79 0.09,0.19 0.34,0.87 0.3,1.08zm26.37 -3.6c-0.1,0.52 -0.4,0.81 -0.64,1.12 -0.77,0.96 -1.56,1.99 -1.95,3.27 -0.34,1.1 -0.34,1.96 -0.33,3.15 0.02,1.61 -4,1.8 -4.82,0.57 -0.2,-0.29 -0.18,-1.09 -0.23,-1.52 -0.17,-1.5 -0.62,-2.6 -1.51,-3.7 -0.41,-0.49 -0.8,-0.94 -1.25,-1.38l-0.41 -0.47c-0.69,-0.91 -0.21,-1.84 0.46,-2.33 0.64,-0.47 1.73,-0.8 2.73,-0.76 0.53,0.03 0.84,0.23 1.06,0.68 0.45,0.94 0.74,3.05 1.08,4.14 0.28,0.95 0.4,0.05 0.47,-0.41 0.15,-0.94 0.28,-2.16 0.46,-3.02 0.1,-0.48 0.19,-0.93 0.5,-1.24 0.57,-0.57 2.13,-0.34 2.89,-0.07 0.72,0.25 1.7,0.96 1.49,1.97z"></path>
   <path class="fil0" d="M46.03 8.4l0 -0.81c0.28,0 0.93,0.09 1.17,0.19 0.45,0.17 0.67,0 0.91,-0.05 0,0.63 0.05,1.15 0.19,1.73 0.02,0.08 0.04,0.18 0.07,0.25 0.02,0.09 0.06,0.17 0.07,0.26 -1.1,0 -1.01,0.31 -1.62,0.31 -0.41,0 -0.55,-0.37 -0.64,-0.7 -0.09,-0.32 -0.15,-0.79 -0.15,-1.18zm-6.41 -2.39c-0.09,1.42 -0.42,2.37 -1.24,3.42 -0.37,0.48 -1.01,0.97 -1.57,1.22 -1.65,0.73 -3.38,0.56 -4.79,-0.52 -0.13,-0.1 -0.22,-0.17 -0.33,-0.29 -0.06,-0.07 -0.1,-0.09 -0.16,-0.15 -0.06,-0.06 -0.09,-0.11 -0.14,-0.17 -1.22,-1.39 -1.59,-4.07 -0.86,-5.87 0.75,-1.87 2.47,-2.99 4.51,-2.93 1.38,0.03 2.55,0.61 3.41,1.55 0.79,0.87 1.27,2.15 1.17,3.74zm17.49 5.21c0.06,0.16 0.06,0.54 0,0.74 -0.07,0.25 -0.19,0.41 -0.33,0.53 -0.33,0.28 -0.9,0.32 -1.41,0.24 -1.06,-0.16 -1.66,-0.57 -1.88,-1.53 -0.04,-0.21 -0.04,-0.64 -0.13,-0.77 -0.12,0.04 -0.28,0.27 -0.38,0.36 -0.39,0.37 -0.87,0.7 -1.49,0.72 -0.42,0.01 -0.86,-0.13 -1.17,-0.3 -1.67,-0.91 -1.67,-3.72 -1.16,-5.5 0.44,-1.51 1.32,-2.86 2.45,-3.4 0.7,-0.34 1.66,-0.41 2.38,-0.04 0.33,0.17 0.56,0.42 0.73,0.73 0.1,0.18 0.16,0.31 0.23,0.51 0.06,0.16 0.1,0.41 0.22,0.5 0.09,-0.04 0.21,-0.35 0.38,-0.55 0.51,-0.59 1.51,-0.36 2.13,-0.1 0.43,0.18 0.79,0.46 0.99,0.86 0.77,1.54 -0.45,2.73 -1.18,3.88 -0.35,0.56 -0.36,0.65 -0.44,1.42 -0.07,0.65 -0.03,1.07 0.06,1.7zm-35.67 -0.94l0.33 0.91c0.58,1.39 1.88,3.23 3.53,2.16 0.31,-0.2 0.78,-0.69 0.82,-1.09 0.03,-0.35 -0.18,-0.36 -0.22,-0.4 -0.75,-0.09 -1.2,0.56 -1.75,0.43 -0.67,-0.16 -1.03,-1.57 -0.45,-2.3 0.17,-0.21 0.41,-0.29 0.76,-0.36 1.23,-0.26 2.47,-0.52 3.71,-0.73 0.7,-0.12 1.31,-0.3 1.72,0.21 0.56,0.68 0.57,2.63 -0.61,2.46 -0.25,-0.04 -0.32,0.02 -0.35,0.24 -0.05,0.26 0.19,1.09 0.06,2.11 -0.09,0.64 -0.31,1.2 -0.57,1.69 -0.28,0.5 -1.08,1.44 -1.43,1.96 -0.25,0.36 -0.66,1.08 -1.1,1.16 -0.57,0.11 -0.55,-0.78 -1.02,-0.6 -0.45,0.17 -0.2,0.78 -0.24,1.43 -0.04,0.54 -0.04,0.89 -0.48,1.21 -0.1,0.08 -0.23,0.15 -0.39,0.18 -0.52,0.1 -0.97,-0.22 -1.11,-0.57 -0.23,-0.54 0.31,-1.69 -1.21,-2.76 -0.21,-0.15 -0.5,-0.26 -0.73,-0.41 -0.52,-0.33 -1.05,-0.75 -1.37,-1.18 -0.05,-0.05 -0.09,-0.1 -0.13,-0.15 -0.09,-0.12 -0.17,-0.21 -0.25,-0.33 -1.21,-1.71 -2.01,-3.59 -2.17,-5.77 -0.05,-0.6 -0.05,-1.58 0.07,-2.15 0.07,-0.72 0.34,-1.58 0.61,-2.18 0.35,-0.77 0.55,-1.06 1.05,-1.69 0.05,-0.07 0.12,-0.12 0.17,-0.19 0.19,-0.22 0.68,-0.64 0.91,-0.81 1.91,-1.38 4.95,-1.77 6.95,-0.57 0.97,0.59 1.97,1.74 2.21,3.3 0.61,3.95 -3.95,3.45 -4.72,2 -0.09,-0.16 -0.15,-0.33 -0.14,-0.55 0.03,-0.57 0.93,-1.4 0.53,-2.04 -0.17,-0.27 -0.61,-0.36 -1.03,-0.29 -1.62,0.23 -2.2,1.67 -2.27,3.21 -0.05,1.05 0.12,1.54 0.31,2.46zm27.44 0.94c0.27,0.51 -0.05,1.71 -0.49,2.3 -1.13,1.53 -3.42,1.87 -5.14,1.24 -0.26,-0.09 -0.46,-0.2 -0.68,-0.33 -0.17,-0.1 -0.47,-0.31 -0.57,-0.43 -0.14,-0.16 -0.27,-0.25 -0.45,-0.52 -0.14,-0.21 -0.24,-0.4 -0.35,-0.66 -0.12,-0.31 -0.35,-1.46 -0.2,-1.76 -0.11,-0.44 0.43,-2.1 0.62,-2.56 0.26,-0.61 1.01,-2.19 -0.42,-1.69 -0.24,0.09 -0.44,0.15 -0.59,-0.05 -0.3,-0.41 -0.21,-1.56 0.16,-1.86 0.29,-0.22 0.78,0.21 1.21,0.22 0.57,0.02 0.48,-0.61 0.36,-1.03 -0.24,-0.9 -0.61,-1.76 0.03,-2.48 0.92,-1.04 4.1,-0.91 3.88,1.17 -0.05,0.54 -0.75,2.1 -0.62,2.49 0.31,0.09 1.49,-0.11 1.81,-0.21 0.62,-0.19 0.71,0.86 0.64,1.33 -0.15,1.06 -0.6,0.64 -1.19,0.55 -0.3,-0.04 -0.62,-0.07 -0.93,-0.09 -0.4,-0.03 -0.58,0.01 -0.64,0.38 -0.07,0.47 -0.03,1.5 0.04,1.98 0.11,0.79 0.39,1.7 1.31,1.79 0.3,0.04 0.59,-0.03 0.87,-0.12 0.25,-0.08 0.51,-0.22 0.81,-0.17 0.27,0.04 0.47,0.27 0.53,0.51zm-19.43 -6.04l-0.02 0c0,-0.45 -0.45,-1.41 -0.68,-1.78 -0.33,-0.55 -0.67,-0.92 -1.13,-1.33 -0.05,-0.05 -0.1,-0.08 -0.15,-0.13 -0.06,-0.05 -0.12,-0.09 -0.18,-0.13 -0.88,-0.67 -2.16,-1.07 -3.27,-1.07 -1.73,0 -3.46,0.39 -4.83,1.42 -0.1,0.08 -0.18,0.13 -0.27,0.21 -0.05,0.04 -0.09,0.06 -0.13,0.1l-0.41 0.36c-0.17,0.15 -0.56,0.62 -0.69,0.79 -0.75,1.01 -1.27,2.17 -1.48,3.43 -0.38,2.25 -0.16,4.2 0.69,6.32 0.14,0.37 0.33,0.7 0.5,1.05 0.32,0.64 1,1.74 1.51,2.24 0.21,0.21 0.3,0.36 0.62,0.61 0.47,0.38 0.8,0.56 1.32,0.85 0.55,0.3 1,0.82 1,1.51 -0.01,0.48 -0.01,0.75 0.15,1.09 0.52,1.14 2.1,1.35 2.93,0.32 0.17,-0.21 0.26,-0.36 0.34,-0.68l0.11 -0.94c0.09,0 0.15,0.03 0.26,0.04 1.09,0.16 1.64,-1.07 2.17,-1.78 0.06,-0.07 0.09,-0.12 0.15,-0.19 0.1,-0.13 0.19,-0.24 0.29,-0.38 0.09,-0.13 0.19,-0.24 0.27,-0.37 0.35,-0.49 0.5,-0.7 0.77,-1.24 0.49,-1.01 0.52,-1.98 0.42,-3.1 -0.02,-0.27 0.17,0.07 0.78,-0.54 0.42,-0.42 0.49,-1.05 0.49,-1.67 0.13,0.08 0.21,0.22 0.34,0.32 0.08,0.06 0.12,0.1 0.19,0.15 0.97,0.74 2,1.17 3.34,1.17 1.53,0 2.88,-0.69 3.69,-1.48 0.05,-0.06 0.1,-0.1 0.15,-0.16 0.76,-0.78 1.22,-1.73 1.47,-2.82 0.11,0.03 0.2,0.13 0.31,0.18 0.18,0.07 0.52,0.13 0.72,0.04l-0.16 0.43c-0.06,0.14 -0.13,0.28 -0.18,0.42 -0.1,0.29 -0.2,0.58 -0.29,0.9 -0.54,1.88 -0.51,3.86 0.99,5.25 0.4,0.37 0.87,0.63 1.37,0.83 1.2,0.48 2.85,0.5 4.07,0.01 0.76,-0.3 1.38,-0.71 1.88,-1.33 0.35,-0.42 0.57,-0.9 0.71,-1.44 0.06,-0.25 0.13,-0.66 0.13,-0.95 0.06,0.02 0.11,0.06 0.17,0.09 0.06,0.04 0.1,0.06 0.17,0.1 0.66,0.32 1.52,0.46 2.23,0.2l0.47 -0.23c0.03,-0.01 0.05,-0.03 0.08,-0.04 0.07,-0.04 0.02,-0.02 0.07,-0.02 0.13,0.28 0.23,0.46 0.41,0.69 0.87,1.09 3.64,1.59 4.4,-0.06 0.21,-0.44 0.19,-0.98 0.1,-1.46 -0.09,-0.49 -0.07,-1.13 0,-1.61 0.07,-0.5 0.08,-0.52 0.34,-0.93 0.05,-0.1 0.11,-0.16 0.17,-0.25 0.35,-0.52 0.7,-1.02 0.98,-1.57 0.58,-1.14 0.45,-2.62 -0.56,-3.47 -0.29,-0.23 -0.53,-0.37 -0.91,-0.52 -0.52,-0.21 -0.99,-0.27 -1.56,-0.27 -0.33,0 -0.71,0.18 -0.91,0.31 -0.03,-0.12 -0.3,-0.47 -0.39,-0.57 -0.16,-0.17 -0.32,-0.29 -0.53,-0.42 -0.79,-0.48 -2.06,-0.51 -2.93,-0.14l-0.34 0.16c-0.73,0.44 -1.26,0.93 -1.74,1.65 -0.07,0.11 -0.12,0.2 -0.19,0.31 -0.15,0.26 -0.58,1.08 -0.61,1.35 -0.03,-0.04 -0.01,-0.01 -0.04,-0.06 -0.2,-0.3 -0.4,-0.56 -0.8,-0.63 -0.38,-0.06 -0.61,0.08 -0.95,0.14 -0.08,0.01 -0.28,0.02 -0.33,0.05 0.21,-0.91 0.48,-1 0.48,-2.1 0,-0.52 -0.22,-0.97 -0.55,-1.29l-0.19 -0.19c-0.82,-0.8 -2.53,-0.86 -3.57,-0.4 -0.88,0.39 -1.51,1.21 -1.4,2.22 0.04,0.39 0.13,0.74 0.24,1.12 0.03,0.11 0.09,0.28 0.1,0.38 -0.2,-0.02 -0.21,-0.15 -0.72,-0.15 -0.27,0 -0.47,0.15 -0.64,0.27 -0.05,-0.11 -0.08,-0.33 -0.11,-0.46 -0.05,-0.17 -0.1,-0.31 -0.15,-0.45 -0.19,-0.52 -0.58,-1.24 -0.97,-1.65 -0.66,-0.68 -1.02,-0.95 -1.89,-1.36 -0.41,-0.2 -1.28,-0.44 -1.88,-0.45l-0.03 0 -0.7 0 -0.04 0c-0.97,0.02 -2.1,0.47 -2.8,0.99l-0.36 0.29c-0.67,0.52 -1.29,1.49 -1.56,2.28 -0.17,0.51 -0.32,1.05 -0.32,1.62z"></path>
   <path class="fil1" d="M59.05 26.49c0.37,-0.08 0.8,0.03 1.07,0.21 0.94,0.65 0.36,2.1 -0.9,2.09 -0.35,0 -0.76,-0.13 -1.06,-0.25 -0.34,-0.13 -0.6,-0.33 -0.44,-0.77 0.19,-0.52 0.73,-1.17 1.33,-1.28zm-1.74 2.99l4.01 -0.02c0.27,0 1.16,0.05 1.34,-0.04 0.01,0 0.01,0 0.04,-0.02 0.24,-0.23 0.47,-0.91 0.52,-1.2 0.49,-3.21 -4.64,-4.96 -7.62,-2.78 -2.24,1.65 -2.86,5.17 -1.37,7.65 0.13,0.22 0.41,0.57 0.57,0.76 0.06,0.08 0.14,0.18 0.2,0.23l0.23 0.23c0.15,0.16 0.55,0.43 0.76,0.55 0.58,0.33 1.22,0.43 1.58,1.09 0.37,0.67 -0.48,1.46 -0.04,2.19 0.23,0.38 1,0.38 1.32,0.22 0.66,-0.32 0.73,-1.34 0.56,-1.96 -0.07,-0.25 -0.08,-0.54 0.03,-0.76 0.11,-0.23 0.34,-0.33 0.54,-0.14 0.15,0.13 0.19,0.39 0.4,0.48 0.27,0.11 0.51,-0.07 0.61,-0.2 0.24,-0.34 0.2,-1.01 0.51,-1.28 0.41,-0.37 0.92,-1.01 1.14,-1.51 0.28,-0.65 0.01,-1.22 -0.46,-1.56 -0.32,-0.24 -0.89,-0.54 -1.24,-0.19 -0.82,0.84 -2.65,0.81 -3.36,-0.35 -0.19,-0.3 -0.42,-0.99 -0.27,-1.39z"></path>
   <path class="fil1" d="M40.6 27.21c0.77,-0.11 1.35,0.5 1.21,1.27 -0.12,0.75 -0.7,1.05 -1.35,1.21 -0.33,0.07 -0.82,0.18 -1.05,-0.08 -0.26,-0.3 -0.33,-2.19 1.19,-2.4zm3.84 1.01c0.07,-0.55 -0.04,-1.05 -0.26,-1.49 -0.67,-1.34 -2.14,-1.74 -3.67,-1.5 -1,0.16 -1.85,0.56 -2.52,1.03 -1.58,1.13 -2.34,2.87 -2.07,4.92 0.34,2.62 2.5,5.2 5.53,5.08 1.88,-0.08 3.6,-1.02 4.34,-2.75 0.32,-0.76 0.6,-2.31 -0.02,-2.86 -0.58,-0.52 -1.72,-0.47 -1.93,-0.04 -0.09,0.17 -0.09,0.3 -0.27,0.6 -0.74,1.19 -2.57,1.56 -3.49,0.34 -0.68,-0.9 -0.02,-0.56 0.42,-0.42 1.95,0.58 3.75,-1.29 3.94,-2.91z"></path>
   <path class="fil1" d="M28.93 11.81l0 0.02c-0.15,-0.06 -2.21,-0.02 -2.7,-0.02 -0.06,0 -0.13,-0.01 -0.19,-0.01 -0.11,0 -0.14,-0.02 -0.14,0.06 0.04,0.04 0.25,0.05 0.22,0.4 -0.04,0.4 -0.51,0.89 -0.82,1.09 -1.65,1.07 -2.95,-0.77 -3.53,-2.16l-0.33 -0.91c-0.1,-0.07 -0.13,-0.05 -0.26,-0.05l-0.74 0c-1.22,0 -0.98,0.16 -0.98,-0.64l0 -2 -1.96 0c-0.16,0 -0.52,-0.04 -0.64,0.04 -0.12,0.57 -0.12,1.55 -0.07,2.15 0.16,2.18 0.96,4.06 2.17,5.77 0.08,0.12 0.16,0.21 0.25,0.33 0.04,0.05 0.08,0.1 0.13,0.15 0.32,0.43 0.85,0.85 1.37,1.18 0.23,0.15 0.52,0.26 0.73,0.41 1.52,1.07 0.98,2.22 1.21,2.76 0.14,0.35 0.59,0.67 1.11,0.57 0.16,-0.03 0.29,-0.1 0.39,-0.18 0.44,-0.32 0.44,-0.67 0.48,-1.21 0.04,-0.65 -0.21,-1.26 0.24,-1.43 0.47,-0.18 0.45,0.71 1.02,0.6 0.44,-0.08 0.85,-0.8 1.1,-1.16 0.35,-0.52 1.15,-1.46 1.43,-1.96 0.26,-0.49 0.48,-1.05 0.57,-1.69 0.13,-1.02 -0.11,-1.85 -0.06,-2.11z"></path>
   <path class="fil1" d="M55.18 23.85c0.21,-1.01 -0.77,-1.72 -1.49,-1.97 -0.76,-0.27 -2.32,-0.5 -2.89,0.07 -0.31,0.31 -0.4,0.76 -0.5,1.24 -0.18,0.86 -0.31,2.08 -0.46,3.02 -0.07,0.46 -0.19,1.36 -0.47,0.41 -0.34,-1.09 -0.63,-3.2 -1.08,-4.14 -0.22,-0.45 -0.53,-0.65 -1.06,-0.68 -1,-0.04 -2.09,0.29 -2.73,0.76 -0.67,0.49 -1.15,1.42 -0.46,2.33l0.41 0.47c0.45,0.44 0.84,0.89 1.25,1.38 0.89,1.1 1.34,2.2 1.51,3.7 0.05,0.43 0.03,1.23 0.23,1.52 0.82,1.23 4.84,1.04 4.82,-0.57 -0.01,-1.19 -0.01,-2.05 0.33,-3.15 0.39,-1.28 1.18,-2.31 1.95,-3.27 0.24,-0.31 0.54,-0.6 0.64,-1.12z"></path>
   <path class="fil1" d="M34.8 2.69c0.59,-0.12 1.04,0.31 1.22,0.64 0.26,0.46 0.36,0.92 0.35,1.54 -0.05,2.42 -1.57,3.29 -2.46,1.86 -0.62,-1 -0.59,-3.73 0.89,-4.04zm4.82 3.32c0.1,-1.59 -0.38,-2.87 -1.17,-3.74 -0.86,-0.94 -2.03,-1.52 -3.41,-1.55 -2.04,-0.06 -3.76,1.06 -4.51,2.93 -0.73,1.8 -0.36,4.48 0.86,5.87 0.05,0.06 0.08,0.11 0.14,0.17 0.06,0.06 0.1,0.08 0.16,0.15 0.11,0.12 0.2,0.19 0.33,0.29 1.41,1.08 3.14,1.25 4.79,0.52 0.56,-0.25 1.2,-0.74 1.57,-1.22 0.82,-1.05 1.15,-2 1.24,-3.42z"></path>
   <path class="fil1" d="M53.66 4.78c0.39,-0.12 0.68,0.38 0.79,0.66 0.15,0.38 0,0.84 -0.11,1.19 -0.18,0.57 -0.37,1.73 -1,1.92 -0.22,0.06 -0.46,0.02 -0.6,-0.11 -0.71,-0.64 0.12,-3.41 0.92,-3.66zm-0.17 6.42c0.03,0.03 0.02,0.02 0.08,0.03l2.62 0c0.26,0 0.69,0.03 0.92,-0.01 -0.09,-0.63 -0.13,-1.05 -0.06,-1.7 0.08,-0.77 0.09,-0.86 0.44,-1.42 0.73,-1.15 1.95,-2.34 1.18,-3.88 -0.2,-0.4 -0.56,-0.68 -0.99,-0.86 -0.62,-0.26 -1.62,-0.49 -2.13,0.1 -0.17,0.2 -0.29,0.51 -0.38,0.55 -0.12,-0.09 -0.16,-0.34 -0.22,-0.5 -0.07,-0.2 -0.13,-0.33 -0.23,-0.51 -0.17,-0.31 -0.4,-0.56 -0.73,-0.73 -0.72,-0.37 -1.68,-0.3 -2.38,0.04 -1.13,0.54 -2.01,1.89 -2.45,3.4 -0.51,1.78 -0.51,4.59 1.16,5.5 0.31,0.17 0.75,0.31 1.17,0.3 0.62,-0.02 1.1,-0.35 1.49,-0.72 0.1,-0.09 0.26,-0.32 0.38,-0.36 0.09,0.13 0.09,0.56 0.13,0.77z"></path>
   <path class="fil1" d="M24.06 27.51l4.49 -0.01c0.11,0 0.22,0.04 0.26,-0.05 0.04,-0.21 -0.21,-0.89 -0.3,-1.08 -0.41,-0.9 -1.18,-1.71 -2.34,-1.79 -1.19,-0.08 -2.12,0.55 -2.78,1.34 -0.17,0.2 -0.51,0.73 -0.59,0.77 -0.1,-0.14 -0.07,-0.47 -0.24,-0.88 -0.12,-0.28 -0.3,-0.48 -0.49,-0.63 -0.47,-0.34 -1.14,-0.42 -1.8,-0.38 -1.21,0.06 -2.77,0.53 -1.91,2.03 0.31,0.54 0.48,0.93 0.6,1.65 0.24,1.32 0.1,2.68 -0.24,3.95 -0.14,0.52 -0.51,1.25 -0.46,1.78 0.2,2.15 5.44,2.1 5.67,-0.06 0.04,-0.35 -0.05,-0.66 -0.16,-0.93 -0.12,-0.28 -0.21,-0.54 -0.31,-0.82 -0.31,-0.86 -0.64,-2.93 -0.58,-3.84 0.03,-0.38 0.19,-0.57 0.37,-0.75 0.23,-0.21 0.4,-0.31 0.81,-0.3z"></path>
   <path class="fil1" d="M16.86 7.63c0.12,-0.08 0.48,-0.04 0.64,-0.04l1.96 0 0 2c0,0.8 -0.24,0.64 0.98,0.64l0.74 0c0.13,0 0.16,-0.02 0.26,0.05 -0.19,-0.92 -0.36,-1.41 -0.31,-2.46 0.07,-1.54 0.65,-2.98 2.27,-3.21 0.42,-0.07 0.86,0.02 1.03,0.29 0.4,0.64 -0.5,1.47 -0.53,2.04 -0.01,0.22 0.05,0.39 0.14,0.55 0.77,1.45 5.33,1.95 4.72,-2 -0.24,-1.56 -1.24,-2.71 -2.21,-3.3 -2,-1.2 -5.04,-0.81 -6.95,0.57 -0.23,0.17 -0.72,0.59 -0.91,0.81 -0.05,0.07 -0.12,0.12 -0.17,0.19 -0.5,0.63 -0.7,0.92 -1.05,1.69 -0.27,0.6 -0.54,1.46 -0.61,2.18z"></path>
   <path class="fil1" d="M30.05 30.01c0.06,0.3 0.26,0.56 0.41,0.71 0.67,0.65 0.77,1.6 0.75,2.58 -0.02,1.38 -0.35,2.42 -0.79,3.66 -0.5,1.45 0.75,2.09 1.99,2.26 0.66,0.09 1.39,0.04 2.01,-0.15 0.28,-0.08 0.56,-0.19 0.78,-0.34 1.02,-0.66 0.89,-1.31 0.52,-2.27 -0.82,-2.14 -0.7,-3.56 -0.87,-5.81 -0.05,-0.65 -0.12,-1.34 -0.43,-1.82 -0.36,-0.56 -0.79,-0.58 -1.62,-0.55 -0.72,0.02 -1.38,-0.02 -1.95,0.31 -0.37,0.2 -0.9,0.74 -0.8,1.42z"></path>
   <path class="fil1" d="M41 11.06l0.03 0.17 7.85 -0.01c-0.06,-0.24 -0.26,-0.47 -0.53,-0.51 -0.3,-0.05 -0.56,0.09 -0.81,0.17 -0.28,0.09 -0.57,0.16 -0.87,0.12 -0.92,-0.09 -1.2,-1 -1.31,-1.79 -0.07,-0.48 -0.11,-1.51 -0.04,-1.98 0.06,-0.37 0.24,-0.41 0.64,-0.38 0.31,0.02 0.63,0.05 0.93,0.09 0.59,0.09 1.04,0.51 1.19,-0.55 0.07,-0.47 -0.02,-1.52 -0.64,-1.33 -0.32,0.1 -1.5,0.3 -1.81,0.21 -0.13,-0.39 0.57,-1.95 0.62,-2.49 0.22,-2.08 -2.96,-2.21 -3.88,-1.17 -0.64,0.72 -0.27,1.58 -0.03,2.48 0.12,0.42 0.21,1.05 -0.36,1.03 -0.43,-0.01 -0.92,-0.44 -1.21,-0.22 -0.37,0.3 -0.46,1.45 -0.16,1.86 0.15,0.2 0.35,0.14 0.59,0.05 1.43,-0.5 0.68,1.08 0.42,1.69 -0.19,0.46 -0.73,2.12 -0.62,2.56z"></path>
   <path class="fil2" d="M24.06 27.51c0.23,0.05 0.4,0.08 0.54,0.22 0.97,0.91 0.42,3.37 0.18,4.47 -0.18,0.84 -0.59,1.76 0,2.46 0.43,0.51 1.17,0.87 2.14,0.9 0.88,0.03 1.86,-0.26 2.39,-0.69 0.26,-0.22 0.52,-0.46 0.62,-0.92 0.11,-0.51 -0.07,-0.86 -0.21,-1.27 -0.56,-1.57 -0.72,-2.93 -0.82,-4.56 -0.01,-0.12 -0.02,-0.23 -0.03,-0.35l-0.05 -0.29c0,0 0,0 -0.01,-0.02 0,0 0,-0.01 0,-0.01 -0.04,0.09 -0.15,0.05 -0.26,0.05l-4.49 0.01z"></path>
   <path class="fil0" d="M38.67 19.06c-0.01,0.21 0.23,0.53 0.32,0.6 0.16,0.15 0.4,0.26 0.7,0.27 0.81,0.01 1.06,-0.63 1.16,-0.73 0.16,-0.17 0.54,-0.08 0.74,0.01 0.75,0.38 0.19,1.47 -0.17,1.94 -0.94,1.24 -3.81,1.35 -4.64,-1.21 -0.17,-0.5 -0.21,-1.1 -0.1,-1.65 0.11,-0.53 0.29,-0.86 0.63,-1.25 0.27,-0.3 0.64,-0.56 1.14,-0.74 0.49,-0.18 1.09,-0.26 1.63,-0.14 1.18,0.27 1.66,1.27 1.11,2.23 -0.18,0.33 -0.59,0.71 -1.03,0.86 -0.88,0.3 -1.22,-0.23 -1.49,-0.19zm-2.04 -2.36l0 0zm-2.85 4.78c-0.16,0.09 -0.24,0.73 -0.88,0.93 -1.53,0.47 -2.38,-1.47 -2.48,-2.82 -0.08,-1.15 0.23,-2.17 0.91,-2.66 0.6,-0.45 1.39,-0.45 1.9,0.16l0.35 0.44c0.07,0.06 0,0.02 0.09,0.06 -0.04,-0.66 -0.47,-1.55 -0.5,-1.79 -0.18,-1.17 2.58,-1.32 2.9,-0.33 0.09,0.3 -0.07,0.65 -0.13,0.94 -0.24,1.06 -0.27,2.02 -0.03,3.09 0.06,0.3 0.15,0.6 0.26,0.88 0.08,0.22 0.29,0.64 0.3,0.85 0.04,0.93 -1.48,1.31 -2.22,0.93 -0.21,-0.11 -0.4,-0.4 -0.47,-0.68zm2.85 -4.78c0.01,-0.13 0.07,-0.34 0.1,-0.45 0.65,-2.21 -2.35,-2.53 -3.5,-1.83 -0.25,0.15 -0.42,0.29 -0.58,0.53 -0.2,0.29 -0.21,0.46 -0.21,0.94 -0.39,0 -0.33,-0.03 -0.78,0.08 -0.46,0.11 -0.83,0.38 -1.14,0.7 -0.07,0.07 -0.14,0.17 -0.2,0.25 -0.66,0.88 -0.75,2.28 -0.54,3.39 0.21,1.17 0.85,2.28 1.84,2.73 0.62,0.28 1.49,0.21 2.02,-0.2 0.06,-0.04 0.07,-0.07 0.13,-0.11 0.06,0.02 0.13,0.07 0.19,0.1 0.28,0.14 0.68,0.21 1,0.21 0.6,0.01 1.17,-0.18 1.62,-0.53 0.14,-0.12 0.49,-0.5 0.51,-0.71 0.06,0.04 0.12,0.11 0.19,0.17 0.23,0.18 0.38,0.27 0.66,0.41 1.11,0.56 2.49,0.41 3.4,-0.19 0.56,-0.36 1.01,-0.94 1.22,-1.64 0.21,-0.72 0.21,-1.35 -0.4,-1.84 -0.08,-0.06 -0.13,-0.1 -0.23,-0.13 0.06,-0.28 0.22,-0.33 0.21,-1.05 0,-0.64 -0.39,-1.31 -0.91,-1.66 -0.92,-0.63 -2.13,-0.6 -3.09,-0.24 -0.27,0.1 -0.62,0.28 -0.84,0.44l-0.67 0.63z"></path>
   <path class="fil2" d="M32.98 18.09c0.93,-0.2 1.1,2.24 0.26,2.39 -0.55,0.1 -0.74,-0.67 -0.79,-1.08 -0.06,-0.52 0.04,-1.21 0.53,-1.31zm0.8 3.39c0.07,0.28 0.26,0.57 0.47,0.68 0.74,0.38 2.26,0 2.22,-0.93 -0.01,-0.21 -0.22,-0.63 -0.3,-0.85 -0.11,-0.28 -0.2,-0.58 -0.26,-0.88 -0.24,-1.07 -0.21,-2.03 0.03,-3.09 0.06,-0.29 0.22,-0.64 0.13,-0.94 -0.32,-0.99 -3.08,-0.84 -2.9,0.33 0.03,0.24 0.46,1.13 0.5,1.79 -0.09,-0.04 -0.02,0 -0.09,-0.06l-0.35 -0.44c-0.51,-0.61 -1.3,-0.61 -1.9,-0.16 -0.68,0.49 -0.99,1.51 -0.91,2.66 0.1,1.35 0.95,3.29 2.48,2.82 0.64,-0.2 0.72,-0.84 0.88,-0.93z"></path>
   <path class="fil2" d="M48.88 11.22l-7.85 0.01 -0.03 -0.17c-0.15,0.3 0.08,1.45 0.2,1.76 0.11,0.26 0.21,0.45 0.35,0.66 0.18,0.27 0.31,0.36 0.45,0.52 0.1,0.12 0.4,0.33 0.57,0.43 0.22,0.13 0.42,0.24 0.68,0.33 1.72,0.63 4.01,0.29 5.14,-1.24 0.44,-0.59 0.76,-1.79 0.49,-2.3z"></path>
   <path class="fil2" d="M39.22 17.17c0.9,-0.21 1.09,1.06 0.13,1.24 -0.15,0.03 -0.49,0.05 -0.63,-0.01 -0.19,-0.07 -0.18,-0.27 -0.13,-0.49 0.09,-0.4 0.25,-0.65 0.63,-0.74zm-0.55 1.89c0.27,-0.04 0.61,0.49 1.49,0.19 0.44,-0.15 0.85,-0.53 1.03,-0.86 0.55,-0.96 0.07,-1.96 -1.11,-2.23 -0.54,-0.12 -1.14,-0.04 -1.63,0.14 -0.5,0.18 -0.87,0.44 -1.14,0.74 -0.34,0.39 -0.52,0.72 -0.63,1.25 -0.11,0.55 -0.07,1.15 0.1,1.65 0.83,2.56 3.7,2.45 4.64,1.21 0.36,-0.47 0.92,-1.56 0.17,-1.94 -0.2,-0.09 -0.58,-0.18 -0.74,-0.01 -0.1,0.1 -0.35,0.74 -1.16,0.73 -0.3,-0.01 -0.54,-0.12 -0.7,-0.27 -0.09,-0.07 -0.33,-0.39 -0.32,-0.6z"></path>
   <path class="fil2" d="M25.9 11.86c0,-0.08 0.03,-0.06 0.14,-0.06 0.06,0 0.13,0.01 0.19,0.01 0.49,0 2.55,-0.04 2.7,0.02l0 -0.02c0.03,-0.22 0.1,-0.28 0.35,-0.24 1.18,0.17 1.17,-1.78 0.61,-2.46 -0.41,-0.51 -1.02,-0.33 -1.72,-0.21 -1.24,0.21 -2.48,0.47 -3.71,0.73 -0.35,0.07 -0.59,0.15 -0.76,0.36 -0.58,0.73 -0.22,2.14 0.45,2.3 0.55,0.13 1,-0.52 1.75,-0.43z"></path>
   <path class="fil0" d="M34.8 2.69c-1.48,0.31 -1.51,3.04 -0.89,4.04 0.89,1.43 2.41,0.56 2.46,-1.86 0.01,-0.62 -0.09,-1.08 -0.35,-1.54 -0.18,-0.33 -0.63,-0.76 -1.22,-0.64z"></path>
   <path class="fil2" d="M34.54 26.86c0.14,-0.62 -0.24,-1.05 -0.55,-1.27 -0.74,-0.53 -2.23,-0.51 -3.03,-0.12 -1.08,0.53 -1.19,1.61 -0.34,2.22 1.06,0.76 3.61,0.49 3.92,-0.83z"></path>
   <path class="fil0" d="M53.66 4.78c-0.8,0.25 -1.63,3.02 -0.92,3.66 0.14,0.13 0.38,0.17 0.6,0.11 0.63,-0.19 0.82,-1.35 1,-1.92 0.11,-0.35 0.26,-0.81 0.11,-1.19 -0.11,-0.28 -0.4,-0.78 -0.79,-0.66z"></path>
   <path class="fil0" d="M59.05 26.49c-0.6,0.11 -1.14,0.76 -1.33,1.28 -0.16,0.44 0.1,0.64 0.44,0.77 0.3,0.12 0.71,0.25 1.06,0.25 1.26,0.01 1.84,-1.44 0.9,-2.09 -0.27,-0.18 -0.7,-0.29 -1.07,-0.21z"></path>
   <path class="fil0" d="M40.6 27.21c-1.52,0.21 -1.45,2.1 -1.19,2.4 0.23,0.26 0.72,0.15 1.05,0.08 0.65,-0.16 1.23,-0.46 1.35,-1.21 0.14,-0.77 -0.44,-1.38 -1.21,-1.27z"></path>
   <path class="fil2" d="M57.31 29.48c0.33,0.02 0.41,0.47 1.11,0.9 1.14,0.7 2.74,0.35 3.75,-0.45 0.12,-0.1 0.44,-0.37 0.49,-0.51 -0.18,0.09 -1.07,0.04 -1.34,0.04l-4.01 0.02z"></path>
   <path class="fil2" d="M57.11 11.22c-0.23,0.04 -0.66,0.01 -0.92,0.01l-2.62 0c-0.06,-0.01 -0.05,0 -0.08,-0.03 0.22,0.96 0.82,1.37 1.88,1.53 0.51,0.08 1.08,0.04 1.41,-0.24 0.14,-0.12 0.26,-0.28 0.33,-0.53 0.06,-0.2 0.06,-0.58 0,-0.74z"></path>
   <path class="fil0" d="M32.98 18.09c-0.49,0.1 -0.59,0.79 -0.53,1.31 0.05,0.41 0.24,1.18 0.79,1.08 0.84,-0.15 0.67,-2.59 -0.26,-2.39z"></path>
   <path class="fil0" d="M39.22 17.17c-0.38,0.09 -0.54,0.34 -0.63,0.74 -0.05,0.22 -0.06,0.42 0.13,0.49 0.14,0.06 0.48,0.04 0.63,0.01 0.96,-0.18 0.77,-1.45 -0.13,-1.24z"></path>
  </g>
 </g>
</svg>
