<svg xmlns="http://www.w3.org/2000/svg" xmlns:xlink="http://www.w3.org/1999/xlink" width="81.418" height="51.863" viewBox="0 0 81.418 51.863">
  <defs>
    <clipPath id="clip-path">
      <rect id="Rectángulo_93" data-name="Rectángulo 93" width="81.418" height="51.863" transform="translate(0 0)" fill="none"/>
    </clipPath>
  </defs>
  <g id="Grupo_136" data-name="Grupo 136" transform="translate(0 0.004)">
    <g id="Grupo_135" data-name="Grupo 135" transform="translate(0 -0.004)" clip-path="url(#clip-path)">
      <path id="Trazado_42" data-name="Trazado 42" d="M61.828,6.676H58.14a25.931,25.931,0,0,0-34.748,0h-3.8a19.59,19.59,0,0,0,0,39.18h4.585a25.932,25.932,0,0,0,33.182,0h4.472a19.59,19.59,0,0,0,0-39.18" transform="translate(0 0.005)" fill="#fff"/>
      <path id="Trazado_43" data-name="Trazado 43" d="M170.461,348.03c-.452-.286-.84-.571-1.262-.791a7.59,7.59,0,0,0-5.383-.623,9.554,9.554,0,0,0-5.072,2.835,5.649,5.649,0,0,0-1.6,3.436,1.923,1.923,0,0,0,1.964,2.143,4.6,4.6,0,0,0,2.923-.829,7.6,7.6,0,0,0,2.631-2.724,2.592,2.592,0,0,0,.318-1.725,1.02,1.02,0,0,0-1.013-.92,3.1,3.1,0,0,0-1.817.428,5.8,5.8,0,0,0-2.544,2.575,2.155,2.155,0,0,0-.187.7c-.064.571.07.775.6,1.023a2.262,2.262,0,0,1,.22.136.865.865,0,0,1-1.182-.657,3.125,3.125,0,0,1,.919-2.7,5.222,5.222,0,0,1,3.517-1.717,2.788,2.788,0,0,1,.866.075,1.271,1.271,0,0,1,.883,1.423,4.023,4.023,0,0,1-.583,1.861,6.529,6.529,0,0,1-4.268,3.166,2.89,2.89,0,0,1-3.044-.794,2.8,2.8,0,0,1-.555-2.536,6.054,6.054,0,0,1,3.343-4.142,11.063,11.063,0,0,1,6.8-1.437,6.917,6.917,0,0,1,3.295,1.271.93.93,0,0,0,1.142.036,4.711,4.711,0,0,1,3.332-.6,2.265,2.265,0,0,1,1.8,2.08,11.332,11.332,0,0,1-.114,1.625,1.168,1.168,0,0,1-.155.339l-.117-.024a2.234,2.234,0,0,1,.038-.374,3.528,3.528,0,0,0,.062-1.835,2.058,2.058,0,0,0-1.685-1.623,5.01,5.01,0,0,0-3.542.853,2.673,2.673,0,0,1,1.149,2.6c-.237,1.18-1.237,1.407-2.3,1.678.173.108.253.167.34.212a3.018,3.018,0,0,1,.78,4.846,4.606,4.606,0,0,1-3.4,1.58,1.686,1.686,0,0,1-1.835-2.144,4.032,4.032,0,0,1,2.954-2.871c1.147-.172,1.787.543,1.475,1.658a3.005,3.005,0,0,1-.232.571.372.372,0,0,1-.3.168,1.2,1.2,0,0,1,.053-.226c.049-.111.123-.21.171-.321.188-.435.347-.889,0-1.305a1.247,1.247,0,0,0-1.32-.3,3.721,3.721,0,0,0-2.594,3.035c-.071,1.119.87,1.746,2.059,1.371a4.434,4.434,0,0,0,2.857-4.242,2.216,2.216,0,0,0-.716-1.51,1.2,1.2,0,0,0-1.11-.394,2.852,2.852,0,0,1-.8-.006,1.505,1.505,0,0,1-.372-.136q0-.063,0-.127a1.487,1.487,0,0,1,.372-.122,2.992,2.992,0,0,1,.654.03,2.089,2.089,0,0,0,2.384-1.745,2.4,2.4,0,0,0-.406-1.8c-.163-.227-.276-.226-.485-.045a13.618,13.618,0,0,0-3.054,4.229,24.57,24.57,0,0,1-1.628,2.883,8.2,8.2,0,0,1-4.983,3.19,4.2,4.2,0,0,1-2.852-.2,1.709,1.709,0,0,1-1.116-1.779,1,1,0,0,1,.931-.946.654.654,0,0,1,.629.56.671.671,0,0,1-.41.7.55.55,0,0,1-.738-.278.514.514,0,0,0-.071-.08,1.041,1.041,0,0,0,.26,1.176,2.427,2.427,0,0,0,1.425.672,4.8,4.8,0,0,0,4.438-1.593,25.34,25.34,0,0,0,1.882-2.454c.985-1.357,1.9-2.767,2.938-4.082a23.632,23.632,0,0,1,2.11-2.105c.084-.082.176-.156.338-.3" transform="translate(-149.145 -329.467)" fill="#653a2b"/>
      <path id="Trazado_44" data-name="Trazado 44" d="M1070.072,478.506a.387.387,0,0,1,.04-.124c.464-.593.927-1.186,1.4-1.771a1.886,1.886,0,0,1,.383-.336.664.664,0,0,1,1.119.489,3.646,3.646,0,0,1-.146.994,2.942,2.942,0,0,1-.184.472l.083.069c.158-.187.321-.37.472-.562.364-.464.721-.934,1.084-1.4a.465.465,0,0,1,.144-.11c.22-.12.5-.244.651-.011.073.112-.051.461-.191.583-.428.373-.9.691-1.368,1.023a1.084,1.084,0,0,0-.283,1.333.587.587,0,0,0,.874.08,5.62,5.62,0,0,0,.974-.967,5.958,5.958,0,0,1,3.49-2.155.819.819,0,0,1,1,.39.873.873,0,0,1-.367,1.054,13.443,13.443,0,0,1-1.715.77c-.256.1-.545.124-.811.207-.246.078-.571.122-.7.3a2.2,2.2,0,0,0-.529,1.407.67.67,0,0,0,.722.665,2.494,2.494,0,0,0,1.717-.777,11.914,11.914,0,0,0,2.61-3.3c.023-.043.05-.083.075-.125.41-.694.6-.773,1.457-.576-.07.133-.13.26-.2.379-.676,1.124-1.357,2.246-2.029,3.373a1.389,1.389,0,0,0-.2.5.589.589,0,0,0,.1.459.5.5,0,0,0,.465.016,2.646,2.646,0,0,0,.789-.629c.679-.931,1.317-1.893,1.961-2.85a6.6,6.6,0,0,0,.511-.883.639.639,0,0,1,.74-.434,5.057,5.057,0,0,0,.628,0l-2.875,4.959.073.069a1.264,1.264,0,0,0,.243-.106c.495-.351,1.006-.684,1.469-1.074a2.207,2.207,0,0,0,.466-.707c.313-.619.619-1.226,1.427-1.308.1-.01.2-.124.275-.213.423-.517.846-1.036,1.251-1.567.114-.15.15-.357.251-.519a10.042,10.042,0,0,1,.646-.949c.057-.072.237-.046.36-.065,0,.124.051.286-.009.365-.225.3-.5.557-.727.857a1.085,1.085,0,0,0-.267.6,6.776,6.776,0,0,0,.208,1.246c.057.246.181.476.263.718a1.7,1.7,0,0,1-.768,2.281,2.909,2.909,0,0,1-1.843.448,1.171,1.171,0,0,1-1.159-.972,2.108,2.108,0,0,0-.084-.222,9.583,9.583,0,0,1-1.272.935,4.366,4.366,0,0,0-1.778,1.939,8.757,8.757,0,0,1-3.5,3.664,4.315,4.315,0,0,1-1.269.4.815.815,0,0,1-.966-1.018,2.852,2.852,0,0,1,1.148-1.719,13.839,13.839,0,0,1,3.065-1.815c.275-.129.55-.258.819-.4a.613.613,0,0,0,.244-.207,13.17,13.17,0,0,0,.848-1.673l-.267.29c-.107.116-.211.235-.321.349a1.114,1.114,0,0,1-1.34.354,1.125,1.125,0,0,1-.44-1.347.5.5,0,0,0-.006-.33c-.152.168-.294.346-.457.5a3.927,3.927,0,0,1-2.008,1.252,1.477,1.477,0,0,1-1.767-1.6c.006-.128.014-.257.026-.476-.433.323-.812.633-1.3.5-.583-.16-.5-.668-.5-1.221a3.516,3.516,0,0,0-.445.435c-.425.621-.866,1.234-1.236,1.887a.84.84,0,0,1-.946.529,3.69,3.69,0,0,0-.507,0c.117-.214.2-.369.285-.519.657-1.108,1.321-2.211,1.969-3.323a3.177,3.177,0,0,0,.284-.706c.077-.265-.082-.345-.3-.262a.942.942,0,0,0-.377.273c-.44.534-.864,1.081-1.294,1.623-.088.11-.176.22-.264.33l-.08-.048m10.112,3.738-.089-.081a13.659,13.659,0,0,0-3.856,2.424,3.912,3.912,0,0,0-.811,1.263.609.609,0,0,0,.709.843,2.905,2.905,0,0,0,1.141-.414,7.729,7.729,0,0,0,2.029-2.5c.316-.5.586-1.024.876-1.538m7.02-5.734-.095-.039q-.42.523-.84,1.046a2.85,2.85,0,0,0-.285.378.42.42,0,0,0-.019.27.582.582,0,0,1-.38.787c-.187.085-.388.138-.581.212a.99.99,0,0,0-.616,1.206.894.894,0,0,0,1.209.42,2.7,2.7,0,0,0,.77-.531c1.11-1.066.834-2.439.837-3.748m-10.866,1.856a4.727,4.727,0,0,0,2.437-1.187c.223-.221.515-.512.277-.81s-.589-.074-.812.113c-.545.458-1.058.954-1.574,1.446a3.223,3.223,0,0,0-.328.437" transform="translate(-1018.253 -451.699)" fill="#653a2b"/>
      <path id="Trazado_45" data-name="Trazado 45" d="M822.166,352.83c-.687-.249-1.379-.443-2.021-.746a2.725,2.725,0,0,1-1.7-2.365,2.193,2.193,0,0,1,1.069-2.027,6.719,6.719,0,0,1,3.308-1.126,9.6,9.6,0,0,1,5.489,1.276.782.782,0,0,1,.093.058,2.43,2.43,0,0,0,2.106.482,2.35,2.35,0,0,1,1.109.108.829.829,0,0,1,.491,1.3,1.264,1.264,0,0,1-.313.4c-.292.211-.2.4-.08.675a15.122,15.122,0,0,1,.553,1.6.521.521,0,0,1-.107.39,6.078,6.078,0,0,0-.857-2.207c-.413.233-.8.479-1.215.681a14.381,14.381,0,0,1-6.169,1.538.64.64,0,0,0-.612.347,6.52,6.52,0,0,0-1.1,3.386,2.278,2.278,0,0,0,2.295,2.414,5.789,5.789,0,0,0,5.06-2.448,4.81,4.81,0,0,0,1.016-2c.307-1.389-.5-2.248-1.9-1.932a4.052,4.052,0,0,0-2.975,2.4,4.16,4.16,0,0,0-.167.726,2.463,2.463,0,0,1,.555-.387.651.651,0,0,1,.786.523.688.688,0,0,1-.577.759.759.759,0,0,1-.917-.709,2.364,2.364,0,0,1,.5-1.709,4.009,4.009,0,0,1,3.611-1.8,1.443,1.443,0,0,1,1.423,1.466,4.008,4.008,0,0,1-1.111,2.994,6.2,6.2,0,0,1-5.375,2.307,3.307,3.307,0,0,1-3.086-3.327,5.209,5.209,0,0,1,.681-2.721,2.691,2.691,0,0,0,.129-.26.121.121,0,0,0,0-.072m6.774-4.363c-.072-.042-.17-.106-.273-.159a11.368,11.368,0,0,0-4.891-1.264,6.659,6.659,0,0,0-3.789.96,2.075,2.075,0,0,0-.057,3.726,11.7,11.7,0,0,0,2.089.806.456.456,0,0,0,.583-.213,8.192,8.192,0,0,1,3.12-2.566c1.041-.48,2.129-.857,3.219-1.289m-5.176,4.116.065.113a14.589,14.589,0,0,0,7.38-2.239,5.624,5.624,0,0,0-1.7-1.637.5.5,0,0,0-.348.008,10.331,10.331,0,0,0-5.046,3.308c-.122.144-.232.3-.347.447m7.727-2.334a5.4,5.4,0,0,0,.5-.616.582.582,0,0,0-.234-.871,2.765,2.765,0,0,0-1.74-.111l1.476,1.6" transform="translate(-778.969 -329.818)" fill="#653a2b"/>
      <path id="Trazado_46" data-name="Trazado 46" d="M477.412,423.6c.28-.863.869-.519,1.421-.6-.082.161-.124.254-.174.342-.68,1.177-1.367,2.351-2.037,3.534a1.7,1.7,0,0,0-.181.587c-.045.309.153.469.441.358a1.635,1.635,0,0,0,.459-.284,13.454,13.454,0,0,0,2.633-3.331c1.03-1.677,2.078-3.343,3.1-5.023a.59.59,0,0,1,.638-.351,6.5,6.5,0,0,0,.723,0l-3.159,5,.064.055c.139-.148.274-.3.419-.442a1.081,1.081,0,0,1,1.74-.016,1.766,1.766,0,0,1,.185,1.706,4.024,4.024,0,0,1-1.658,1.978,6.258,6.258,0,0,1-1.782.863c-.913.245-1.469-.294-1.444-1.244,0-.127,0-.255,0-.476-.229.264-.39.471-.573.655-.29.292-.593.572-.9.85a.9.9,0,0,1-1.077.174.994.994,0,0,1-.513-1.012,1.085,1.085,0,0,0-.038-.454c-.151.18-.294.367-.455.537-.241.255-.483.512-.747.742-.724.63-1.646.264-1.829-.852a2.11,2.11,0,0,1,.4-1.657,5.876,5.876,0,0,1,3.383-2.187.7.7,0,0,1,.951.537m-4.058,3.6c-.016.558.3.794.756.6a1.814,1.814,0,0,0,.567-.387,14.913,14.913,0,0,0,2.283-3.145c.173-.3.356-.714.042-.974s-.7-.028-1,.188a8.432,8.432,0,0,0-1.958,2.041,3.559,3.559,0,0,0-.692,1.673m9.75-3.248c-.011-.642-.249-.824-.648-.665a1.422,1.422,0,0,0-.572.373q-1.125,1.381-2.2,2.8a2.234,2.234,0,0,0-.344.8c-.111.446.153.733.578.582a2.766,2.766,0,0,0,1.135-.666,20.086,20.086,0,0,0,1.688-2.229,3.77,3.77,0,0,0,.365-.992" transform="translate(-449.847 -398.63)" fill="#653a2b"/>
      <path id="Trazado_47" data-name="Trazado 47" d="M633.77,505l-2.884,4.951.083.071a10.3,10.3,0,0,0,3.041-2.434l.082.069a1.87,1.87,0,0,1-.165.265,10.8,10.8,0,0,1-2.858,2.29,1.822,1.822,0,0,0-.646.649,13.839,13.839,0,0,1-2.606,3.534,6.532,6.532,0,0,1-1.957,1.245,2.064,2.064,0,0,1-.492.126c-.406.051-.816.074-1.074-.34a1.126,1.126,0,0,1,.052-1.21,5.1,5.1,0,0,1,2.1-1.97c.838-.465,1.711-.867,2.552-1.327a1.717,1.717,0,0,0,.583-.553c.29-.444.527-.921.786-1.385l-.07-.058c-.123.132-.242.268-.37.4a4.761,4.761,0,0,1-.551.523.924.924,0,0,1-1.493-.706,1.661,1.661,0,0,1,.168-.842c.56-1.05,1.158-2.079,1.752-3.111a.381.381,0,0,1,.251-.176c.3-.022.6-.008.975-.008-.1.189-.157.315-.228.434-.695,1.169-1.4,2.334-2.083,3.508-.151.259-.337.6-.055.834s.628.007.839-.213a11.45,11.45,0,0,0,1.244-1.467c.579-.853,1.11-1.742,1.621-2.639a.723.723,0,0,1,.8-.462,4.913,4.913,0,0,0,.607,0m-4.66,6.181-.086-.077a13.476,13.476,0,0,0-3.35,2,7.992,7.992,0,0,0-1.193,1.4.782.782,0,0,0,.039.986c.248.289.57.2.879.125a2.353,2.353,0,0,0,1.329-.844c.54-.7,1.043-1.426,1.535-2.159.307-.458.566-.948.847-1.424" transform="translate(-594.037 -480.632)" fill="#653a2b"/>
      <path id="Trazado_48" data-name="Trazado 48" d="M1460.136,505.046c-.4.68-.738,1.264-1.081,1.847s-.7,1.163-1.031,1.758a3.033,3.033,0,0,0-.3.813c-.068.317.136.527.44.42a2.178,2.178,0,0,0,.816-.509c.447-.46.841-.972,1.257-1.462.076-.09.151-.18.3-.358-.031.167-.024.238-.055.281a7.931,7.931,0,0,1-1.868,2.022.982.982,0,0,1-1.154.085,1.022,1.022,0,0,1-.429-1.147,15.374,15.374,0,0,1,.789-1.713c.293-.558.655-1.08.946-1.639a.64.64,0,0,1,.72-.4,6.137,6.137,0,0,0,.647,0" transform="translate(-1386.711 -480.676)" fill="#653a2b"/>
      <path id="Trazado_49" data-name="Trazado 49" d="M1509.591,473.964a.815.815,0,0,1-.743.779c-.235,0-.365-.1-.361-.352a.822.822,0,0,1,.72-.75c.251,0,.381.128.384.322" transform="translate(-1435.731 -450.798)" fill="#653a2b"/>
    </g>
  </g>
</svg>
