<?xml version="1.0" encoding="UTF-8"?>
<!-- Creator: CorelDRAW 2020 (64-Bit) -->
<svg xmlns="http://www.w3.org/2000/svg" xmlns:xlink="http://www.w3.org/1999/xlink" xmlns:xodm="http://www.corel.com/coreldraw/odm/2003" xml:space="preserve" width="15.5786mm" height="8.2396mm" version="1.1" style="shape-rendering:geometricPrecision; text-rendering:geometricPrecision; image-rendering:optimizeQuality; fill-rule:evenodd; clip-rule:evenodd" viewBox="0 0 1557.86 823.96">
 <defs>
  <style type="text/css">
   <![CDATA[
    .str2 {stroke:#73BB81;stroke-width:17.64;stroke-miterlimit:10}
    .str1 {stroke:#F08341;stroke-width:17.64;stroke-miterlimit:10}
    .str0 {stroke:#CFC9C4;stroke-width:17.64;stroke-miterlimit:10}
    .fil1 {fill:none;fill-rule:nonzero}
    .fil3 {fill:#73BB81;fill-rule:nonzero}
    .fil2 {fill:#EF8340;fill-rule:nonzero}
    .fil0 {fill:#CFC9C4;fill-rule:nonzero}
   ]]>
  </style>
 </defs>
 <g id="OK">
  <metadata id="CorelCorpID_0Corel-Layer"></metadata>
  <polygon class="fil0 str0" points="220.57,300.87 38.44,300.87 38.44,280.07 254.28,280.07 52.06,619.99 263.59,619.99 263.59,640.78 16.92,640.78 "></polygon>
  <path class="fil0 str0" d="M305.17 208.79c0,-11.91 9.54,-21.42 21.46,-21.42 11.9,0 21.45,9.51 21.45,21.42 0,11.92 -9.55,21.46 -21.45,21.46 -11.92,0 -21.46,-9.54 -21.46,-21.46z"></path>
  <polygon class="fil0 str0" points="316.94,278.63 336.31,278.63 336.31,640.79 316.94,640.79 "></polygon>
  <path class="fil0 str0" d="M540.36 299.41c-62.39,0 -108.98,65.27 -117.59,121.92l0 198.66 136.24 0c66.71,0 123.37,-77.46 123.37,-151.31l0 -17.23c0,-75.29 -52.37,-152.04 -123.37,-152.04l-18.65 0zm-136.96 518.5l0 -536.41 19.37 0 0 83.91c0,0 9.31,-15.77 17.92,-27.98 8.61,-12.19 33.71,-33.69 48.77,-42.31 15.77,-9.34 32.26,-13.62 50.9,-13.62l18.65 0c35.13,0 71.72,17.91 98.97,48.04 27.26,30.84 45.17,68.85 45.17,128.38 0,58.79 -17.91,101.83 -45.17,132.67 -27.25,31.55 -63.84,49.47 -98.97,49.47l-136.24 0 0 177.85 -19.37 0z"></path>
  <path class="fil1 str0" d="M540.36 299.41c-62.39,0 -108.98,65.27 -117.59,121.92l0 198.66 136.24 0c66.71,0 123.37,-77.46 123.37,-151.31l0 -17.23c0,-75.29 -52.37,-152.04 -123.37,-152.04l-18.65 0zm-136.96 518.5l0 -536.41 19.37 0 0 83.91c0,0 9.31,-15.77 17.92,-27.98 8.61,-12.19 33.71,-33.69 48.77,-42.31 15.77,-9.34 32.26,-13.62 50.9,-13.62l18.65 0c35.13,0 71.72,17.91 98.97,48.04 27.26,30.84 45.17,68.85 45.17,128.38 0,58.79 -17.91,101.83 -45.17,132.67 -27.25,31.55 -63.84,49.47 -98.97,49.47l-136.24 0 0 177.85 -19.37 0z"></path>
  <path class="fil0 str0" d="M1081.72 281.5l19.37 0 0 95.39c0,0 2.87,-7.88 19.37,-33.73 18.64,-29.39 63.11,-61.66 99.67,-61.66l17.95 0c8.58,0 17.19,0.72 25.07,2.87l0 23.66c-7.88,-2.15 -15.04,-2.88 -24.38,-3.56l-18.64 0c-45.89,0 -78.17,40.14 -99.67,68.82 -12.19,17.92 -19.37,34.41 -19.37,34.41l0 233.81 -19.37 0 0 -360.01z"></path>
  <path class="fil1 str0" d="M1081.72 281.5l19.37 0 0 95.39c0,0 2.87,-7.88 19.37,-33.73 18.64,-29.39 63.11,-61.66 99.67,-61.66l17.95 0c8.58,0 17.19,0.72 25.07,2.87l0 23.66c-7.88,-2.15 -15.04,-2.88 -24.38,-3.56l-18.64 0c-45.89,0 -78.17,40.14 -99.67,68.82 -12.19,17.92 -19.37,34.41 -19.37,34.41l0 233.81 -19.37 0 0 -360.01z"></path>
  <path class="fil0 str0" d="M1292.81 482.3c-7.16,12.19 -10.03,28.68 -10.03,45.9 0,18.64 3.57,38.01 12.18,52.33 8.61,15.78 29.4,41.61 68.85,41.61l159.21 0 0 -180.72 -13.64 0 -128.38 0c-42.29,0 -72.42,14.36 -88.19,40.88zm246.67 159.21l-175.67 0c-17.22,0 -33.71,-4.33 -48.07,-12.21 -14.32,-8.61 -26.53,-20.07 -35.14,-35.83 -9.31,-15.08 -14.32,-48.08 -14.32,-67.42 0,-19.37 4.29,-37.31 12.9,-52.36 5.02,-8.6 14.36,-21.51 30.82,-32.27 18.67,-12.9 43.05,-18.65 71,-18.65l142.71 0 -0.69 -20.07 -0.73 -3.58c-4.32,-65.26 -25.1,-98.98 -128.38,-98.98l-81.03 0 0 -19.37 81.03 0c71.73,0 101.13,16.5 122.65,40.88 9.33,10.76 15.76,25.12 19.37,43.76 3.55,17.92 5,48.76 5,79.61l-1.45 196.49z"></path>
  <path class="fil1 str0" d="M1292.81 482.3c-7.16,12.19 -10.03,28.68 -10.03,45.9 0,18.64 3.57,38.01 12.18,52.33 8.61,15.78 29.4,41.61 68.85,41.61l159.21 0 0 -180.72 -13.64 0 -128.38 0c-42.29,0 -72.42,14.36 -88.19,40.88zm246.67 159.21l-175.67 0c-17.22,0 -33.71,-4.33 -48.07,-12.21 -14.32,-8.61 -26.53,-20.07 -35.14,-35.83 -9.31,-15.08 -14.32,-48.08 -14.32,-67.42 0,-19.37 4.29,-37.31 12.9,-52.36 5.02,-8.6 14.36,-21.51 30.82,-32.27 18.67,-12.9 43.05,-18.65 71,-18.65l142.71 0 -0.69 -20.07 -0.73 -3.58c-4.32,-65.26 -25.1,-98.98 -128.38,-98.98l-81.03 0 0 -19.37 81.03 0c71.73,0 101.13,16.5 122.65,40.88 9.33,10.76 15.76,25.12 19.37,43.76 3.55,17.92 5,48.76 5,79.61l-1.45 196.49z"></path>
  <path class="fil2 str1" d="M776.56 594.05c-27.98,-30.13 -43.74,-75.3 -43.74,-113.31l0 -39.44c0,-37.31 15.76,-82.48 43.74,-112.6 27.95,-29.4 63.09,-46.59 97.53,-46.59l18.64 0c33.7,0 69.57,17.19 97.52,46.59 27.98,30.12 43.74,75.29 43.74,112.6l0 39.44c0,38.01 -15.76,83.18 -43.74,113.31 -27.95,29.4 -63.82,46.62 -97.52,46.62l-18.64 0c-34.44,0 -69.58,-17.22 -97.53,-46.62z"></path>
  <path class="fil3 str1" d="M902.54 282.86c66.05,13.05 114.42,-12.4 137.74,-29.11 31.54,-31.02 41.14,-73.2 43.97,-92.57 -21.48,1.17 -71.99,7.17 -119.05,36.73 -39.3,30.61 -58.09,69.34 -64.3,84.41 0.54,0.18 1.09,0.36 1.64,0.54zm36.16 23.28c-12.76,0 -26.3,-1.24 -40.59,-4.1l-1.14 -0.3c-70.62,-23.18 -101.18,-36.09 -148.92,-124.14l-0.5 -1.07c-37.41,-94.64 -7.47,-154.86 -6.17,-157.37l3.77 -7.34 7.89 2.44c4.04,1.26 99.05,31.32 123.8,86.66 30.3,67.71 5.34,130.32 4.26,132.95l-3.71 9.05 -9.07 -3.66c-2.18,-0.87 -53.61,-22.37 -66.25,-93.67l19.37 -3.44c7.62,42.99 31.43,64.56 44.83,73.55 5.17,-19.37 12.5,-62.31 -7.38,-106.76 -17.25,-38.55 -79.96,-64.48 -103.06,-72.92 -5.96,18.04 -16.43,65.96 9.8,132.73 40.48,74.51 66.22,90 116.54,107.32 6.52,-16.43 26.87,-59.51 71.35,-94l0.78 -0.54c66.97,-42.27 138.26,-40.35 141.26,-40.28l9.91 0.34 -0.42 9.91c-0.12,2.84 -3.51,70.13 -51.57,116.86l-1.09 0.91c-20.79,15.04 -60.19,36.87 -113.69,36.87z"></path>
  <path class="fil1 str2" d="M902.54 282.86c66.05,13.05 114.42,-12.4 137.74,-29.11 31.54,-31.02 41.14,-73.2 43.97,-92.57 -21.48,1.17 -71.99,7.17 -119.05,36.73 -39.3,30.61 -58.09,69.34 -64.3,84.41 0.54,0.18 1.09,0.36 1.64,0.54zm36.16 23.28c-12.76,0 -26.3,-1.24 -40.59,-4.1l-1.14 -0.3c-70.62,-23.18 -101.18,-36.09 -148.92,-124.14l-0.5 -1.07c-37.41,-94.64 -7.47,-154.86 -6.17,-157.37l3.77 -7.34 7.89 2.44c4.04,1.26 99.05,31.32 123.8,86.66 30.3,67.71 5.34,130.32 4.26,132.95l-3.71 9.05 -9.07 -3.66c-2.18,-0.87 -53.61,-22.37 -66.25,-93.67l19.37 -3.44c7.62,42.99 31.43,64.56 44.83,73.55 5.17,-19.37 12.5,-62.31 -7.38,-106.76 -17.25,-38.55 -79.96,-64.48 -103.06,-72.92 -5.96,18.04 -16.43,65.96 9.8,132.73 40.48,74.51 66.22,90 116.54,107.32 6.52,-16.43 26.87,-59.51 71.35,-94l0.78 -0.54c66.97,-42.27 138.26,-40.35 141.26,-40.28l9.91 0.34 -0.42 9.91c-0.12,2.84 -3.51,70.13 -51.57,116.86l-1.09 0.91c-20.79,15.04 -60.19,36.87 -113.69,36.87z"></path>
 </g>
</svg>
